<svg width="60" height="60" viewBox="0 0 60 60" fill="none" xmlns="http://www.w3.org/2000/svg">
<path d="M24.5967 18.4514C26.0571 17.9376 27.1988 18.7734 28.0869 19.6565C29.3401 20.9045 29.921 22.5198 30.1787 24.1624V24.1633C30.6683 27.3607 30.5655 30.5581 29.1191 33.5452L28.9746 33.8333C28.876 34.0256 28.8177 34.1645 28.792 34.2649C28.7655 34.3685 28.7853 34.386 28.7783 34.3743C28.7705 34.3613 28.7739 34.3855 28.874 34.4084C28.9722 34.431 29.1203 34.4425 29.3359 34.4407C33.271 34.408 37.1773 34.4636 41.1064 34.4084C41.8904 34.3969 42.6231 34.4961 43.2471 34.802C43.8785 35.1115 44.3806 35.6234 44.7109 36.4006L44.8164 36.6731C45.0372 37.3062 45.0792 37.9267 44.9326 38.512C44.7651 39.1807 44.3566 39.78 43.7344 40.2883L43.7354 40.2893C43.563 40.4302 43.5545 40.4998 43.5547 40.5334C43.5549 40.5616 43.5622 40.603 43.5879 40.6682C43.6141 40.7346 43.653 40.8098 43.7041 40.9094L43.873 41.2581C44.235 42.0583 44.364 42.7684 44.1992 43.4407C44.0115 44.2062 43.4564 44.866 42.5781 45.5295H42.5771C42.3921 45.668 42.3466 45.7333 42.333 45.7776C42.3207 45.8179 42.3182 45.8981 42.4082 46.1194L42.4092 46.1233C42.8206 47.1799 42.9431 48.048 42.6582 48.8137C42.374 49.577 41.7072 50.178 40.6924 50.7561L40.6904 50.7571C40.4813 50.8739 40.455 50.9385 40.4482 50.9651C40.4356 51.0154 40.4471 51.0981 40.5195 51.3274L40.5938 51.5823C40.9309 52.8474 40.757 53.985 40.1367 54.8274C39.5166 55.6694 38.4804 56.1754 37.1729 56.2375L36.9072 56.2444C31.3113 56.2444 25.7197 56.2315 20.1279 56.259H20.127C19.6426 56.259 19.1977 56.114 18.8066 55.9827C18.4011 55.8464 18.0622 55.7294 17.7285 55.7258C17.6013 55.7261 17.5156 55.7719 17.4355 55.8586C17.3444 55.9575 17.2677 56.1026 17.1768 56.2952C17.0915 56.4757 16.9931 56.699 16.8652 56.8958C16.7343 57.0972 16.5599 57.292 16.3057 57.4143L16.3047 57.4133C15.7122 57.7093 15.0598 57.8659 14.3975 57.8694H4.25098C3.21217 57.8628 2.39187 57.5994 1.83105 57.0305C1.27139 56.4625 1.01174 55.6322 1 54.5823V35.2942C1 34.0521 1.22667 33.1283 1.82227 32.5227C2.41895 31.9161 3.32963 31.6858 4.55078 31.6858C7.72648 31.6858 10.896 31.7102 14.0645 31.6702H14.0654C14.8244 31.6599 15.534 31.7564 16.127 32.0706C16.7292 32.3897 17.1872 32.9211 17.4609 33.7288C17.517 33.894 17.5685 33.9532 17.5908 33.9709C17.5991 33.9776 17.6025 33.9811 17.6279 33.9758C17.6678 33.9675 17.7236 33.9412 17.8066 33.8909C17.8738 33.8501 17.982 33.7786 18.0703 33.7327L18.3301 33.592C20.9749 32.1062 22.2545 29.689 22.7627 26.7092C23.0492 25.0348 23.0094 23.3547 23.0498 21.6282C23.0632 21.061 23.0618 20.401 23.2441 19.8274C23.4339 19.2309 23.824 18.7198 24.5967 18.4514ZM11.0625 33.2795C10.582 33.2399 10.3999 33.3296 10.3145 33.4338C10.2373 33.5283 10.1909 33.6857 10.1758 33.9495L10.1709 34.2502V34.2512C10.2185 37.4219 10.1881 40.5966 10.1855 43.7717C10.1938 44.115 10.1804 44.4586 10.1445 44.8L10.1426 44.7991C10.1332 44.9822 10.0605 45.1564 9.93359 45.2893C9.80721 45.4215 9.63761 45.5016 9.45605 45.5198L9.45703 45.5217C9.34751 45.5395 9.23553 45.532 9.12891 45.5012C9.02211 45.4704 8.92315 45.4166 8.83984 45.343C8.7565 45.2694 8.69027 45.1777 8.64648 45.0754C8.60376 44.9755 8.58287 44.8676 8.58594 44.759C8.55345 44.4267 8.53917 44.0929 8.5459 43.759C8.5459 40.5515 8.52355 37.3359 8.55859 34.1243C8.55857 33.7262 8.49088 33.5377 8.39648 33.4417C8.32886 33.3729 8.21312 33.3168 7.99414 33.301L7.73828 33.3C6.61694 33.3526 5.44983 33.2995 4.35449 33.3167L4.35547 33.3176C3.62169 33.3312 3.22543 33.4511 2.99902 33.678C2.77363 33.9041 2.65554 34.2975 2.6543 35.0315C2.64094 41.5428 2.64094 48.0485 2.6543 54.5481V54.5491C2.65431 55.2663 2.78056 55.6678 3.01367 55.9006C3.24711 56.1335 3.6482 56.2576 4.35938 56.26C7.60946 56.275 10.8649 56.275 14.125 56.26H14.126C14.9164 56.26 15.3381 56.1319 15.5781 55.884C15.8206 55.6337 15.9411 55.1972 15.9424 54.3987L15.9346 44.7639V35.2463C15.9346 34.3756 15.8252 33.9269 15.5869 33.676C15.352 33.4289 14.9283 33.3088 14.0859 33.3C13.1062 33.3001 12.0767 33.3632 11.0625 33.2795ZM26.4414 20.4524C25.995 20.1182 25.6035 19.9013 25.1787 20.0667C24.9533 20.1571 24.8577 20.3026 24.8076 20.4934C24.7499 20.7133 24.7595 20.9527 24.7441 21.2463V21.2473C24.6507 22.9249 24.6908 24.6845 24.4922 26.384C24.0185 30.4872 22.1337 33.7407 18.2246 35.5325L18.2256 35.5334C17.9018 35.6835 17.7663 35.8581 17.6982 36.0442C17.6224 36.2516 17.6191 36.4974 17.6191 36.8264V52.4749C17.6191 53.2035 17.7698 53.6943 18.0586 54.0256C18.3456 54.3549 18.8062 54.5696 19.5215 54.6653C19.8023 54.689 20.0847 54.6954 20.3662 54.6829L20.375 54.6819L28.5098 54.6272H28.5117C31.3512 54.6272 34.187 54.6422 37.0264 54.6272H37.0273C38.3163 54.6272 39.1962 53.7847 39.2246 52.7288C39.239 52.1925 39.0504 51.7886 38.7061 51.511C38.3531 51.2265 37.8083 51.0531 37.0801 51.0471C35.0842 51.0322 33.0722 51.0473 31.0703 51.0198C30.9508 51.0198 30.8473 51.0288 30.6943 51.0325C30.5582 51.0357 30.4027 51.0333 30.2559 51.0012C30.1067 50.9686 29.9479 50.9008 29.8271 50.76C29.7054 50.618 29.6484 50.4319 29.6445 50.2131C29.6407 49.9956 29.6894 49.8074 29.8027 49.6604C29.9157 49.5141 30.0697 49.4384 30.2178 49.3987C30.3634 49.3596 30.5192 49.3508 30.6572 49.3499C30.7271 49.3494 30.7967 49.3513 30.8613 49.3528C30.9274 49.3543 30.9881 49.355 31.0449 49.3547H31.0469C33.7568 49.3547 36.4684 49.3547 39.1797 49.3372H39.1816C39.8761 49.3371 40.3764 49.1663 40.6982 48.887C41.0141 48.6128 41.1905 48.2068 41.1855 47.6624L41.1729 47.4739C41.1266 47.0485 40.9548 46.7199 40.6826 46.4866C40.367 46.2161 39.888 46.0486 39.2383 46.0403H39.2373C37.6542 46.0178 36.0752 46.0403 34.4824 46.0403C34.362 46.0403 34.2635 46.0495 34.1084 46.053C33.9729 46.056 33.8165 46.0534 33.6699 46.0188C33.5202 45.9834 33.3612 45.9103 33.2461 45.76C33.1314 45.61 33.0862 45.4168 33.0938 45.1936H33.0928C33.0998 44.9767 33.1603 44.7928 33.2822 44.6526C33.4029 44.5141 33.5605 44.4464 33.709 44.4124C33.8553 44.3788 34.0102 44.3738 34.1465 44.3752C34.3009 44.3769 34.4033 44.3843 34.5254 44.3831H34.5264C36.4883 44.3705 38.4524 44.3831 40.4111 44.3831C41.2047 44.383 41.7348 44.2358 42.0654 43.9768C42.3837 43.7274 42.5584 43.3412 42.5654 42.7551C42.5723 42.172 42.399 41.7677 42.0811 41.5002C41.7947 41.2595 41.3601 41.1025 40.75 41.0598L40.4775 41.0491H34.8457C34.6334 41.0491 34.3752 41.0262 34.1709 40.8997C34.0629 40.8327 33.9705 40.7371 33.9111 40.6077C33.8674 40.5122 33.8461 40.4064 33.8428 40.2932L33.8447 40.177C33.8529 40.0324 33.8923 39.9027 33.9668 39.7942C34.0423 39.6844 34.1429 39.6124 34.2461 39.5657C34.4387 39.4786 34.6708 39.4684 34.833 39.4602H34.835C35.1318 39.4474 35.4448 39.4592 35.7227 39.4592C37.6836 39.4592 39.6436 39.46 41.6035 39.4475H41.6055C41.9803 39.4475 42.3064 39.379 42.5713 39.2336C42.8321 39.0905 43.0482 38.8643 43.1963 38.5188L43.2012 38.509L43.251 38.3958C43.3579 38.1276 43.3963 37.8361 43.3623 37.5481C43.3235 37.2193 43.1919 36.908 42.9824 36.6516L42.9785 36.6477C42.5342 36.0777 41.9042 36.0754 41.1201 36.0754H27.7227C27.633 36.0755 27.5582 36.0799 27.4492 36.0823C27.3507 36.0844 27.2394 36.0837 27.1279 36.0667C26.8925 36.0306 26.6534 35.921 26.4902 35.6438C26.3244 35.3619 26.3539 35.0968 26.4531 34.8752C26.5405 34.6802 26.699 34.4908 26.7861 34.3694C29.0892 31.1301 29.1081 27.5065 28.4463 23.7493L28.4453 23.7463C28.2421 22.5126 27.5984 21.3973 26.6377 20.6057L26.4414 20.4524Z" fill="#FA8B02" stroke="#FA8B02" stroke-width="0.5"/>
<path d="M42.0327 2.1394C50.1492 2.37491 56.9625 8.10612 58.6401 16.1541C60.2892 24.0618 56.1339 32.2705 48.7788 35.5222L48.7798 35.5232C48.6271 35.591 48.4545 35.6947 48.2485 35.8123C48.0516 35.9246 47.8288 36.0467 47.606 36.1238C47.3845 36.2004 47.1298 36.2445 46.8823 36.1638C46.625 36.0799 46.4264 35.8782 46.2866 35.571C46.1486 35.2674 46.1237 34.9884 46.2388 34.7468C46.3489 34.5159 46.5612 34.3757 46.7632 34.283C46.9674 34.1892 47.2039 34.1252 47.4087 34.0701C47.6255 34.0117 47.8016 33.9641 47.9292 33.905C54.7745 30.7202 58.4527 23.3414 56.7671 16.0662C55.1135 8.91934 48.5858 3.85885 41.1987 3.98706C37.9307 4.04259 34.7632 5.12679 32.146 7.08472C29.5289 9.04264 27.5946 11.7749 26.6187 14.8943V14.8953C26.5231 15.1988 26.4299 15.5383 26.3218 15.8552C26.2932 15.9725 26.2417 16.0835 26.1694 16.1804C26.0909 16.2856 25.9902 16.3722 25.8745 16.4343C25.7587 16.4965 25.6307 16.5325 25.4995 16.5398C25.376 16.5467 25.253 16.5271 25.1372 16.4841C24.8833 16.4091 24.6957 16.258 24.5952 16.0457C24.4992 15.8425 24.4973 15.6138 24.5454 15.3992H24.5444C24.6288 14.9814 24.7382 14.5689 24.8706 14.1638V14.1628C26.0283 10.6371 28.2779 7.57072 31.2935 5.40796C34.309 3.24535 37.9343 2.09844 41.645 2.13257L42.0327 2.1394Z" fill="#FA8B02" stroke="#FA8B02" stroke-width="0.5"/>
<path d="M41.4316 8.48523C41.6649 8.46987 41.8675 8.50574 42.0332 8.60144C42.2011 8.6985 42.3072 8.84264 42.3711 8.99792C42.4914 9.29091 42.4716 9.65263 42.4482 9.91589L42.4473 9.92078C42.4059 10.2998 42.4899 10.465 42.5967 10.5604C42.7268 10.6765 42.9498 10.7476 43.3105 10.8094C45.0706 11.1102 46.2171 12.1771 46.8486 13.7362L46.9688 14.0546V14.0555C47.055 14.306 47.1885 14.667 47.1904 15.0009C47.1914 15.1751 47.1572 15.3605 47.0508 15.5272C46.9699 15.6538 46.856 15.757 46.71 15.8348L46.5527 15.9042C46.3064 15.9946 46.0809 16.0152 45.8828 15.9413C45.6824 15.8664 45.5589 15.7129 45.4795 15.5604C45.4019 15.4111 45.3539 15.239 45.3164 15.0917C45.2962 15.0122 45.2789 14.9404 45.2617 14.8749L45.208 14.6962C44.9059 13.8773 44.4005 13.2765 43.7422 12.9081C43.0821 12.5388 42.2491 12.3925 41.2773 12.5184H41.2764C40.4074 12.6298 39.7187 12.9346 39.2295 13.3837C38.7423 13.831 38.4378 14.4352 38.3574 15.1757C38.2706 15.969 38.4426 16.6615 38.8311 17.2147C39.2199 17.7682 39.8393 18.202 40.6816 18.452H40.6826C41.1102 18.5742 41.5502 18.66 42.0049 18.7567C42.4546 18.8524 42.9151 18.9579 43.3604 19.118L43.7393 19.2684C45.5797 20.071 46.5763 21.6483 46.5693 23.6307L46.5557 24.036C46.4944 24.9662 46.2185 25.792 45.7285 26.4784C45.1684 27.2628 44.34 27.8488 43.2725 28.2059H43.2715C42.9292 28.3192 42.7192 28.4285 42.5947 28.5692C42.4828 28.6959 42.4122 28.8821 42.4404 29.2274C42.4626 29.4606 42.5058 29.8203 42.4199 30.1219C42.3744 30.2818 42.2893 30.4412 42.1367 30.5614C41.9844 30.6814 41.788 30.744 41.5537 30.7538C41.3216 30.7634 41.1209 30.7202 40.959 30.6171C40.7956 30.5129 40.6956 30.363 40.6377 30.2059C40.5282 29.9088 40.556 29.547 40.583 29.288C40.6211 28.9169 40.5551 28.7531 40.4619 28.6571C40.3798 28.5727 40.2454 28.5052 40.0215 28.4452L39.7666 28.3876C37.6647 27.9725 36.2112 26.4382 35.9111 24.5292V24.5282C35.8769 24.3077 35.8428 24.0384 35.9141 23.8007C35.952 23.6744 36.0202 23.5553 36.1299 23.4559C36.2382 23.3578 36.3755 23.2897 36.5381 23.2469C36.8635 23.1614 37.1361 23.206 37.3496 23.3895C37.5397 23.553 37.6485 23.8014 37.7324 24.0282C38.1777 25.233 38.7403 25.9828 39.4639 26.3729C40.1873 26.763 41.1227 26.8205 42.375 26.5282L42.3848 26.5262L42.6318 26.4677C43.1993 26.3054 43.705 25.9712 44.0781 25.5087C44.5045 24.9798 44.7298 24.3167 44.7139 23.6376V23.6307C44.7137 22.2662 43.8502 21.1373 42.3447 20.7137C41.9376 20.5995 41.5169 20.5229 41.0811 20.4384C40.6502 20.3548 40.2066 20.2639 39.7773 20.119C37.669 19.4074 36.4956 17.6959 36.5088 15.5145C36.5091 14.4068 36.7849 13.4396 37.3457 12.662C37.9073 11.8832 38.7413 11.3132 39.8262 10.9794H39.8271C40.189 10.8685 40.3703 10.7423 40.4658 10.6014C40.5372 10.4961 40.5787 10.3561 40.583 10.1493L40.5752 9.9198C40.5543 9.67423 40.5338 9.34376 40.6299 9.06433C40.6803 8.91771 40.7658 8.77527 40.9062 8.66687C41.0467 8.55848 41.2232 8.49914 41.4307 8.48523H41.4316Z" fill="#FA8B02" stroke="#FA8B02" stroke-width="0.5"/>
<path d="M12.0544 50.192C12.3702 50.1789 12.6854 50.2308 12.9802 50.3444C13.2752 50.458 13.5439 50.6315 13.7693 50.8531C13.9946 51.0748 14.1723 51.3404 14.2908 51.6334C14.4093 51.9265 14.4667 52.2412 14.4587 52.5573L14.4578 52.5563C14.4719 52.8758 14.4225 53.1951 14.3103 53.4948C14.196 53.8 14.0202 54.0787 13.7937 54.3131C13.5673 54.5474 13.2949 54.7324 12.9939 54.8571C12.6939 54.9812 12.3712 55.042 12.0466 55.0367H12.0447L12.0427 55.0377V55.0367C10.6438 55.0345 9.63833 53.9505 9.66577 52.5289C9.65844 52.2165 9.71533 51.9055 9.83276 51.6158C9.95167 51.3228 10.1295 51.0571 10.3562 50.8365C10.583 50.6158 10.8537 50.4445 11.1501 50.3336C11.439 50.2256 11.7466 50.179 12.0544 50.193V50.192ZM12.115 51.7965C11.8281 51.7965 11.6362 51.8731 11.5154 51.986C11.3956 52.0978 11.3131 52.2758 11.3025 52.5436C11.2917 52.8159 11.3574 53.0043 11.4636 53.1246C11.568 53.2428 11.743 53.3308 12.0251 53.3405L12.0398 53.3414L12.0535 53.3434C12.1521 53.3581 12.2531 53.3503 12.3484 53.3209C12.4438 53.2915 12.532 53.2403 12.6052 53.1725C12.6783 53.1047 12.7356 53.021 12.7722 52.9283C12.8088 52.8356 12.8242 52.7358 12.8171 52.6364L12.8152 52.611L12.8181 52.5865C12.8311 52.4873 12.8231 52.3863 12.7937 52.2906C12.7643 52.195 12.7146 52.1067 12.6482 52.0319C12.5817 51.957 12.4995 51.8976 12.408 51.8571C12.3164 51.8165 12.217 51.7954 12.1169 51.7965H12.115Z" fill="#FA8B02" stroke="#FA8B02" stroke-width="0.5"/>
</svg>
