<svg width="24" height="24" viewBox="0 0 24 24" fill="none" xmlns="http://www.w3.org/2000/svg">
<g opacity="0.8">
<path d="M11.9705 0.570312C14.3276 0.570312 16.6847 0.570312 19.0418 0.570312C19.9847 0.570312 20.8474 0.745916 21.3494 1.67815C21.5374 2.00073 21.6408 2.3656 21.65 2.73885C21.65 3.17137 21.65 3.60272 21.65 4.03525C21.65 4.85081 21.65 4.85081 22.4573 4.92506C23.6205 5.03113 24.3771 6.45717 23.8043 7.4778C23.7607 7.56611 23.6904 7.63852 23.6035 7.68485C23.5165 7.73118 23.4172 7.74911 23.3196 7.7361C23.2219 7.7231 23.1308 7.67982 23.059 7.61235C22.9872 7.54488 22.9383 7.45661 22.9193 7.35994C22.8845 7.14693 22.8726 6.93081 22.8839 6.71527C22.9098 6.17668 22.6482 5.97868 22.132 5.994C21.7784 6.00343 21.6264 6.1425 21.65 6.49135C21.6606 6.6481 21.65 6.80602 21.65 6.96277C21.65 10.9093 21.65 14.8559 21.65 18.8025C21.65 19.8691 21.4237 20.1826 20.3795 20.4654C20.0636 20.5503 19.9693 20.7117 19.9752 21.0028C19.9752 21.3564 19.987 21.71 19.967 22.0635C19.959 22.3807 19.8384 22.6847 19.6268 22.9212C19.4152 23.1576 19.1264 23.3111 18.812 23.354C18.2878 23.4398 17.7539 23.4498 17.2269 23.3835C16.3642 23.2763 15.954 22.8143 15.9305 21.928C15.921 21.5945 15.921 21.2598 15.9305 20.9262C15.9305 20.6304 15.7949 20.4961 15.5026 20.4961C13.1455 20.4961 10.7884 20.4961 8.43134 20.4961C8.10606 20.4961 7.96934 20.6434 7.97759 20.9675C7.98584 21.2916 7.98584 21.6357 7.97759 21.9693C7.94459 22.819 7.53564 23.2786 6.7024 23.3835C6.17566 23.4523 5.64172 23.4444 5.11725 23.3599C4.80265 23.3214 4.5118 23.1728 4.29614 22.9406C4.08047 22.7083 3.95386 22.4072 3.9387 22.0906C3.92921 21.973 3.92921 21.8547 3.9387 21.7371C3.99409 21.0429 4.00706 20.4654 3.05125 20.3016C2.40069 20.1837 2.25455 19.5332 2.25691 18.8873C2.26752 14.9404 2.25691 10.9911 2.25691 7.04763C2.25691 6.89088 2.2463 6.73295 2.25691 6.57621C2.28637 6.19907 2.17677 5.97868 1.73953 5.99518C1.33646 6.00932 1.03829 6.09771 1.0324 6.57385C1.03462 6.82854 1.02202 7.08314 0.994682 7.33637C0.983459 7.44793 0.930686 7.5512 0.846845 7.62565C0.763004 7.7001 0.654228 7.7403 0.542119 7.73826C0.482558 7.74526 0.422196 7.74017 0.364652 7.72328C0.307107 7.70639 0.253564 7.67806 0.207232 7.63998C0.1609 7.60191 0.122734 7.55487 0.09502 7.50168C0.0673062 7.4485 0.0506158 7.39027 0.0459493 7.33048C-0.0990124 6.19082 0.0105928 4.94156 1.72067 4.93095C2.14023 4.93095 2.26634 4.74238 2.2522 4.35346C2.23452 3.82311 2.23805 3.29276 2.2522 2.76359C2.28402 1.58504 3.03004 0.773023 4.19798 0.631597C4.51091 0.594739 4.82573 0.576243 5.14082 0.576205C7.41621 0.572277 9.69278 0.570312 11.9705 0.570312ZM11.954 4.84491C9.26339 4.84491 6.57158 4.84491 3.88095 4.84491C3.50382 4.84491 3.23864 4.87674 3.24454 5.36701C3.26339 7.05705 3.25632 8.74592 3.24454 10.4348C3.24454 10.766 3.38007 10.938 3.69946 11.0111C6.1367 11.5674 8.58572 12.0023 11.0913 12.0753C14.1367 12.1625 17.1184 11.73 20.0731 11.0394C20.4973 10.9404 20.6623 10.7589 20.6553 10.324C20.6376 8.73295 20.6246 7.14191 20.6612 5.55087C20.6741 4.96159 20.4537 4.83077 19.9081 4.83549C17.2575 4.85906 14.6058 4.84609 11.954 4.84609V4.84491ZM11.954 19.42C14.6435 19.42 17.3341 19.42 20.0236 19.42C20.5244 19.42 20.6541 19.1843 20.6612 18.7282C20.6682 18.2721 20.4914 18.0942 20.0377 18.1119C19.4879 18.138 18.9371 18.1341 18.3877 18.1001C17.9175 18.0673 17.4782 17.8542 17.1612 17.5054C16.8443 17.1565 16.6743 16.6988 16.6866 16.2276C16.6989 15.7565 16.8926 15.3082 17.2273 14.9764C17.562 14.6446 18.0119 14.4548 18.4832 14.4466C19.0524 14.4301 19.6217 14.4348 20.1909 14.4466C20.5138 14.4466 20.6553 14.3063 20.6505 13.9846C20.6435 13.5132 20.6258 13.0417 20.6576 12.5703C20.6918 12.0659 20.5574 11.9127 20.0294 12.0659C17.5427 12.7907 14.9817 13.0347 12.4066 13.0665C9.49203 13.103 6.60223 12.8485 3.78431 12.0459C3.41543 11.941 3.22686 11.9858 3.24807 12.4265C3.27164 12.9368 3.26339 13.4483 3.24807 13.9586C3.23982 14.3122 3.39421 14.4548 3.74188 14.4477C4.27223 14.436 4.80258 14.4383 5.33293 14.4477C6.35827 14.469 7.19739 15.2727 7.21861 16.2486C7.24336 17.2008 6.40187 18.0694 5.3895 18.113C4.86033 18.1366 4.3288 18.1331 3.79963 18.113C3.39893 18.1024 3.23629 18.2627 3.23982 18.6693C3.23982 19.2998 3.33057 19.413 3.99409 19.4142C6.6474 19.4228 9.29953 19.4271 11.9505 19.4271L11.954 19.42ZM11.9623 3.85022H14.2604C16.1827 3.85022 18.1061 3.85022 20.0283 3.85022C20.2699 3.85022 20.5468 3.91504 20.6423 3.5544C20.9263 2.45599 20.3158 1.6204 19.1809 1.61922C14.3536 1.61451 9.5266 1.61451 4.70005 1.61922C3.67471 1.61922 3.27636 2.02229 3.25161 3.03348C3.23157 3.8184 3.25161 3.84433 4.07659 3.84433L11.9623 3.85022ZM4.51148 17.07C4.78608 17.07 5.0595 17.07 5.33646 17.07C5.82674 17.07 6.10723 16.8261 6.14848 16.3334C6.1862 15.8679 5.89156 15.5084 5.38714 15.4707C4.95933 15.4354 4.5268 15.4542 4.09073 15.4542C3.24453 15.4542 3.24454 15.4542 3.24807 16.2875C3.24807 17.0547 3.26575 17.07 4.04006 17.0747L4.51148 17.07ZM19.2987 17.0641C20.7472 17.0712 20.7472 17.0712 20.6458 15.9021C20.6458 15.8632 20.6458 15.8243 20.6399 15.7842C20.6432 15.7398 20.6368 15.6953 20.6211 15.6537C20.6054 15.612 20.5808 15.5743 20.5491 15.5431C20.5173 15.512 20.4792 15.4881 20.4373 15.4731C20.3954 15.4582 20.3507 15.4525 20.3064 15.4566C19.6806 15.4566 19.0501 15.4248 18.4302 15.4837C17.9965 15.5238 17.7313 15.8302 17.7525 16.2969C17.7761 16.7836 18.0365 17.0523 18.535 17.0618C18.7896 17.07 19.0442 17.0629 19.2987 17.0629V17.0641ZM6.96758 21.3977C6.96758 20.4949 6.96758 20.4949 6.12491 20.4925C4.9994 20.4925 4.9994 20.4925 4.99586 21.2998C4.99586 22.3511 5.00883 22.37 5.95874 22.3711C6.93458 22.3735 6.96522 22.3429 6.96758 21.3977ZM17.9022 20.4878C16.931 20.4878 16.931 20.4878 16.931 21.3234C16.931 22.344 16.9523 22.3676 17.9281 22.3664C18.8815 22.3664 18.9039 22.3429 18.9028 21.3647C18.9028 20.4878 18.9028 20.4878 17.9022 20.4878Z" fill="#FA8B02"/>
<path d="M11.9199 18.0385C11.1338 18.0385 10.3489 18.0527 9.56279 18.0385C8.6883 18.0185 8.18153 17.5058 8.14853 16.6408C8.14028 16.4251 8.14264 16.2083 8.14853 15.9926C8.16739 15.0969 8.65531 14.5111 9.53804 14.4888C11.1464 14.4471 12.7571 14.4471 14.3701 14.4888C15.2528 14.5111 15.7419 15.0957 15.7596 15.9926C15.7596 16.2283 15.769 16.464 15.7596 16.6997C15.716 17.4964 15.2104 17.9961 14.4043 18.0409C14.3654 18.0409 14.3253 18.0409 14.2864 18.0409L11.9199 18.0385ZM12.0095 15.5447C11.2658 15.5447 10.5221 15.5577 9.77846 15.5447C9.27404 15.5329 9.13969 15.7934 9.14676 16.2413C9.15383 16.6667 9.17387 17.0391 9.74546 17.0368C11.2139 17.0305 12.682 17.0305 14.1497 17.0368C14.7189 17.0368 14.7461 16.6726 14.7519 16.2448C14.7519 15.7993 14.6341 15.5318 14.1238 15.5447C13.4202 15.5577 12.7142 15.5447 12.0095 15.5447Z" fill="#FA8B02"/>
</g>
</svg>
