<svg width="24" height="24" viewBox="0 0 24 24" fill="none" xmlns="http://www.w3.org/2000/svg">
<g opacity="0.8" clip-path="url(#clip0_1_1668)">
<path d="M0.708008 4.7041C4.48692 4.72062 8.26397 4.71289 12.0479 4.71289H23.2227C23.4076 4.71289 23.5568 4.71397 23.6719 4.72949C23.7867 4.745 23.8861 4.77645 23.959 4.84961C24.0318 4.92297 24.0631 5.02306 24.0781 5.1377C24.0932 5.2524 24.0938 5.40056 24.0938 5.58398C24.0937 6.50323 24.0809 7.41788 24.0996 8.33496C24.1036 8.53624 24.0761 8.70812 23.9805 8.84668C23.9083 8.95118 23.8039 9.02794 23.668 9.08691L23.5215 9.13965C22.1497 9.56767 21.3391 10.6757 21.3496 12.0264C21.3603 13.351 22.1709 14.4376 23.5225 14.8594L23.6553 14.9062C23.7813 14.9575 23.885 15.0237 23.9609 15.1172C24.0638 15.2439 24.1031 15.4061 24.0996 15.6094C24.082 16.5995 24.0798 17.5894 24.0996 18.5791C24.1048 18.8156 24.0615 19.0048 23.9316 19.1309C23.8031 19.2556 23.6126 19.2959 23.3818 19.2959C15.8035 19.2886 8.22485 19.2886 0.646484 19.2959C0.403107 19.2959 0.203482 19.2545 0.0703125 19.125C-0.0641439 18.9941 -0.10659 18.7973 -0.0986328 18.5488L-0.0859375 17.8213C-0.0784199 17.0935 -0.0854275 16.3645 -0.0986328 15.6357L-0.0996094 15.6338C-0.0996063 15.4434 -0.0702669 15.282 0.0205078 15.1504C0.111916 15.018 0.255203 14.9316 0.451172 14.8682L0.452148 14.8672C1.84611 14.4343 2.65723 13.3488 2.65723 12.002C2.65716 10.6553 1.8476 9.57203 0.458008 9.13477C0.259529 9.07289 0.114443 8.98604 0.0224609 8.85254C-0.0687256 8.72015 -0.0966726 8.55705 -0.0966797 8.36719V8.36523C-0.0757601 7.41064 -0.0637397 6.45655 -0.0966797 5.50781C-0.105167 5.23396 -0.0619702 5.02082 0.0820312 4.88184C0.224295 4.74462 0.440208 4.70411 0.708008 4.7041ZM18.0537 5.56641C17.8854 5.56028 17.7461 5.58133 17.6348 5.66699C17.5713 5.71583 17.5532 5.7968 17.5615 5.9375C17.5659 6.01117 17.5746 6.0717 17.5811 6.15527C17.5869 6.23095 17.5896 6.3136 17.5762 6.39258C17.5576 6.50371 17.5203 6.61307 17.4453 6.69434C17.3664 6.77981 17.2561 6.82306 17.1191 6.81836C16.997 6.81417 16.8981 6.76882 16.8271 6.68945C16.7584 6.61256 16.7237 6.51177 16.71 6.4082V6.40723C16.6892 6.29092 16.6843 6.17224 16.6963 6.05469V6.0498H16.6973C16.7309 5.82531 16.691 5.72661 16.6318 5.67578C16.5632 5.61693 16.4336 5.58819 16.209 5.58984C13.7312 5.61297 11.2529 5.60254 8.77637 5.60254C6.26333 5.60254 3.74746 5.6115 1.2334 5.59277C1.02829 5.59119 0.929786 5.62444 0.878906 5.67578C0.828886 5.72639 0.798487 5.82192 0.807617 6.02148C0.837535 6.64755 0.831925 7.27684 0.807617 7.90332C0.8021 8.06275 0.828964 8.16636 0.881836 8.24414C0.935691 8.32322 1.02667 8.39003 1.17969 8.45605H1.17871C2.5329 9.03384 3.33455 10.0881 3.51074 11.5439C3.69252 13.0442 3.1999 14.4454 1.85352 15.1289C1.3201 15.3999 1.04661 15.7063 0.911133 16.0518C0.773662 16.4025 0.772863 16.808 0.813477 17.291H0.8125C0.835051 17.4984 0.835234 17.7077 0.8125 17.915V17.918C0.779011 18.1561 0.818698 18.2633 0.881836 18.3193C0.952991 18.3825 1.08698 18.4141 1.32617 18.4131H1.32715C6.11662 18.3955 10.9107 18.4036 15.6953 18.4014C15.781 18.4014 15.8689 18.4054 15.9541 18.4102C16.0402 18.415 16.1238 18.42 16.2051 18.4209C16.3692 18.4226 16.5106 18.4076 16.624 18.3525C16.6654 18.3325 16.6873 18.3044 16.7002 18.2666C16.7145 18.2242 16.7183 18.1681 16.7148 18.0957C16.7111 18.018 16.7017 17.951 16.6953 17.8613C16.6896 17.7804 16.6873 17.6918 16.7051 17.6084L16.7256 17.5283C16.7487 17.449 16.7824 17.3724 16.8369 17.3115C16.9146 17.2249 17.0239 17.1807 17.1631 17.1875C17.3027 17.1943 17.4085 17.2509 17.4785 17.3447C17.5448 17.4338 17.5712 17.5465 17.5791 17.6562L17.5898 17.8828C17.591 17.9583 17.5896 18.0339 17.5859 18.1094V18.1104C17.5781 18.2379 17.5971 18.3059 17.6279 18.3428C17.6561 18.3765 17.7151 18.4077 17.8535 18.4072C19.5426 18.3984 21.2318 18.3974 22.9209 18.4062C23.0571 18.4062 23.1185 18.3808 23.1494 18.3486C23.1811 18.3155 23.2047 18.2518 23.2031 18.1182C23.1932 17.4029 23.1921 16.6852 23.2031 15.9707C23.2031 15.853 23.1773 15.7837 23.1367 15.7334C23.115 15.7066 23.0866 15.682 23.0498 15.6582L22.9111 15.5869C22.1263 15.2505 21.5168 14.7786 21.1045 14.1738C20.6919 13.5686 20.4806 12.8364 20.4834 11.9863C20.4835 11.1477 20.6969 10.4235 21.1074 9.8252C21.5178 9.22725 22.1214 8.76107 22.8926 8.43066C23.0292 8.37211 23.1034 8.31157 23.1455 8.24414C23.1877 8.17645 23.2066 8.08727 23.2041 7.95117L23.1914 6.95703C23.1904 6.62589 23.194 6.29447 23.2051 5.96289V5.96191C23.2114 5.78619 23.1792 5.70621 23.1357 5.66504C23.0901 5.62193 23.0039 5.59454 22.8301 5.59668C21.4188 5.61208 19.9984 5.59656 18.5908 5.60645H18.5898C18.4986 5.60643 18.4048 5.59798 18.3154 5.58887C18.2245 5.57959 18.1378 5.56949 18.0537 5.56641Z" fill="#FA8B02" stroke="#FA8B02" stroke-width="0.2"/>
<path d="M12.7665 8.50293C12.9008 8.46959 13.0353 8.50817 13.1601 8.63086C13.2214 8.6912 13.2636 8.75592 13.2841 8.8252C13.3047 8.895 13.3018 8.96313 13.2841 9.02637C13.2499 9.14783 13.1599 9.25359 13.0751 9.33789C12.2043 10.2028 11.3328 11.0687 10.4628 11.9365L10.4638 11.9375C9.32191 13.0794 8.18008 14.2214 7.03896 15.3633H7.03799C6.92083 15.4794 6.77555 15.6677 6.50088 15.6914L6.48623 15.6934L6.47158 15.6904C6.33137 15.661 6.19508 15.6006 6.12197 15.4854C6.04418 15.3624 6.05803 15.2111 6.14346 15.0488L6.14834 15.04L6.22549 14.9336C6.30584 14.8295 6.39728 14.7343 6.49892 14.6504C8.44198 12.7051 10.3855 10.7607 12.33 8.81836L12.3319 8.81641L12.4501 8.70605C12.538 8.61956 12.6444 8.53324 12.7665 8.50293Z" fill="#FA8B02" stroke="#FA8B02" stroke-width="0.2"/>
<path d="M7.4416 8.125C7.66068 8.12499 7.87791 8.16699 8.08027 8.25098C8.28284 8.33507 8.4665 8.45886 8.62128 8.61426C8.77613 8.76975 8.89934 8.9542 8.98261 9.15723C9.04511 9.30963 9.08448 9.47038 9.0998 9.63379L9.10664 9.79785C9.1041 10.0188 9.0578 10.2372 8.97089 10.4404C8.88403 10.6435 8.75872 10.828 8.60078 10.9824C8.44271 11.1369 8.25514 11.2586 8.05 11.3408C7.84487 11.423 7.62546 11.4645 7.40449 11.4619C7.18355 11.4594 6.96506 11.4131 6.76191 11.3262C6.55879 11.2393 6.37434 11.1131 6.21992 10.9551C6.06559 10.7971 5.9437 10.6103 5.86152 10.4053C5.77932 10.2002 5.7389 9.98068 5.7414 9.75977V9.75879C5.74522 9.53958 5.7924 9.32302 5.88007 9.12207C5.96775 8.92124 6.09413 8.73972 6.25214 8.58789C6.41021 8.43603 6.59673 8.31688 6.80097 8.2373C7.00525 8.15776 7.22341 8.11908 7.44257 8.12402L7.4416 8.125ZM7.44257 9.00391C7.23434 8.99971 7.03329 9.07844 6.883 9.22266C6.73264 9.36697 6.64509 9.56507 6.64082 9.77344C6.63662 9.98155 6.71552 10.1828 6.85957 10.333C7.00382 10.4833 7.20208 10.5708 7.41035 10.5752C7.51337 10.5773 7.61609 10.5589 7.7121 10.5215C7.80819 10.484 7.89647 10.4279 7.97089 10.3564C8.04534 10.285 8.10524 10.199 8.14668 10.1045C8.18797 10.0102 8.20996 9.90861 8.2121 9.80566C8.21422 9.70256 8.19587 9.59998 8.15839 9.50391C8.12087 9.40778 8.06481 9.31957 7.99335 9.24512C7.92193 9.17075 7.83681 9.11074 7.74238 9.06934C7.64788 9.02791 7.54573 9.00602 7.44257 9.00391Z" fill="#FA8B02" stroke="#FA8B02" stroke-width="0.2"/>
<path d="M11.8028 12.5083C12.2446 12.5141 12.6671 12.6919 12.9796 13.0044C13.2919 13.3168 13.4699 13.7394 13.4756 14.1812C13.4776 14.4003 13.4358 14.6176 13.3536 14.8208C13.2713 15.0239 13.15 15.2088 12.9962 15.3647C12.8422 15.5208 12.6582 15.645 12.4561 15.73C12.2547 15.8146 12.0388 15.8587 11.8204 15.8599C11.6014 15.8665 11.3831 15.8294 11.1788 15.7505C10.9744 15.6715 10.7876 15.553 10.6299 15.4009C10.4722 15.2486 10.347 15.0654 10.2608 14.8638C10.1747 14.6622 10.129 14.4452 10.128 14.2261H10.129C10.122 14.0032 10.1598 13.7808 10.2403 13.5728C10.3211 13.3641 10.4428 13.1737 10.5987 13.0132C10.7549 12.8525 10.9428 12.7249 11.1495 12.6382C11.3561 12.5515 11.5778 12.5072 11.8018 12.5083H11.8028ZM11.7891 13.4126C11.6841 13.4125 11.5801 13.4341 11.4835 13.4751C11.3868 13.5161 11.2995 13.5763 11.2266 13.6519C11.1537 13.7275 11.0961 13.8173 11.0587 13.9155C11.0213 14.0133 11.0041 14.1176 11.0079 14.2222L11.0303 14.3726C11.0667 14.5194 11.1443 14.654 11.2549 14.7603C11.402 14.9015 11.597 14.9807 11.8008 14.9839C11.9051 14.9825 12.008 14.9613 12.1036 14.9194C12.1993 14.8775 12.2856 14.8167 12.3575 14.7407C12.4293 14.6648 12.485 14.575 12.5215 14.4771C12.5489 14.4038 12.5658 14.3272 12.5704 14.2495V14.1675C12.5689 14.067 12.5477 13.9678 12.5079 13.8755C12.4679 13.783 12.4103 13.6986 12.338 13.6284C12.2656 13.5583 12.1797 13.5033 12.086 13.4663C11.9922 13.4293 11.8919 13.4108 11.7911 13.4126H11.7891Z" fill="#FA8B02" stroke="#FA8B02" stroke-width="0.2"/>
<path d="M17.5872 12.0854L17.5765 12.0874C17.5789 12.2592 17.5873 12.4445 17.5755 12.6216C17.5677 12.7395 17.5249 12.8528 17.4437 12.9341C17.3604 13.0172 17.2443 13.0581 17.1087 13.0444C16.9757 13.0309 16.8708 12.9743 16.8011 12.8823C16.7335 12.793 16.706 12.6798 16.7035 12.5649C16.6946 12.1976 16.6957 11.83 16.7035 11.4644C16.7038 11.343 16.7299 11.2175 16.7992 11.1187C16.8723 11.0143 16.9874 10.9501 17.14 10.9487C17.2907 10.9475 17.4067 11.006 17.4827 11.1079C17.5551 11.2049 17.5836 11.331 17.5872 11.4556V12.0854Z" fill="#FA8B02" stroke="#FA8B02" stroke-width="0.2"/>
<path d="M17.1285 7.83789C17.2639 7.83721 17.3755 7.885 17.4528 7.97266C17.5278 8.05804 17.5621 8.17136 17.566 8.28809C17.5805 8.67297 17.5793 9.05905 17.566 9.44336C17.5655 9.56721 17.5343 9.69066 17.4557 9.7832C17.394 9.85565 17.3099 9.90162 17.2076 9.91699L17.0992 9.92188C16.9578 9.91439 16.8521 9.85681 16.7838 9.76172C16.7192 9.6716 16.6951 9.55833 16.6891 9.45117C16.6833 9.34773 16.6863 9.25255 16.6901 9.16211C16.6939 9.07084 16.6983 8.98707 16.6989 8.89844L16.6949 8.59863C16.6937 8.49688 16.6938 8.39401 16.6989 8.29297C16.7045 8.1795 16.7364 8.06622 16.8082 7.97949C16.8826 7.88968 16.9918 7.83868 17.1285 7.83789Z" fill="#FA8B02" stroke="#FA8B02" stroke-width="0.2"/>
<path d="M17.1611 14.0938C17.1631 14.0938 17.1659 14.0936 17.1679 14.0938H17.1698L17.1689 14.0947C17.3057 14.103 17.4097 14.1571 17.4784 14.249C17.5448 14.3379 17.5701 14.4501 17.5761 14.5586C17.5873 14.7608 17.5801 14.9601 17.579 15.1582L17.578 15.7139V15.7158C17.5706 15.8284 17.5393 15.9406 17.4687 16.0273C17.3951 16.1176 17.287 16.1711 17.1503 16.1738C17.0148 16.1765 16.9033 16.1295 16.8251 16.043C16.7491 15.9588 16.7133 15.8463 16.707 15.7305V15.7285C16.6937 15.3255 16.6937 14.9228 16.707 14.5205C16.7042 14.4632 16.7135 14.4061 16.7343 14.3525C16.7564 14.2957 16.7906 14.244 16.8349 14.2021C16.8792 14.1604 16.9322 14.1291 16.9902 14.1104C17.0453 14.0925 17.1035 14.0875 17.1611 14.0938Z" fill="#FA8B02" stroke="#FA8B02" stroke-width="0.2"/>
</g>
<defs>
<clipPath id="clip0_1_1668">
<rect width="24" height="24" fill="white"/>
</clipPath>
</defs>
</svg>
