<svg width="24" height="24" viewBox="0 0 24 24" fill="none" xmlns="http://www.w3.org/2000/svg">
<g opacity="0.4" clip-path="url(#clip0_2_1685)">
<path d="M12.9399 12L17.7999 7.13999C17.9091 7.01246 17.9662 6.84841 17.9597 6.68062C17.9532 6.51284 17.8837 6.35368 17.7649 6.23495C17.6462 6.11622 17.4871 6.04666 17.3193 6.04018C17.1515 6.0337 16.9874 6.09077 16.8599 6.19999L11.9999 11.06L7.1399 6.19332C7.01237 6.08411 6.84832 6.02704 6.68053 6.03352C6.51275 6.04 6.35359 6.10955 6.23486 6.22828C6.11613 6.34701 6.04657 6.50617 6.04009 6.67396C6.03361 6.84174 6.09068 7.00579 6.1999 7.13332L11.0599 12L6.19323 16.86C6.12345 16.9198 6.06677 16.9933 6.02675 17.076C5.98674 17.1587 5.96425 17.2488 5.9607 17.3406C5.95716 17.4324 5.97263 17.524 6.00614 17.6095C6.03966 17.6951 6.0905 17.7728 6.15547 17.8378C6.22044 17.9027 6.29814 17.9536 6.38369 17.9871C6.46924 18.0206 6.56079 18.0361 6.6526 18.0325C6.74442 18.029 6.8345 18.0065 6.91721 17.9665C6.99992 17.9265 7.07347 17.8698 7.13323 17.8L11.9999 12.94L16.8599 17.8C16.9874 17.9092 17.1515 17.9663 17.3193 17.9598C17.4871 17.9533 17.6462 17.8838 17.7649 17.765C17.8837 17.6463 17.9532 17.4871 17.9597 17.3194C17.9662 17.1516 17.9091 16.9875 17.7999 16.86L12.9399 12Z" fill="#333333"/>
</g>
<defs>
<clipPath id="clip0_2_1685">
<rect width="24" height="24" fill="white"/>
</clipPath>
</defs>
</svg>
