<svg width="24" height="24" viewBox="0 0 24 24" fill="none" xmlns="http://www.w3.org/2000/svg">
<g opacity="0.8" clip-path="url(#clip0_1_1757)">
<mask id="path-1-outside-1_1_1757" maskUnits="userSpaceOnUse" x="-1.00964" y="-1" width="26" height="26" fill="black">
<rect fill="white" x="-1.00964" y="-1" width="26" height="26"/>
<path d="M10.4728 15.4344C10.1861 16.6722 9.59741 17.491 8.56781 17.9391C6.85575 18.6846 4.90759 17.7474 4.37932 15.9063C4.27905 15.5583 4.14752 15.4226 3.79929 15.4635C3.61975 15.4738 3.43977 15.4738 3.26023 15.4635C2.21445 15.4635 1.51691 16.0345 1.36166 17.0568C1.1924 18.174 1.06302 19.2976 0.893759 20.4158C0.83554 20.7994 0.948743 20.9092 1.33579 20.9114C2.71147 20.9114 2.71578 20.9308 2.71362 19.5497C2.71362 19.2136 2.66187 18.8882 3.18692 18.9583C3.41656 18.9895 3.4931 19.0552 3.49202 19.2814C3.48448 20.7358 3.48017 22.1901 3.49202 23.6434C3.49202 23.958 3.3454 23.9849 3.09743 23.9881C2.84947 23.9914 2.69853 23.9343 2.70931 23.6337C2.72764 23.0951 2.70931 22.5564 2.71794 22.0178C2.72333 21.7625 2.63061 21.6881 2.37725 21.672C1.14496 21.5955 1.14604 21.5879 1.14604 22.7988C1.14604 23.0498 1.13741 23.3008 1.14604 23.5529C1.15466 23.805 1.13418 23.9957 0.783791 23.9935C0.452808 23.9935 0.340684 23.8858 0.36009 23.5572C0.383808 23.1457 0.367637 22.732 0.36009 22.3194C0.36009 22.0242 0.426933 21.7215 0.0948727 21.5114C-0.0625326 21.4102 -0.00215799 21.1796 0.0226387 21.003C0.212388 19.6337 0.396746 18.2645 0.599432 16.8985C0.809665 15.4829 2.07322 14.5564 3.27317 14.6782C3.86074 14.7374 4.4591 14.6782 5.05098 14.6932C5.32806 14.7008 5.41647 14.6157 5.42509 14.3291C5.43911 13.7765 5.39275 13.3369 4.84291 12.9674C4.12488 12.4837 3.73245 11.7102 3.57181 10.8484C3.52221 10.5887 3.43704 10.4552 3.14056 10.4293C2.88729 10.4149 2.64447 10.3235 2.44464 10.1674C2.24482 10.0112 2.09754 9.79777 2.02255 9.55562C1.83603 9.01697 1.93199 8.51387 2.35461 8.12173C2.43507 8.05314 2.49469 7.96339 2.5267 7.86266C2.55872 7.76193 2.56184 7.65426 2.53573 7.55184C2.4635 7.07245 2.41498 6.5909 2.34598 6.1115C1.99452 3.68758 3.91573 2.1255 5.65689 2.29249C6.63798 2.38513 7.63308 2.21815 8.61417 2.38729C9.33543 2.51225 10.0006 2.69647 10.0826 3.60463C10.102 3.82009 10.3122 3.84056 10.4944 3.87503C11.5316 4.07218 12.0038 4.64315 12.0038 5.70644C12.0038 6.1018 12.0038 6.49609 12.0038 6.89146C12.0038 7.39779 11.9951 7.8341 12.4501 8.27794C13.18 8.99111 12.6787 10.2322 11.648 10.4175C11.3008 10.4789 11.1941 10.6092 11.1186 10.9378C10.9163 11.8417 10.3897 12.6403 9.63838 13.1829C9.36562 13.3854 9.15969 14.3108 9.31494 14.5909C9.33772 14.6292 9.37183 14.6595 9.41257 14.6777C9.45332 14.6958 9.49868 14.7009 9.54243 14.6922C10.0028 14.6738 10.5041 14.843 10.8146 14.2806C10.9429 14.0501 11.2459 13.9305 11.5208 13.9499C11.8722 13.9736 11.938 13.7786 11.9779 13.5082C12.0857 12.7455 12.2313 11.986 12.3164 11.22C12.3682 10.76 12.5461 10.4821 12.9956 10.3043C13.8581 9.96176 14.7045 9.55023 15.5594 9.17856C15.9572 9.00404 16.0004 8.81336 15.6467 8.53218C14.9996 8.03239 14.5572 7.31376 14.4026 6.51118C14.3573 6.27417 14.2581 6.20522 14.0199 6.17291C13.2652 6.06518 12.7789 5.53515 12.7682 4.85753C12.7574 4.17991 13.2415 3.60894 13.98 3.50768C14.257 3.46997 14.3196 3.37301 14.3551 3.11877C14.6182 1.24535 16.0187 0 17.8245 0C19.6304 0 21.0255 1.25613 21.2745 3.12416C21.3112 3.39779 21.3985 3.46027 21.6583 3.4969C22.3958 3.60463 22.8777 4.17237 22.8615 4.85537C22.857 5.1826 22.7315 5.49659 22.5092 5.73687C22.2868 5.97715 21.9834 6.12671 21.6572 6.15675C21.3726 6.19122 21.2573 6.28171 21.2066 6.55535C21.061 7.34824 20.6255 7.97091 20.0261 8.49448C19.625 8.8446 19.6455 8.9728 20.1457 9.20011C21.0082 9.59332 21.8783 9.98869 22.7548 10.3571C22.898 10.4054 23.0239 10.4946 23.1169 10.6137C23.2098 10.7329 23.2657 10.8766 23.2777 11.0272C23.4998 12.5354 23.7412 14.0436 23.9741 15.5518C24.0129 15.8039 24.0507 16.0571 23.7757 16.2198C23.5774 16.3383 23.6464 16.543 23.6453 16.7089C23.6399 17.7678 23.6453 18.8268 23.6453 19.8858C23.6453 21.1312 23.1483 21.8799 21.999 22.3227C21.7661 22.4121 21.6939 22.5219 21.7047 22.7536C21.7176 23.0218 21.6896 23.2922 21.7122 23.5605C21.7381 23.8837 21.6357 24.0032 21.2961 24.0022C20.9565 24.0011 20.9252 23.8363 20.9284 23.5712C20.9371 22.6922 20.9187 21.812 20.9381 20.9329C20.9457 20.6033 20.8422 20.502 20.5069 20.502C18.6748 20.5157 16.842 20.5157 15.0085 20.502C14.6419 20.502 14.5772 20.6162 14.6656 20.9394C14.7357 21.2023 14.7605 21.4781 14.4673 21.6558C14.2915 21.7635 14.3422 21.9402 14.3411 22.0943C14.3347 22.5974 14.3239 23.1005 14.3411 23.6025C14.353 23.916 14.2225 23.9968 13.9293 24C13.6059 24 13.5282 23.8729 13.5379 23.5809C13.5541 23.0789 13.5261 22.5758 13.5466 22.0727C13.5606 21.7614 13.4387 21.686 13.1433 21.6795C12.0049 21.6547 12.0048 21.644 12.0048 22.7794C12.0048 23.0304 11.9951 23.2825 12.0048 23.5335C12.0189 23.8104 12.0049 24.0054 11.6254 24.0054C11.2459 24.0054 11.2308 23.8319 11.2318 23.5443C11.2415 22.1621 11.2459 20.7789 11.2318 19.3967C11.2318 19.0735 11.3181 18.9658 11.6534 18.9658C12.0081 18.9658 12.0264 19.1457 12.0059 19.4032C11.9995 19.4749 11.9995 19.547 12.0059 19.6186C12.0534 20.0377 11.7979 20.6572 12.1202 20.8317C12.5126 21.0471 13.097 20.8985 13.5983 20.9103C13.8333 20.9168 13.8581 20.7746 13.8312 20.5871C13.6479 19.3267 13.4776 18.0641 13.2716 16.8069C13.2037 16.3954 13.0345 16.1282 12.4695 16.223C11.7515 16.3426 10.9709 16.3867 10.4728 15.4344ZM13.9455 16.1885C13.9455 15.136 13.9455 14.1955 13.9455 13.255C13.9455 12.9868 13.8851 12.7369 14.3314 12.739C14.7778 12.7412 14.7088 13.0051 14.7088 13.2647C14.7088 15.2567 14.7206 17.2507 14.7001 19.2405C14.7001 19.6391 14.7961 19.7587 15.2058 19.7533C16.9308 19.7296 18.6558 19.7264 20.3808 19.7533C20.8411 19.7608 20.9457 19.6176 20.9403 19.1791C20.9177 17.1699 20.9403 15.1597 20.9252 13.1462C20.9252 12.8489 21.0104 12.7412 21.3209 12.7412C21.6314 12.7412 21.7241 12.8489 21.7112 13.1495C21.6917 13.5966 21.7112 14.0458 21.7112 14.495C21.7112 15.4861 21.7112 15.4646 22.7138 15.4646C23.0804 15.4646 23.1742 15.3569 23.1159 14.9992C22.9204 13.8142 22.7408 12.6259 22.5769 11.4344C22.5391 11.1619 22.3979 11.0304 22.1672 10.9302C21.4416 10.6168 20.7193 10.2989 20.0023 9.96822C19.7867 9.86803 19.6854 9.8788 19.5474 10.1115C18.6752 11.5917 16.9599 11.5982 16.1103 10.1266C15.9831 9.90466 15.8947 9.85295 15.6618 9.96068C14.9298 10.3011 14.1891 10.6254 13.4495 10.9496C13.2576 11.0347 13.1261 11.1382 13.0948 11.3719C12.9956 12.1002 12.8792 12.8263 12.7563 13.5502C12.7132 13.8023 12.7218 13.9704 12.9967 14.1104C13.1941 14.204 13.3544 14.361 13.4521 14.5562C13.5498 14.7515 13.5793 14.9738 13.5358 15.1877C13.4635 15.5928 13.6522 15.8363 13.9455 16.1885ZM11.2405 7.50013C11.2405 6.86345 11.2405 6.29141 11.2405 5.71936C11.234 5.01697 11.0076 4.7498 10.3144 4.64853C9.8195 4.57635 9.42383 4.32534 9.35915 3.84271C9.29446 3.36009 9.00552 3.23189 8.61093 3.1694C7.57594 2.99704 6.53232 3.09507 5.49409 3.08322C4.27474 3.06814 3.31414 3.87827 3.12654 5.07299C2.9907 5.95314 3.24945 6.79666 3.34217 7.72744C3.83379 7.19849 4.46449 7.23943 5.00462 7.04228C5.33884 6.91947 5.61268 6.95825 5.87682 7.23404C6.20026 7.57339 6.63151 7.7059 7.09618 7.72206C7.40295 7.73851 7.70916 7.68058 7.98869 7.55321C8.26822 7.42584 8.51277 7.23281 8.70149 6.99057C9.04865 6.55966 9.39904 6.51549 9.86371 6.79989C10.2755 7.0509 10.723 7.24051 11.2405 7.50013ZM10.4642 9.42957C10.4642 8.95664 10.4642 8.61621 10.4642 8.27471C10.4707 7.73606 9.95535 7.80393 9.68043 7.59386C9.50901 7.46243 9.35699 7.4732 9.15969 7.63264C7.79372 8.75411 7.02071 8.80259 5.45744 7.90304C4.96905 7.62187 4.25102 8.00216 4.24994 8.54296C4.24994 9.06329 4.24024 9.58362 4.24994 10.104C4.2662 10.7731 4.49599 11.4195 4.90579 11.949C5.31559 12.4784 5.88397 12.8632 6.52801 13.0471C7.82175 13.4102 9.18773 12.8758 9.95535 11.7285C10.4577 10.9809 10.4933 10.1492 10.4642 9.42957ZM20.5188 4.68193C20.5188 4.28764 20.5252 3.89335 20.5188 3.4969C20.5123 3.20065 20.5716 2.76111 20.3031 2.68354C20.0347 2.60598 19.7285 2.899 19.5484 3.18556C19.5006 3.26091 19.4476 3.3329 19.39 3.40102C19.2369 3.58416 19.0493 3.76407 18.8186 3.77915C17.7922 3.85026 16.6731 4.2327 15.9766 3.03151C15.9212 2.96122 15.8523 2.90263 15.774 2.85914C15.3017 2.52841 15.1648 2.57474 15.1422 3.15432C15.1066 4.06679 15.1034 4.98573 15.1271 5.89604C15.1245 6.61033 15.406 7.29639 15.9097 7.80329C16.4133 8.31019 17.0978 8.59641 17.8127 8.59898C18.5275 8.60155 19.2141 8.32026 19.7214 7.817C20.2287 7.31374 20.5151 6.62972 20.5177 5.91543C20.5328 5.50714 20.5188 5.09453 20.5188 4.68193ZM6.1884 13.7592V14.7094C6.1884 15.415 6.17331 15.4333 5.47684 15.4635C5.23211 15.4743 5.04559 15.4732 5.14478 15.8169C5.39059 16.6981 6.35119 17.3994 7.36031 17.3973C8.36943 17.3951 9.3419 16.6873 9.56399 15.8093C9.62113 15.582 9.58879 15.4915 9.33327 15.4624C8.52792 15.373 8.529 15.3633 8.529 14.5327C8.529 14.3894 8.52145 14.2462 8.529 14.1018C8.54085 13.868 8.44921 13.7625 8.20556 13.8271C7.56839 14.0048 6.93015 13.9402 6.1884 13.7592ZM17.817 3.06922C18.1868 3.03582 18.6288 3.21034 18.8876 2.78266C19.0701 2.4726 19.3417 2.22451 19.667 2.07056C19.9657 1.92836 19.9549 1.78723 19.735 1.55777C18.8207 0.603286 17.1475 0.511716 16.1103 1.37678C15.6004 1.80016 15.6036 1.81848 16.1416 2.17291C16.2893 2.26986 16.465 2.37005 16.5459 2.51441C16.8262 3.0509 17.2736 3.15217 17.817 3.06922ZM21.7036 18.9238C21.7036 19.6779 21.7036 20.432 21.7036 21.1861C21.7036 21.3046 21.6928 21.4813 21.7607 21.5308C21.8934 21.6289 22.026 21.4834 22.1392 21.4102C22.3628 21.2724 22.5466 21.0787 22.6723 20.8482C22.7981 20.6177 22.8614 20.3584 22.8561 20.0959C22.8637 18.9486 22.8443 17.8012 22.8658 16.655C22.8755 16.125 22.5133 16.2726 22.2394 16.2607C21.9656 16.2489 21.6648 16.1831 21.6896 16.6658C21.7327 17.4166 21.7036 18.1708 21.7036 18.9238ZM17.7987 10.4498C18.3949 10.4379 18.9188 9.96391 18.977 9.42203C19.0018 9.1958 18.9717 9.09022 18.6935 9.16887C18.227 9.30416 17.7357 9.33033 17.2574 9.24535C17.0655 9.21088 16.8003 9.0105 16.6828 9.20442C16.5556 9.41988 16.7087 9.68597 16.8467 9.90143C16.9463 10.0655 17.0858 10.2018 17.2522 10.2977C17.4187 10.3936 17.6066 10.4459 17.7987 10.4498ZM12.0156 15.4603H12.2841C12.5482 15.4603 12.7638 15.373 12.7531 15.0724C12.7423 14.7719 12.5288 14.6911 12.2647 14.6932C12.0491 14.6932 11.8334 14.6835 11.6178 14.7029C11.5679 14.7028 11.5186 14.713 11.4728 14.7327C11.427 14.7525 11.3858 14.7815 11.3517 14.8179C11.3176 14.8543 11.2914 14.8973 11.2747 14.9442C11.258 14.9912 11.2511 15.041 11.2545 15.0908C11.2545 15.3288 11.4108 15.4409 11.6372 15.4549C11.7644 15.4646 11.8906 15.4581 12.0156 15.4581V15.4603ZM14.3767 4.82198C14.1924 4.67762 14.5589 4.28333 14.1115 4.26286C13.7881 4.25209 13.5724 4.48694 13.5724 4.81336C13.5649 5.16779 13.7881 5.41341 14.1331 5.40156C14.5212 5.38648 14.2441 5.02882 14.3767 4.81982V4.82198ZM21.5624 4.25316C21.4201 4.24562 21.3122 4.25316 21.3079 4.36628C21.295 4.67008 21.2972 4.97388 21.3079 5.27875C21.3079 5.3951 21.406 5.4188 21.4998 5.4091C21.8233 5.37571 22.0389 5.20011 22.0562 4.86507C22.0745 4.49987 21.861 4.30918 21.5624 4.25316ZM3.53084 9.07191C3.34432 8.93832 3.7152 8.53326 3.24729 8.53865C2.91307 8.53865 2.7244 8.76703 2.73195 9.10207C2.7395 9.43711 2.93895 9.65257 3.27101 9.64072C3.6807 9.62564 3.39392 9.27552 3.53084 9.07191ZM11.22 9.05036C11.3515 9.23027 11.0464 9.59548 11.4485 9.63534C11.772 9.66765 11.979 9.4328 11.9876 9.10961C11.9962 8.78643 11.8108 8.55804 11.483 8.5408C11.0701 8.51818 11.3202 8.87153 11.22 9.04929V9.05036Z"/>
</mask>
<path d="M10.4728 15.4344C10.1861 16.6722 9.59741 17.491 8.56781 17.9391C6.85575 18.6846 4.90759 17.7474 4.37932 15.9063C4.27905 15.5583 4.14752 15.4226 3.79929 15.4635C3.61975 15.4738 3.43977 15.4738 3.26023 15.4635C2.21445 15.4635 1.51691 16.0345 1.36166 17.0568C1.1924 18.174 1.06302 19.2976 0.893759 20.4158C0.83554 20.7994 0.948743 20.9092 1.33579 20.9114C2.71147 20.9114 2.71578 20.9308 2.71362 19.5497C2.71362 19.2136 2.66187 18.8882 3.18692 18.9583C3.41656 18.9895 3.4931 19.0552 3.49202 19.2814C3.48448 20.7358 3.48017 22.1901 3.49202 23.6434C3.49202 23.958 3.3454 23.9849 3.09743 23.9881C2.84947 23.9914 2.69853 23.9343 2.70931 23.6337C2.72764 23.0951 2.70931 22.5564 2.71794 22.0178C2.72333 21.7625 2.63061 21.6881 2.37725 21.672C1.14496 21.5955 1.14604 21.5879 1.14604 22.7988C1.14604 23.0498 1.13741 23.3008 1.14604 23.5529C1.15466 23.805 1.13418 23.9957 0.783791 23.9935C0.452808 23.9935 0.340684 23.8858 0.36009 23.5572C0.383808 23.1457 0.367637 22.732 0.36009 22.3194C0.36009 22.0242 0.426933 21.7215 0.0948727 21.5114C-0.0625326 21.4102 -0.00215799 21.1796 0.0226387 21.003C0.212388 19.6337 0.396746 18.2645 0.599432 16.8985C0.809665 15.4829 2.07322 14.5564 3.27317 14.6782C3.86074 14.7374 4.4591 14.6782 5.05098 14.6932C5.32806 14.7008 5.41647 14.6157 5.42509 14.3291C5.43911 13.7765 5.39275 13.3369 4.84291 12.9674C4.12488 12.4837 3.73245 11.7102 3.57181 10.8484C3.52221 10.5887 3.43704 10.4552 3.14056 10.4293C2.88729 10.4149 2.64447 10.3235 2.44464 10.1674C2.24482 10.0112 2.09754 9.79777 2.02255 9.55562C1.83603 9.01697 1.93199 8.51387 2.35461 8.12173C2.43507 8.05314 2.49469 7.96339 2.5267 7.86266C2.55872 7.76193 2.56184 7.65426 2.53573 7.55184C2.4635 7.07245 2.41498 6.5909 2.34598 6.1115C1.99452 3.68758 3.91573 2.1255 5.65689 2.29249C6.63798 2.38513 7.63308 2.21815 8.61417 2.38729C9.33543 2.51225 10.0006 2.69647 10.0826 3.60463C10.102 3.82009 10.3122 3.84056 10.4944 3.87503C11.5316 4.07218 12.0038 4.64315 12.0038 5.70644C12.0038 6.1018 12.0038 6.49609 12.0038 6.89146C12.0038 7.39779 11.9951 7.8341 12.4501 8.27794C13.18 8.99111 12.6787 10.2322 11.648 10.4175C11.3008 10.4789 11.1941 10.6092 11.1186 10.9378C10.9163 11.8417 10.3897 12.6403 9.63838 13.1829C9.36562 13.3854 9.15969 14.3108 9.31494 14.5909C9.33772 14.6292 9.37183 14.6595 9.41257 14.6777C9.45332 14.6958 9.49868 14.7009 9.54243 14.6922C10.0028 14.6738 10.5041 14.843 10.8146 14.2806C10.9429 14.0501 11.2459 13.9305 11.5208 13.9499C11.8722 13.9736 11.938 13.7786 11.9779 13.5082C12.0857 12.7455 12.2313 11.986 12.3164 11.22C12.3682 10.76 12.5461 10.4821 12.9956 10.3043C13.8581 9.96176 14.7045 9.55023 15.5594 9.17856C15.9572 9.00404 16.0004 8.81336 15.6467 8.53218C14.9996 8.03239 14.5572 7.31376 14.4026 6.51118C14.3573 6.27417 14.2581 6.20522 14.0199 6.17291C13.2652 6.06518 12.7789 5.53515 12.7682 4.85753C12.7574 4.17991 13.2415 3.60894 13.98 3.50768C14.257 3.46997 14.3196 3.37301 14.3551 3.11877C14.6182 1.24535 16.0187 0 17.8245 0C19.6304 0 21.0255 1.25613 21.2745 3.12416C21.3112 3.39779 21.3985 3.46027 21.6583 3.4969C22.3958 3.60463 22.8777 4.17237 22.8615 4.85537C22.857 5.1826 22.7315 5.49659 22.5092 5.73687C22.2868 5.97715 21.9834 6.12671 21.6572 6.15675C21.3726 6.19122 21.2573 6.28171 21.2066 6.55535C21.061 7.34824 20.6255 7.97091 20.0261 8.49448C19.625 8.8446 19.6455 8.9728 20.1457 9.20011C21.0082 9.59332 21.8783 9.98869 22.7548 10.3571C22.898 10.4054 23.0239 10.4946 23.1169 10.6137C23.2098 10.7329 23.2657 10.8766 23.2777 11.0272C23.4998 12.5354 23.7412 14.0436 23.9741 15.5518C24.0129 15.8039 24.0507 16.0571 23.7757 16.2198C23.5774 16.3383 23.6464 16.543 23.6453 16.7089C23.6399 17.7678 23.6453 18.8268 23.6453 19.8858C23.6453 21.1312 23.1483 21.8799 21.999 22.3227C21.7661 22.4121 21.6939 22.5219 21.7047 22.7536C21.7176 23.0218 21.6896 23.2922 21.7122 23.5605C21.7381 23.8837 21.6357 24.0032 21.2961 24.0022C20.9565 24.0011 20.9252 23.8363 20.9284 23.5712C20.9371 22.6922 20.9187 21.812 20.9381 20.9329C20.9457 20.6033 20.8422 20.502 20.5069 20.502C18.6748 20.5157 16.842 20.5157 15.0085 20.502C14.6419 20.502 14.5772 20.6162 14.6656 20.9394C14.7357 21.2023 14.7605 21.4781 14.4673 21.6558C14.2915 21.7635 14.3422 21.9402 14.3411 22.0943C14.3347 22.5974 14.3239 23.1005 14.3411 23.6025C14.353 23.916 14.2225 23.9968 13.9293 24C13.6059 24 13.5282 23.8729 13.5379 23.5809C13.5541 23.0789 13.5261 22.5758 13.5466 22.0727C13.5606 21.7614 13.4387 21.686 13.1433 21.6795C12.0049 21.6547 12.0048 21.644 12.0048 22.7794C12.0048 23.0304 11.9951 23.2825 12.0048 23.5335C12.0189 23.8104 12.0049 24.0054 11.6254 24.0054C11.2459 24.0054 11.2308 23.8319 11.2318 23.5443C11.2415 22.1621 11.2459 20.7789 11.2318 19.3967C11.2318 19.0735 11.3181 18.9658 11.6534 18.9658C12.0081 18.9658 12.0264 19.1457 12.0059 19.4032C11.9995 19.4749 11.9995 19.547 12.0059 19.6186C12.0534 20.0377 11.7979 20.6572 12.1202 20.8317C12.5126 21.0471 13.097 20.8985 13.5983 20.9103C13.8333 20.9168 13.8581 20.7746 13.8312 20.5871C13.6479 19.3267 13.4776 18.0641 13.2716 16.8069C13.2037 16.3954 13.0345 16.1282 12.4695 16.223C11.7515 16.3426 10.9709 16.3867 10.4728 15.4344ZM13.9455 16.1885C13.9455 15.136 13.9455 14.1955 13.9455 13.255C13.9455 12.9868 13.8851 12.7369 14.3314 12.739C14.7778 12.7412 14.7088 13.0051 14.7088 13.2647C14.7088 15.2567 14.7206 17.2507 14.7001 19.2405C14.7001 19.6391 14.7961 19.7587 15.2058 19.7533C16.9308 19.7296 18.6558 19.7264 20.3808 19.7533C20.8411 19.7608 20.9457 19.6176 20.9403 19.1791C20.9177 17.1699 20.9403 15.1597 20.9252 13.1462C20.9252 12.8489 21.0104 12.7412 21.3209 12.7412C21.6314 12.7412 21.7241 12.8489 21.7112 13.1495C21.6917 13.5966 21.7112 14.0458 21.7112 14.495C21.7112 15.4861 21.7112 15.4646 22.7138 15.4646C23.0804 15.4646 23.1742 15.3569 23.1159 14.9992C22.9204 13.8142 22.7408 12.6259 22.5769 11.4344C22.5391 11.1619 22.3979 11.0304 22.1672 10.9302C21.4416 10.6168 20.7193 10.2989 20.0023 9.96822C19.7867 9.86803 19.6854 9.8788 19.5474 10.1115C18.6752 11.5917 16.9599 11.5982 16.1103 10.1266C15.9831 9.90466 15.8947 9.85295 15.6618 9.96068C14.9298 10.3011 14.1891 10.6254 13.4495 10.9496C13.2576 11.0347 13.1261 11.1382 13.0948 11.3719C12.9956 12.1002 12.8792 12.8263 12.7563 13.5502C12.7132 13.8023 12.7218 13.9704 12.9967 14.1104C13.1941 14.204 13.3544 14.361 13.4521 14.5562C13.5498 14.7515 13.5793 14.9738 13.5358 15.1877C13.4635 15.5928 13.6522 15.8363 13.9455 16.1885ZM11.2405 7.50013C11.2405 6.86345 11.2405 6.29141 11.2405 5.71936C11.234 5.01697 11.0076 4.7498 10.3144 4.64853C9.8195 4.57635 9.42383 4.32534 9.35915 3.84271C9.29446 3.36009 9.00552 3.23189 8.61093 3.1694C7.57594 2.99704 6.53232 3.09507 5.49409 3.08322C4.27474 3.06814 3.31414 3.87827 3.12654 5.07299C2.9907 5.95314 3.24945 6.79666 3.34217 7.72744C3.83379 7.19849 4.46449 7.23943 5.00462 7.04228C5.33884 6.91947 5.61268 6.95825 5.87682 7.23404C6.20026 7.57339 6.63151 7.7059 7.09618 7.72206C7.40295 7.73851 7.70916 7.68058 7.98869 7.55321C8.26822 7.42584 8.51277 7.23281 8.70149 6.99057C9.04865 6.55966 9.39904 6.51549 9.86371 6.79989C10.2755 7.0509 10.723 7.24051 11.2405 7.50013ZM10.4642 9.42957C10.4642 8.95664 10.4642 8.61621 10.4642 8.27471C10.4707 7.73606 9.95535 7.80393 9.68043 7.59386C9.50901 7.46243 9.35699 7.4732 9.15969 7.63264C7.79372 8.75411 7.02071 8.80259 5.45744 7.90304C4.96905 7.62187 4.25102 8.00216 4.24994 8.54296C4.24994 9.06329 4.24024 9.58362 4.24994 10.104C4.2662 10.7731 4.49599 11.4195 4.90579 11.949C5.31559 12.4784 5.88397 12.8632 6.52801 13.0471C7.82175 13.4102 9.18773 12.8758 9.95535 11.7285C10.4577 10.9809 10.4933 10.1492 10.4642 9.42957ZM20.5188 4.68193C20.5188 4.28764 20.5252 3.89335 20.5188 3.4969C20.5123 3.20065 20.5716 2.76111 20.3031 2.68354C20.0347 2.60598 19.7285 2.899 19.5484 3.18556C19.5006 3.26091 19.4476 3.3329 19.39 3.40102C19.2369 3.58416 19.0493 3.76407 18.8186 3.77915C17.7922 3.85026 16.6731 4.2327 15.9766 3.03151C15.9212 2.96122 15.8523 2.90263 15.774 2.85914C15.3017 2.52841 15.1648 2.57474 15.1422 3.15432C15.1066 4.06679 15.1034 4.98573 15.1271 5.89604C15.1245 6.61033 15.406 7.29639 15.9097 7.80329C16.4133 8.31019 17.0978 8.59641 17.8127 8.59898C18.5275 8.60155 19.2141 8.32026 19.7214 7.817C20.2287 7.31374 20.5151 6.62972 20.5177 5.91543C20.5328 5.50714 20.5188 5.09453 20.5188 4.68193ZM6.1884 13.7592V14.7094C6.1884 15.415 6.17331 15.4333 5.47684 15.4635C5.23211 15.4743 5.04559 15.4732 5.14478 15.8169C5.39059 16.6981 6.35119 17.3994 7.36031 17.3973C8.36943 17.3951 9.3419 16.6873 9.56399 15.8093C9.62113 15.582 9.58879 15.4915 9.33327 15.4624C8.52792 15.373 8.529 15.3633 8.529 14.5327C8.529 14.3894 8.52145 14.2462 8.529 14.1018C8.54085 13.868 8.44921 13.7625 8.20556 13.8271C7.56839 14.0048 6.93015 13.9402 6.1884 13.7592ZM17.817 3.06922C18.1868 3.03582 18.6288 3.21034 18.8876 2.78266C19.0701 2.4726 19.3417 2.22451 19.667 2.07056C19.9657 1.92836 19.9549 1.78723 19.735 1.55777C18.8207 0.603286 17.1475 0.511716 16.1103 1.37678C15.6004 1.80016 15.6036 1.81848 16.1416 2.17291C16.2893 2.26986 16.465 2.37005 16.5459 2.51441C16.8262 3.0509 17.2736 3.15217 17.817 3.06922ZM21.7036 18.9238C21.7036 19.6779 21.7036 20.432 21.7036 21.1861C21.7036 21.3046 21.6928 21.4813 21.7607 21.5308C21.8934 21.6289 22.026 21.4834 22.1392 21.4102C22.3628 21.2724 22.5466 21.0787 22.6723 20.8482C22.7981 20.6177 22.8614 20.3584 22.8561 20.0959C22.8637 18.9486 22.8443 17.8012 22.8658 16.655C22.8755 16.125 22.5133 16.2726 22.2394 16.2607C21.9656 16.2489 21.6648 16.1831 21.6896 16.6658C21.7327 17.4166 21.7036 18.1708 21.7036 18.9238ZM17.7987 10.4498C18.3949 10.4379 18.9188 9.96391 18.977 9.42203C19.0018 9.1958 18.9717 9.09022 18.6935 9.16887C18.227 9.30416 17.7357 9.33033 17.2574 9.24535C17.0655 9.21088 16.8003 9.0105 16.6828 9.20442C16.5556 9.41988 16.7087 9.68597 16.8467 9.90143C16.9463 10.0655 17.0858 10.2018 17.2522 10.2977C17.4187 10.3936 17.6066 10.4459 17.7987 10.4498ZM12.0156 15.4603H12.2841C12.5482 15.4603 12.7638 15.373 12.7531 15.0724C12.7423 14.7719 12.5288 14.6911 12.2647 14.6932C12.0491 14.6932 11.8334 14.6835 11.6178 14.7029C11.5679 14.7028 11.5186 14.713 11.4728 14.7327C11.427 14.7525 11.3858 14.7815 11.3517 14.8179C11.3176 14.8543 11.2914 14.8973 11.2747 14.9442C11.258 14.9912 11.2511 15.041 11.2545 15.0908C11.2545 15.3288 11.4108 15.4409 11.6372 15.4549C11.7644 15.4646 11.8906 15.4581 12.0156 15.4581V15.4603ZM14.3767 4.82198C14.1924 4.67762 14.5589 4.28333 14.1115 4.26286C13.7881 4.25209 13.5724 4.48694 13.5724 4.81336C13.5649 5.16779 13.7881 5.41341 14.1331 5.40156C14.5212 5.38648 14.2441 5.02882 14.3767 4.81982V4.82198ZM21.5624 4.25316C21.4201 4.24562 21.3122 4.25316 21.3079 4.36628C21.295 4.67008 21.2972 4.97388 21.3079 5.27875C21.3079 5.3951 21.406 5.4188 21.4998 5.4091C21.8233 5.37571 22.0389 5.20011 22.0562 4.86507C22.0745 4.49987 21.861 4.30918 21.5624 4.25316ZM3.53084 9.07191C3.34432 8.93832 3.7152 8.53326 3.24729 8.53865C2.91307 8.53865 2.7244 8.76703 2.73195 9.10207C2.7395 9.43711 2.93895 9.65257 3.27101 9.64072C3.6807 9.62564 3.39392 9.27552 3.53084 9.07191ZM11.22 9.05036C11.3515 9.23027 11.0464 9.59548 11.4485 9.63534C11.772 9.66765 11.979 9.4328 11.9876 9.10961C11.9962 8.78643 11.8108 8.55804 11.483 8.5408C11.0701 8.51818 11.3202 8.87153 11.22 9.04929V9.05036Z" fill="#FA8B02"/>
<path d="M10.4728 15.4344C10.1861 16.6722 9.59741 17.491 8.56781 17.9391C6.85575 18.6846 4.90759 17.7474 4.37932 15.9063C4.27905 15.5583 4.14752 15.4226 3.79929 15.4635C3.61975 15.4738 3.43977 15.4738 3.26023 15.4635C2.21445 15.4635 1.51691 16.0345 1.36166 17.0568C1.1924 18.174 1.06302 19.2976 0.893759 20.4158C0.83554 20.7994 0.948743 20.9092 1.33579 20.9114C2.71147 20.9114 2.71578 20.9308 2.71362 19.5497C2.71362 19.2136 2.66187 18.8882 3.18692 18.9583C3.41656 18.9895 3.4931 19.0552 3.49202 19.2814C3.48448 20.7358 3.48017 22.1901 3.49202 23.6434C3.49202 23.958 3.3454 23.9849 3.09743 23.9881C2.84947 23.9914 2.69853 23.9343 2.70931 23.6337C2.72764 23.0951 2.70931 22.5564 2.71794 22.0178C2.72333 21.7625 2.63061 21.6881 2.37725 21.672C1.14496 21.5955 1.14604 21.5879 1.14604 22.7988C1.14604 23.0498 1.13741 23.3008 1.14604 23.5529C1.15466 23.805 1.13418 23.9957 0.783791 23.9935C0.452808 23.9935 0.340684 23.8858 0.36009 23.5572C0.383808 23.1457 0.367637 22.732 0.36009 22.3194C0.36009 22.0242 0.426933 21.7215 0.0948727 21.5114C-0.0625326 21.4102 -0.00215799 21.1796 0.0226387 21.003C0.212388 19.6337 0.396746 18.2645 0.599432 16.8985C0.809665 15.4829 2.07322 14.5564 3.27317 14.6782C3.86074 14.7374 4.4591 14.6782 5.05098 14.6932C5.32806 14.7008 5.41647 14.6157 5.42509 14.3291C5.43911 13.7765 5.39275 13.3369 4.84291 12.9674C4.12488 12.4837 3.73245 11.7102 3.57181 10.8484C3.52221 10.5887 3.43704 10.4552 3.14056 10.4293C2.88729 10.4149 2.64447 10.3235 2.44464 10.1674C2.24482 10.0112 2.09754 9.79777 2.02255 9.55562C1.83603 9.01697 1.93199 8.51387 2.35461 8.12173C2.43507 8.05314 2.49469 7.96339 2.5267 7.86266C2.55872 7.76193 2.56184 7.65426 2.53573 7.55184C2.4635 7.07245 2.41498 6.5909 2.34598 6.1115C1.99452 3.68758 3.91573 2.1255 5.65689 2.29249C6.63798 2.38513 7.63308 2.21815 8.61417 2.38729C9.33543 2.51225 10.0006 2.69647 10.0826 3.60463C10.102 3.82009 10.3122 3.84056 10.4944 3.87503C11.5316 4.07218 12.0038 4.64315 12.0038 5.70644C12.0038 6.1018 12.0038 6.49609 12.0038 6.89146C12.0038 7.39779 11.9951 7.8341 12.4501 8.27794C13.18 8.99111 12.6787 10.2322 11.648 10.4175C11.3008 10.4789 11.1941 10.6092 11.1186 10.9378C10.9163 11.8417 10.3897 12.6403 9.63838 13.1829C9.36562 13.3854 9.15969 14.3108 9.31494 14.5909C9.33772 14.6292 9.37183 14.6595 9.41257 14.6777C9.45332 14.6958 9.49868 14.7009 9.54243 14.6922C10.0028 14.6738 10.5041 14.843 10.8146 14.2806C10.9429 14.0501 11.2459 13.9305 11.5208 13.9499C11.8722 13.9736 11.938 13.7786 11.9779 13.5082C12.0857 12.7455 12.2313 11.986 12.3164 11.22C12.3682 10.76 12.5461 10.4821 12.9956 10.3043C13.8581 9.96176 14.7045 9.55023 15.5594 9.17856C15.9572 9.00404 16.0004 8.81336 15.6467 8.53218C14.9996 8.03239 14.5572 7.31376 14.4026 6.51118C14.3573 6.27417 14.2581 6.20522 14.0199 6.17291C13.2652 6.06518 12.7789 5.53515 12.7682 4.85753C12.7574 4.17991 13.2415 3.60894 13.98 3.50768C14.257 3.46997 14.3196 3.37301 14.3551 3.11877C14.6182 1.24535 16.0187 0 17.8245 0C19.6304 0 21.0255 1.25613 21.2745 3.12416C21.3112 3.39779 21.3985 3.46027 21.6583 3.4969C22.3958 3.60463 22.8777 4.17237 22.8615 4.85537C22.857 5.1826 22.7315 5.49659 22.5092 5.73687C22.2868 5.97715 21.9834 6.12671 21.6572 6.15675C21.3726 6.19122 21.2573 6.28171 21.2066 6.55535C21.061 7.34824 20.6255 7.97091 20.0261 8.49448C19.625 8.8446 19.6455 8.9728 20.1457 9.20011C21.0082 9.59332 21.8783 9.98869 22.7548 10.3571C22.898 10.4054 23.0239 10.4946 23.1169 10.6137C23.2098 10.7329 23.2657 10.8766 23.2777 11.0272C23.4998 12.5354 23.7412 14.0436 23.9741 15.5518C24.0129 15.8039 24.0507 16.0571 23.7757 16.2198C23.5774 16.3383 23.6464 16.543 23.6453 16.7089C23.6399 17.7678 23.6453 18.8268 23.6453 19.8858C23.6453 21.1312 23.1483 21.8799 21.999 22.3227C21.7661 22.4121 21.6939 22.5219 21.7047 22.7536C21.7176 23.0218 21.6896 23.2922 21.7122 23.5605C21.7381 23.8837 21.6357 24.0032 21.2961 24.0022C20.9565 24.0011 20.9252 23.8363 20.9284 23.5712C20.9371 22.6922 20.9187 21.812 20.9381 20.9329C20.9457 20.6033 20.8422 20.502 20.5069 20.502C18.6748 20.5157 16.842 20.5157 15.0085 20.502C14.6419 20.502 14.5772 20.6162 14.6656 20.9394C14.7357 21.2023 14.7605 21.4781 14.4673 21.6558C14.2915 21.7635 14.3422 21.9402 14.3411 22.0943C14.3347 22.5974 14.3239 23.1005 14.3411 23.6025C14.353 23.916 14.2225 23.9968 13.9293 24C13.6059 24 13.5282 23.8729 13.5379 23.5809C13.5541 23.0789 13.5261 22.5758 13.5466 22.0727C13.5606 21.7614 13.4387 21.686 13.1433 21.6795C12.0049 21.6547 12.0048 21.644 12.0048 22.7794C12.0048 23.0304 11.9951 23.2825 12.0048 23.5335C12.0189 23.8104 12.0049 24.0054 11.6254 24.0054C11.2459 24.0054 11.2308 23.8319 11.2318 23.5443C11.2415 22.1621 11.2459 20.7789 11.2318 19.3967C11.2318 19.0735 11.3181 18.9658 11.6534 18.9658C12.0081 18.9658 12.0264 19.1457 12.0059 19.4032C11.9995 19.4749 11.9995 19.547 12.0059 19.6186C12.0534 20.0377 11.7979 20.6572 12.1202 20.8317C12.5126 21.0471 13.097 20.8985 13.5983 20.9103C13.8333 20.9168 13.8581 20.7746 13.8312 20.5871C13.6479 19.3267 13.4776 18.0641 13.2716 16.8069C13.2037 16.3954 13.0345 16.1282 12.4695 16.223C11.7515 16.3426 10.9709 16.3867 10.4728 15.4344ZM13.9455 16.1885C13.9455 15.136 13.9455 14.1955 13.9455 13.255C13.9455 12.9868 13.8851 12.7369 14.3314 12.739C14.7778 12.7412 14.7088 13.0051 14.7088 13.2647C14.7088 15.2567 14.7206 17.2507 14.7001 19.2405C14.7001 19.6391 14.7961 19.7587 15.2058 19.7533C16.9308 19.7296 18.6558 19.7264 20.3808 19.7533C20.8411 19.7608 20.9457 19.6176 20.9403 19.1791C20.9177 17.1699 20.9403 15.1597 20.9252 13.1462C20.9252 12.8489 21.0104 12.7412 21.3209 12.7412C21.6314 12.7412 21.7241 12.8489 21.7112 13.1495C21.6917 13.5966 21.7112 14.0458 21.7112 14.495C21.7112 15.4861 21.7112 15.4646 22.7138 15.4646C23.0804 15.4646 23.1742 15.3569 23.1159 14.9992C22.9204 13.8142 22.7408 12.6259 22.5769 11.4344C22.5391 11.1619 22.3979 11.0304 22.1672 10.9302C21.4416 10.6168 20.7193 10.2989 20.0023 9.96822C19.7867 9.86803 19.6854 9.8788 19.5474 10.1115C18.6752 11.5917 16.9599 11.5982 16.1103 10.1266C15.9831 9.90466 15.8947 9.85295 15.6618 9.96068C14.9298 10.3011 14.1891 10.6254 13.4495 10.9496C13.2576 11.0347 13.1261 11.1382 13.0948 11.3719C12.9956 12.1002 12.8792 12.8263 12.7563 13.5502C12.7132 13.8023 12.7218 13.9704 12.9967 14.1104C13.1941 14.204 13.3544 14.361 13.4521 14.5562C13.5498 14.7515 13.5793 14.9738 13.5358 15.1877C13.4635 15.5928 13.6522 15.8363 13.9455 16.1885ZM11.2405 7.50013C11.2405 6.86345 11.2405 6.29141 11.2405 5.71936C11.234 5.01697 11.0076 4.7498 10.3144 4.64853C9.8195 4.57635 9.42383 4.32534 9.35915 3.84271C9.29446 3.36009 9.00552 3.23189 8.61093 3.1694C7.57594 2.99704 6.53232 3.09507 5.49409 3.08322C4.27474 3.06814 3.31414 3.87827 3.12654 5.07299C2.9907 5.95314 3.24945 6.79666 3.34217 7.72744C3.83379 7.19849 4.46449 7.23943 5.00462 7.04228C5.33884 6.91947 5.61268 6.95825 5.87682 7.23404C6.20026 7.57339 6.63151 7.7059 7.09618 7.72206C7.40295 7.73851 7.70916 7.68058 7.98869 7.55321C8.26822 7.42584 8.51277 7.23281 8.70149 6.99057C9.04865 6.55966 9.39904 6.51549 9.86371 6.79989C10.2755 7.0509 10.723 7.24051 11.2405 7.50013ZM10.4642 9.42957C10.4642 8.95664 10.4642 8.61621 10.4642 8.27471C10.4707 7.73606 9.95535 7.80393 9.68043 7.59386C9.50901 7.46243 9.35699 7.4732 9.15969 7.63264C7.79372 8.75411 7.02071 8.80259 5.45744 7.90304C4.96905 7.62187 4.25102 8.00216 4.24994 8.54296C4.24994 9.06329 4.24024 9.58362 4.24994 10.104C4.2662 10.7731 4.49599 11.4195 4.90579 11.949C5.31559 12.4784 5.88397 12.8632 6.52801 13.0471C7.82175 13.4102 9.18773 12.8758 9.95535 11.7285C10.4577 10.9809 10.4933 10.1492 10.4642 9.42957ZM20.5188 4.68193C20.5188 4.28764 20.5252 3.89335 20.5188 3.4969C20.5123 3.20065 20.5716 2.76111 20.3031 2.68354C20.0347 2.60598 19.7285 2.899 19.5484 3.18556C19.5006 3.26091 19.4476 3.3329 19.39 3.40102C19.2369 3.58416 19.0493 3.76407 18.8186 3.77915C17.7922 3.85026 16.6731 4.2327 15.9766 3.03151C15.9212 2.96122 15.8523 2.90263 15.774 2.85914C15.3017 2.52841 15.1648 2.57474 15.1422 3.15432C15.1066 4.06679 15.1034 4.98573 15.1271 5.89604C15.1245 6.61033 15.406 7.29639 15.9097 7.80329C16.4133 8.31019 17.0978 8.59641 17.8127 8.59898C18.5275 8.60155 19.2141 8.32026 19.7214 7.817C20.2287 7.31374 20.5151 6.62972 20.5177 5.91543C20.5328 5.50714 20.5188 5.09453 20.5188 4.68193ZM6.1884 13.7592V14.7094C6.1884 15.415 6.17331 15.4333 5.47684 15.4635C5.23211 15.4743 5.04559 15.4732 5.14478 15.8169C5.39059 16.6981 6.35119 17.3994 7.36031 17.3973C8.36943 17.3951 9.3419 16.6873 9.56399 15.8093C9.62113 15.582 9.58879 15.4915 9.33327 15.4624C8.52792 15.373 8.529 15.3633 8.529 14.5327C8.529 14.3894 8.52145 14.2462 8.529 14.1018C8.54085 13.868 8.44921 13.7625 8.20556 13.8271C7.56839 14.0048 6.93015 13.9402 6.1884 13.7592ZM17.817 3.06922C18.1868 3.03582 18.6288 3.21034 18.8876 2.78266C19.0701 2.4726 19.3417 2.22451 19.667 2.07056C19.9657 1.92836 19.9549 1.78723 19.735 1.55777C18.8207 0.603286 17.1475 0.511716 16.1103 1.37678C15.6004 1.80016 15.6036 1.81848 16.1416 2.17291C16.2893 2.26986 16.465 2.37005 16.5459 2.51441C16.8262 3.0509 17.2736 3.15217 17.817 3.06922ZM21.7036 18.9238C21.7036 19.6779 21.7036 20.432 21.7036 21.1861C21.7036 21.3046 21.6928 21.4813 21.7607 21.5308C21.8934 21.6289 22.026 21.4834 22.1392 21.4102C22.3628 21.2724 22.5466 21.0787 22.6723 20.8482C22.7981 20.6177 22.8614 20.3584 22.8561 20.0959C22.8637 18.9486 22.8443 17.8012 22.8658 16.655C22.8755 16.125 22.5133 16.2726 22.2394 16.2607C21.9656 16.2489 21.6648 16.1831 21.6896 16.6658C21.7327 17.4166 21.7036 18.1708 21.7036 18.9238ZM17.7987 10.4498C18.3949 10.4379 18.9188 9.96391 18.977 9.42203C19.0018 9.1958 18.9717 9.09022 18.6935 9.16887C18.227 9.30416 17.7357 9.33033 17.2574 9.24535C17.0655 9.21088 16.8003 9.0105 16.6828 9.20442C16.5556 9.41988 16.7087 9.68597 16.8467 9.90143C16.9463 10.0655 17.0858 10.2018 17.2522 10.2977C17.4187 10.3936 17.6066 10.4459 17.7987 10.4498ZM12.0156 15.4603H12.2841C12.5482 15.4603 12.7638 15.373 12.7531 15.0724C12.7423 14.7719 12.5288 14.6911 12.2647 14.6932C12.0491 14.6932 11.8334 14.6835 11.6178 14.7029C11.5679 14.7028 11.5186 14.713 11.4728 14.7327C11.427 14.7525 11.3858 14.7815 11.3517 14.8179C11.3176 14.8543 11.2914 14.8973 11.2747 14.9442C11.258 14.9912 11.2511 15.041 11.2545 15.0908C11.2545 15.3288 11.4108 15.4409 11.6372 15.4549C11.7644 15.4646 11.8906 15.4581 12.0156 15.4581V15.4603ZM14.3767 4.82198C14.1924 4.67762 14.5589 4.28333 14.1115 4.26286C13.7881 4.25209 13.5724 4.48694 13.5724 4.81336C13.5649 5.16779 13.7881 5.41341 14.1331 5.40156C14.5212 5.38648 14.2441 5.02882 14.3767 4.81982V4.82198ZM21.5624 4.25316C21.4201 4.24562 21.3122 4.25316 21.3079 4.36628C21.295 4.67008 21.2972 4.97388 21.3079 5.27875C21.3079 5.3951 21.406 5.4188 21.4998 5.4091C21.8233 5.37571 22.0389 5.20011 22.0562 4.86507C22.0745 4.49987 21.861 4.30918 21.5624 4.25316ZM3.53084 9.07191C3.34432 8.93832 3.7152 8.53326 3.24729 8.53865C2.91307 8.53865 2.7244 8.76703 2.73195 9.10207C2.7395 9.43711 2.93895 9.65257 3.27101 9.64072C3.6807 9.62564 3.39392 9.27552 3.53084 9.07191ZM11.22 9.05036C11.3515 9.23027 11.0464 9.59548 11.4485 9.63534C11.772 9.66765 11.979 9.4328 11.9876 9.10961C11.9962 8.78643 11.8108 8.55804 11.483 8.5408C11.0701 8.51818 11.3202 8.87153 11.22 9.04929V9.05036Z" stroke="#FA8B02" stroke-width="0.4" mask="url(#path-1-outside-1_1_1757)"/>
<path d="M17.794 21.5654C18.0119 21.5592 18.1644 21.6097 18.2462 21.7422C18.2837 21.8032 18.3002 21.8725 18.3077 21.9404C18.3151 22.0084 18.3142 22.0834 18.3126 22.1572C18.3018 22.6562 18.2975 23.1542 18.3126 23.6504C18.3174 23.8234 18.2711 23.9504 18.1563 24.0225C18.0561 24.0852 17.9228 24.0908 17.8057 24.0918C17.6817 24.0929 17.5498 24.0792 17.4522 24.0059C17.3455 23.9254 17.306 23.795 17.3174 23.6279C17.3322 23.3657 17.3184 23.1072 17.3184 22.832C17.3184 22.5959 17.3259 22.3703 17.3184 22.1406L17.3194 22.1396C17.3162 22.0716 17.3134 22.0027 17.3194 21.9395C17.3255 21.8754 17.3403 21.8095 17.3751 21.751C17.4502 21.6251 17.5921 21.5712 17.794 21.5654Z" fill="#FA8B02" stroke="#FA8B02" stroke-width="0.2"/>
</g>
<defs>
<clipPath id="clip0_1_1757">
<rect width="24" height="24" fill="white"/>
</clipPath>
</defs>
</svg>
