<svg width="24" height="24" viewBox="0 0 24 24" fill="none" xmlns="http://www.w3.org/2000/svg">
<g clip-path="url(#clip0_1_1781)">
<path d="M12.0008 23.9996H2.3015C1.46715 23.9996 1.25856 23.7545 1.20746 22.916C1.10942 21.1795 1.6361 19.7058 2.92413 18.5127C3.44559 18.0309 4.06301 17.7201 4.69711 17.4302C5.78774 16.9324 6.91629 16.5222 8.07205 16.2037C8.4256 16.0994 8.60707 15.9294 8.66756 15.5852C8.7218 15.2723 8.79585 14.973 8.85216 14.6664C9.01069 13.7903 8.89805 13.0467 8.05432 12.5044C7.45463 12.1185 7.1647 11.4906 7.20641 10.7543C7.22206 10.4915 7.13341 10.3622 6.88102 10.2569C6.0644 9.9179 5.62115 9.29005 5.6295 8.39626C5.63471 7.52854 6.05502 6.90486 6.85807 6.57425C7.11568 6.46996 7.1647 6.35941 7.12194 6.08199C7.01764 5.39782 6.759 4.8774 6.04041 4.66777C5.81097 4.60207 5.60342 4.45918 5.39067 4.33925C4.76491 3.98986 4.41135 3.45275 4.41031 2.73417C4.41031 1.9916 4.77429 1.44197 5.42925 1.09989C6.3679 0.60867 7.38893 0.393826 8.42352 0.25303C11.1456 -0.116169 13.8624 -0.0984392 16.5657 0.425114C17.2507 0.548576 17.9149 0.767647 18.5389 1.0759C19.2179 1.42007 19.6038 1.97074 19.6027 2.73521C19.6027 3.47674 19.2283 4.02011 18.5754 4.36636C18.2229 4.55409 17.8704 4.74495 17.5054 4.90452C17.3835 4.94876 17.2761 5.02568 17.195 5.12684C17.1139 5.22801 17.0622 5.34954 17.0455 5.47813C16.9964 5.76807 16.8369 6.06634 16.8734 6.33751C16.9099 6.60867 17.3145 6.5972 17.5315 6.75468C18.1416 7.20627 18.4315 7.79762 18.3804 8.5527C18.3272 9.33281 17.9288 9.90851 17.2207 10.212C16.8911 10.3528 16.7858 10.5145 16.7983 10.8597C16.8254 11.5543 16.4656 12.0684 15.9702 12.5284C15.6573 12.812 15.1817 12.982 15.1358 13.4743C15.0547 14.3082 15.1664 15.1497 15.4623 15.9335C15.5436 16.1421 15.7689 16.1369 15.9452 16.1932C17.3364 16.6323 18.735 17.063 20.0126 17.7848C22.4437 19.1593 22.9453 21.1221 22.7733 23.2852C22.7336 23.7837 22.3863 23.9975 21.9066 23.9996C20.8977 23.9996 19.8895 23.9996 18.8821 23.9996H12.0008ZM7.21476 7.29388C6.62029 7.56608 6.38875 7.96344 6.40753 8.49012C6.42526 8.99803 6.8247 9.51637 7.32531 9.55392C7.97088 9.60293 8.05536 9.96275 8.00426 10.4686C7.96188 10.7625 8.00228 11.0625 8.12092 11.3348C8.23956 11.6071 8.43175 11.8409 8.67591 12.01C9.08443 12.3062 9.46338 12.6412 9.80749 13.0102C10.5375 13.832 11.424 14.1418 12.5076 14.0072C12.8675 13.9634 13.1824 13.8863 13.4557 13.6443C14.0554 13.1155 14.6394 12.567 15.2673 12.0736C15.8263 11.6346 16.0818 11.1058 16.0036 10.405C15.9514 9.93042 16.0578 9.61441 16.6439 9.56435C17.1727 9.52054 17.5669 9.00325 17.6066 8.47865C17.642 8.00412 17.3573 7.58068 16.8525 7.36688C16.7576 7.564 16.8223 7.77258 16.8035 7.97387C16.7806 8.21375 16.6679 8.37436 16.4197 8.39104C16.1715 8.40773 16.0369 8.24608 16.015 8.00724C15.9925 7.81719 15.9897 7.62531 16.0067 7.43467C16.0557 7.0248 15.9024 6.94345 15.504 6.99664C13.2617 7.29679 10.9901 7.30871 8.74474 7.0321C8.01469 6.94449 8.01469 6.94345 8.00322 7.71001C8.00427 7.82899 7.99625 7.94788 7.97923 8.06565C7.96498 8.15595 7.91896 8.2382 7.84946 8.29759C7.77996 8.35698 7.69154 8.38961 7.60012 8.38961C7.5087 8.38961 7.42029 8.35698 7.35079 8.29759C7.28129 8.2382 7.23527 8.15595 7.22102 8.06565C7.20467 7.8087 7.20259 7.55105 7.21476 7.29388ZM18.7913 2.72165C18.7913 2.27111 18.5494 1.977 18.1656 1.78301C17.6654 1.53851 17.1357 1.35973 16.5897 1.25112C14.0345 0.696277 11.4564 0.700448 8.87198 0.991427C7.83739 1.10824 6.80906 1.30431 5.86207 1.7705C5.23631 2.08338 5.00165 2.72896 5.35625 3.23686C5.75465 3.80735 6.44299 3.95023 7.02494 4.23599C7.08335 4.26415 7.21163 4.17342 7.29506 4.11919C7.85857 3.77144 8.48642 3.54087 9.14106 3.44128C10.743 3.14926 12.3596 3.15656 13.9667 3.3057C14.9575 3.39748 15.9274 3.5852 16.767 4.17446C16.8224 4.21557 16.8891 4.23845 16.9581 4.23994C17.027 4.24144 17.0947 4.22147 17.1518 4.18281C17.5356 3.98256 17.9299 3.79901 18.3074 3.58625C18.4609 3.50175 18.5876 3.37599 18.6733 3.22319C18.759 3.0704 18.8003 2.89667 18.7924 2.72165H18.7913ZM11.9966 6.39278C13.2109 6.43872 14.4266 6.36044 15.625 6.15917C15.8044 6.12892 15.9994 6.14039 16.1089 5.92346C16.5396 5.07243 16.3967 4.70949 15.4925 4.41225C15.378 4.37032 15.2609 4.33549 15.1421 4.30796C13.0763 3.89923 10.9503 3.89923 8.8845 4.30796C8.64597 4.3542 8.41479 4.43243 8.1972 4.54053C7.95524 4.6636 7.57144 4.72305 7.71328 5.14335C7.84886 5.54383 7.71328 6.09137 8.41517 6.1769C9.60933 6.32604 10.7951 6.43346 11.9966 6.39278ZM12.4044 20.9699C12.4044 20.6747 12.4044 20.3796 12.4044 20.0844C12.4044 19.0863 12.8883 18.7568 13.8134 19.1552C15.4143 19.8435 16.4009 21.0512 16.7159 22.7679C16.7889 23.1684 16.9808 23.2372 17.3135 23.1924C17.7536 23.134 17.4877 22.8242 17.5033 22.6261C17.4957 22.4876 17.4668 22.3511 17.4178 22.2214C17.1037 20.9811 16.3735 19.8861 15.3493 19.1193C14.3251 18.3525 13.0687 17.9603 11.7902 18.0083C10.5116 18.0563 9.28819 18.5415 8.32429 19.3829C7.36039 20.2243 6.71436 21.3709 6.49409 22.6313C6.40544 23.1465 6.53685 23.2789 7.01556 23.1965C7.32844 23.1423 7.25022 22.8837 7.28881 22.7095C7.68304 20.9209 8.72597 19.6933 10.4447 19.0655C11.1153 18.8204 11.5815 19.1625 11.6034 19.8769C11.618 20.3462 11.6034 20.8155 11.6034 21.2838C11.6034 21.8647 11.7192 22.478 11.082 22.8545C11.058 22.8658 11.0366 22.8818 11.0189 22.9016C11.0011 22.9213 10.9875 22.9443 10.9788 22.9694C10.9701 22.9944 10.9664 23.0209 10.968 23.0474C10.9696 23.0739 10.9764 23.0997 10.9881 23.1235C11.0517 23.2278 11.1737 23.1924 11.2728 23.1934C11.7244 23.1934 12.176 23.1997 12.6286 23.1934C12.76 23.1934 12.9415 23.2591 13.0103 23.1194C13.0959 22.9483 12.93 22.8065 12.8132 22.7408C12.419 22.5072 12.3721 22.1557 12.3961 21.7531C12.419 21.4924 12.4044 21.2306 12.4044 20.9699ZM6.48783 17.6982L6.38354 17.5939C5.78385 17.8525 5.16748 18.0809 4.58656 18.3761C2.77916 19.2928 1.92395 20.7748 2.00009 22.8054C2.01052 23.087 2.07831 23.2101 2.38076 23.2049C3.35173 23.1913 4.3227 23.1965 5.29367 23.2049C5.51999 23.2049 5.63263 23.1517 5.65766 22.892C5.70694 22.3554 5.83267 21.8286 6.03103 21.3276C6.12072 21.1044 6.0936 21.0032 5.83496 20.924C5.01104 20.6716 4.85773 20.2127 5.32705 19.4806C5.71189 18.883 6.10195 18.2916 6.48783 17.6982ZM17.4918 17.6513C17.909 18.301 18.3126 18.9028 18.6985 19.5108C19.1428 20.2106 18.977 20.6789 18.1854 20.9209C17.9476 20.9928 17.8725 21.071 17.9685 21.314C18.1711 21.8138 18.2976 22.3411 18.3439 22.8784C18.3689 23.1726 18.5149 23.2018 18.7486 23.1997C19.7018 23.1934 20.6561 23.1903 21.6093 23.1997C21.8961 23.1997 21.991 23.111 22.0046 22.8138C22.1412 19.9687 20.2859 18.3448 17.4918 17.6513ZM9.73136 14.1001C9.65314 14.7363 9.60308 15.3412 9.40909 15.92C9.36842 16.041 9.3632 16.1672 9.51338 16.2245C10.3248 16.5301 11.1351 16.8346 11.9497 17.1308C12.0351 17.1454 12.123 17.133 12.201 17.0954C12.9311 16.8242 13.6611 16.5478 14.3912 16.2725C14.5257 16.2214 14.6676 16.1609 14.6092 15.9805C14.411 15.3777 14.3651 14.7436 14.265 14.1115C12.7454 15.1044 11.2697 15.1221 9.73136 14.1001ZM13.2116 21.0137C13.2586 21.3266 13.1073 21.7135 13.2909 22.0431C13.9459 23.2028 13.9552 23.1976 15.3173 23.1903C15.4039 23.1903 15.4915 23.183 15.577 23.1903C15.916 23.2247 15.9994 23.086 15.9201 22.7616C15.6229 21.5497 14.946 20.6309 13.8426 20.0417C13.246 19.7225 13.2168 19.7507 13.2168 20.4432L13.2116 21.0137ZM10.7899 21.0971C10.7899 20.6977 10.7837 20.4202 10.7899 20.1439C10.7962 19.8675 10.6909 19.808 10.4468 19.9196C9.14836 20.4964 8.37346 21.4924 8.06788 22.8691C8.02095 23.0839 8.08457 23.1986 8.3234 23.1965C8.80732 23.1965 9.29228 23.1965 9.77725 23.1965C9.88154 23.1965 10.0119 23.2049 10.0505 23.0922C10.2925 22.382 11.1195 21.8793 10.7952 21.0971H10.7899ZM8.51425 18.1769C8.30567 18.0006 8.08874 17.8703 7.93647 17.6888C7.71119 17.4208 7.58709 17.4573 7.415 17.7409C7.00617 18.4043 6.56084 19.0457 6.14679 19.7069C6.07379 19.8237 5.80993 19.9822 6.0498 20.1188C6.24691 20.2315 6.51703 20.3566 6.72145 20.0218C7.10629 19.3961 7.63402 18.8913 8.21702 18.446C8.29211 18.3897 8.36303 18.3167 8.51425 18.1811V18.1769ZM16.3832 17.4781C16.2789 17.4687 15.5739 18.1592 15.5947 18.2249C15.6193 18.2878 15.6613 18.3424 15.7157 18.3824C16.3574 18.8586 16.9126 19.4413 17.3573 20.1053C17.5325 20.3723 17.7943 20.2096 17.9643 20.1199C18.1823 20.0072 17.957 19.8529 17.8913 19.7476C17.4658 19.0738 17.0256 18.4084 16.5876 17.743C16.5219 17.6481 16.4426 17.5584 16.3832 17.4823V17.4781ZM13.7759 17.3603C14.6916 17.9245 14.7552 17.9224 15.3601 17.2685C15.4435 17.1788 15.6448 17.0995 15.5342 16.9483C15.4446 16.8284 15.2589 16.818 15.1004 16.8753C14.6655 17.0359 14.2368 17.1955 13.7727 17.3645L13.7759 17.3603ZM10.3248 17.3843C9.77203 17.1851 9.33609 17.0234 8.89805 16.8711C8.74161 16.8169 8.5591 16.8357 8.47358 16.9671C8.40057 17.0808 8.57787 17.1611 8.63628 17.257C8.9721 17.7576 9.38197 17.9151 9.91909 17.5574C10.0492 17.4919 10.1837 17.4354 10.3217 17.3884L10.3248 17.3843Z" fill="#FA8B02"/>
<path d="M12.0008 11.9935C11.7244 11.9935 11.447 12.0081 11.1727 11.9873C11.1245 11.9863 11.077 11.9758 11.0329 11.9564C10.9889 11.937 10.9491 11.909 10.9159 11.8741C10.8827 11.8391 10.8568 11.798 10.8397 11.753C10.8225 11.7079 10.8145 11.66 10.816 11.6118C10.8102 11.5637 10.8145 11.5149 10.8285 11.4685C10.8426 11.4221 10.8662 11.3791 10.8978 11.3423C10.9294 11.3055 10.9683 11.2757 11.012 11.2548C11.0557 11.2339 11.1034 11.2223 11.1518 11.2207C11.7202 11.1999 12.2907 11.1999 12.8591 11.2207C12.9076 11.2225 12.9552 11.2343 12.9989 11.2556C13.0425 11.2769 13.0812 11.3071 13.1124 11.3442C13.1437 11.3814 13.1668 11.4247 13.1803 11.4713C13.1938 11.5179 13.1973 11.5669 13.1908 11.615C13.1922 11.7121 13.1549 11.8059 13.0873 11.8757C13.0197 11.9455 12.9271 11.9856 12.8299 11.9873C12.5546 12.0113 12.2771 11.9935 12.0008 11.9935Z" fill="#FA8B02"/>
<path d="M10.0651 7.61279C10.3342 7.64095 10.7388 7.5085 10.7701 8.02162C10.7837 8.24168 10.2372 8.77984 10.0181 8.78714C9.79913 8.79444 9.20779 8.22917 9.20361 8.01015C9.20361 7.71709 9.42889 7.61279 10.0651 7.61279Z" fill="#FA8B02"/>
<path d="M14.0178 7.61279C14.3307 7.63052 14.7218 7.52102 14.7938 8.00181C14.8261 8.21039 14.216 8.79027 13.9949 8.78922C13.7738 8.78818 13.2419 8.25003 13.2294 8.0331C13.2096 7.71083 13.3962 7.61279 14.0178 7.61279Z" fill="#FA8B02"/>
<path d="M12.0122 10.4227C11.8577 10.4251 11.7032 10.4153 11.5502 10.3935C11.4542 10.381 11.3667 10.3319 11.3059 10.2566C11.2451 10.1812 11.2157 10.0853 11.2238 9.98883C11.2224 9.94079 11.2306 9.89295 11.2479 9.8481C11.2652 9.80326 11.2913 9.76231 11.3246 9.72765C11.3579 9.69299 11.3977 9.66531 11.4419 9.64623C11.486 9.62714 11.5334 9.61704 11.5815 9.61651C11.8214 9.59878 12.0623 9.60399 12.3032 9.60503C12.5806 9.60503 12.7892 9.71559 12.7788 10.0222C12.7705 10.2923 12.5765 10.4029 12.323 10.4144C12.2187 10.4196 12.1144 10.4144 12.0102 10.4144L12.0122 10.4227Z" fill="#FA8B02"/>
<path d="M12.0467 12.3979C12.1843 12.4052 12.3231 12.3979 12.4639 12.4209C12.5512 12.4281 12.6328 12.4676 12.6927 12.5315C12.7527 12.5955 12.7867 12.6795 12.7882 12.7671C12.8059 12.982 12.6975 13.1541 12.4826 13.1843C12.1923 13.2149 11.8999 13.2205 11.6086 13.201C11.5561 13.2023 11.5039 13.1924 11.4554 13.172C11.407 13.1515 11.3635 13.121 11.3277 13.0824C11.292 13.0438 11.2649 12.9981 11.2483 12.9482C11.2316 12.8984 11.2258 12.8455 11.2311 12.7932C11.2415 12.5533 11.398 12.424 11.6389 12.4146C11.7766 12.4146 11.9142 12.4146 12.0561 12.4146L12.0467 12.3979Z" fill="#FA8B02"/>
</g>
<defs>
<clipPath id="clip0_1_1781">
<rect width="24" height="24" fill="white"/>
</clipPath>
</defs>
</svg>
