<svg width="60" height="60" viewBox="0 0 60 60" fill="none" xmlns="http://www.w3.org/2000/svg">
<g clip-path="url(#clip0_3_4334)">
<path d="M27.9876 2.01178C35.4869 2.01178 42.9871 2.01178 50.4883 2.01178C51.2666 2.01178 52.0865 2.19517 52.0198 0.919755C51.9892 0.364019 52.5035 0.0333563 53.0761 0.0277989C54.2324 0.0277989 55.4053 -0.0611188 56.545 0.0833725C58.638 0.36124 59.9889 2.10625 59.9944 4.44312C60.0056 11.0619 60.0056 17.6807 59.9944 24.2996C59.9944 31.9354 59.9944 39.5721 59.9944 47.2098C59.9944 50.4358 58.4657 51.9502 55.2219 51.953C50.4077 51.953 45.5907 51.9724 40.7681 51.953C39.962 51.953 39.3144 52.078 38.8752 52.7866C38.8279 52.8644 38.7446 52.9199 38.6945 52.995C36.2985 56.5489 32.8129 58.4745 28.8131 59.6443C28.3156 59.7916 27.8236 59.9972 27.365 59.6193C26.848 59.1886 26.9953 58.6468 27.1593 58.0883C27.6485 56.4016 28.0932 54.7011 28.5908 53.0172C28.7937 52.3225 28.8354 51.9391 27.8708 51.9446C22.2227 51.9835 16.5746 51.9752 10.9154 51.9446C10.1899 51.9446 9.95089 52.1586 9.96757 52.8894C10.012 54.74 9.95089 56.5934 9.99259 58.4467C10.0176 59.5888 9.5145 60.0445 8.40267 60C7.38534 59.9611 6.36524 60 5.34513 60C2.12638 59.9444 0 57.8243 0 54.5482C0 43.4391 0 32.3309 0 21.2236C0 16.686 0 12.1512 0 7.60803C0.0138979 4.06522 2.05411 2.02289 5.62309 2.01455C13.0779 2.00344 20.5328 2.00251 27.9876 2.01178ZM28.0599 4.06244H5.96498C2.95469 4.06244 2.00964 5.02386 2.00964 8.08041V49.2049C2.00964 49.4355 2.00964 49.6689 2.00964 49.8995C1.96794 50.5831 2.16251 50.8776 2.87408 50.4969C3.80524 49.9968 4.81979 49.994 5.85379 49.994C13.6366 49.994 21.4194 49.994 29.2023 49.994C29.5719 49.994 29.9444 49.994 30.3141 49.994C30.5021 49.9905 30.6838 49.9252 30.831 49.8082C30.9782 49.6911 31.0827 49.5289 31.1285 49.3466C31.248 48.9798 30.9145 48.7686 30.6504 48.5824C30.1983 48.2511 29.6569 48.0633 29.0966 48.0434C28.31 48.0239 27.5234 48.01 26.7368 48.0239C26.0502 48.0239 26.003 47.5877 26.0419 47.0958C26.0725 46.679 25.8362 46.0455 26.5589 46.0233C28.3573 45.9705 30.2529 45.6843 31.765 46.9458C32.5989 47.6377 32.9658 47.4765 33.6162 46.7457C37.9552 41.8664 42.3608 37.0454 46.7108 32.1771C47.9311 30.81 49.3486 30.2015 51.1582 30.5849C51.4167 30.6377 51.8308 30.9767 51.9031 30.4126C51.9753 29.8486 51.4945 30.032 51.2193 30.0292C49.6433 30.0125 48.0673 30.0125 46.494 30.0292C45.7324 30.0292 45.0125 29.9069 45.0514 28.965C45.0876 28.098 45.8075 28.048 46.494 28.0508C47.9755 28.0508 49.4598 28.0146 50.9413 28.0508C51.7169 28.0786 52.0004 27.8451 51.9754 27.0421C51.9235 25.3749 51.9235 23.7077 51.9754 22.0405C52.0031 21.2069 51.6974 21.0207 50.9274 21.0429C49.4015 21.0902 47.8699 21.0596 46.3439 21.0429C45.6157 21.0429 45.0097 20.7984 45.0431 19.9565C45.0764 19.1923 45.6768 19.0117 46.3356 19.009C47.8199 19.009 49.3014 18.9645 50.7829 19.009C51.6501 19.0395 52.0198 18.8228 51.9809 17.8641C51.9086 15.9691 51.9059 14.0657 51.9809 12.1706C52.0198 11.2092 51.6529 11.0064 50.7857 11.0397C49.2597 11.0953 47.7282 11.0647 46.2022 11.0397C45.5128 11.0397 45.0097 10.7118 45.0431 9.95602C45.0764 9.26413 45.599 9.05017 46.2105 9.03627C46.9054 9.02238 47.6003 9.0585 48.2952 9.0196C49.4848 8.95569 51.0748 9.54199 51.753 8.74173C52.3367 8.06652 51.8586 6.51879 51.9781 5.38231C52.0977 4.24583 51.6196 4.01798 50.5883 4.02354C43.0835 4.07911 35.5786 4.06244 28.0737 4.06244H28.0599ZM57.9931 23.8466C57.9931 17.5483 57.9931 11.2555 57.9931 4.96829C58.0148 4.46216 57.9671 3.95545 57.8514 3.46225C57.5067 2.28131 56.2142 1.73113 54.616 2.03123C53.4152 2.2563 53.985 3.22606 53.9822 3.82347C53.947 16.2664 53.9405 28.7084 53.9627 41.1495C53.9627 42.0192 53.6236 43.0473 54.1379 43.7142C54.6021 44.3144 55.6222 43.8392 56.381 43.9921C56.4754 43.9964 56.5689 44.0133 56.6589 44.0421C57.9737 44.645 58.0265 43.9281 58.0209 42.8722C57.9737 36.5257 57.9931 30.1876 57.9931 23.8466ZM51.9587 38.5014C49.9574 40.2797 42.2552 48.9603 41.7715 49.9801C46.5718 49.9801 51.3221 50.0162 56.0724 49.9551C57.2343 49.9412 57.9653 49.1215 57.9487 47.9461C57.932 46.7707 57.1898 46.0844 56.003 46.001C55.1691 45.9482 54.3352 45.951 53.5013 45.9788C52.3895 46.0177 51.917 45.512 51.942 44.3894C51.9781 42.5138 51.9587 40.6187 51.9587 38.5014ZM8.04132 54.9984C8.04132 51.5945 8.04132 51.5945 4.80589 51.9724C4.71264 51.9778 4.61981 51.9889 4.52793 52.0058C3.3355 52.3309 2.45715 53.0005 2.13194 54.2454C1.98125 54.7599 1.98268 55.3071 2.13607 55.8208C2.28945 56.3345 2.58824 56.793 2.99639 57.1408C4.35004 58.3995 6.10952 58.2022 7.59659 57.8521C8.63059 57.6104 7.8134 56.1543 8.03576 55.2735C8.04783 55.1822 8.04876 55.0899 8.03854 54.9984H8.04132ZM31.8595 52.8116C32.2904 52.7782 32.4766 52.4226 32.7156 52.1586C36.4329 48.0517 40.1455 43.9402 43.8534 39.824C44.0063 39.6518 44.1536 39.4739 44.3037 39.2989C44.356 39.2528 44.3966 39.195 44.4223 39.1303C44.448 39.0655 44.458 38.9956 44.4515 38.9262C44.445 38.8569 44.4221 38.79 44.3849 38.7312C44.3476 38.6723 44.2969 38.6231 44.237 38.5875C44.1962 38.5491 44.1479 38.5195 44.0952 38.5004C44.0424 38.4814 43.9864 38.4733 43.9304 38.4767C43.8744 38.48 43.8197 38.4948 43.7697 38.5201C43.7197 38.5454 43.6753 38.5806 43.6394 38.6236C43.442 38.8181 43.2586 39.0238 43.0835 39.2294L32.118 51.35C31.8906 51.5787 31.685 51.828 31.5037 52.0947C31.2369 52.517 31.5593 52.6615 31.8568 52.8116H31.8595ZM46.7386 41.0244C46.6191 40.8577 46.5524 40.6604 46.4162 40.591C45.8797 40.3131 45.6824 40.8216 45.4294 41.0994C41.6622 45.2452 37.9051 49.3994 34.1582 53.5618C33.8942 53.8564 33.2521 54.1815 33.8442 54.6733C34.4362 55.1651 34.6475 54.451 34.906 54.1703C38.6473 50.0635 42.3747 45.9445 46.0882 41.8136C46.2994 41.5774 46.4912 41.3217 46.7358 41.0244H46.7386ZM52.0476 34.3556C52.0361 33.94 51.8963 33.5382 51.6474 33.2052C50.9358 32.2883 49.6544 32.2132 48.7205 32.9885C47.478 34.0222 48.751 34.3778 49.2236 34.9558C49.3945 35.1753 49.6024 35.3633 49.8379 35.5115C50.2659 35.7588 50.4994 36.573 51.1637 36.1395C51.4543 35.9463 51.6887 35.6799 51.8434 35.3672C51.9981 35.0544 52.0676 34.7065 52.0448 34.3584L52.0476 34.3556ZM49.3681 38.1596C49.3987 37.7261 49.1235 37.5872 48.9317 37.4066C48.3953 36.9009 47.8199 36.4368 47.3001 35.9144C46.7803 35.392 46.4301 35.4754 45.9464 35.9978C45.4267 36.5535 45.3683 36.9592 46.0048 37.4483C46.5607 37.8706 47.0305 38.3736 47.5586 38.8209C47.8199 39.0404 48.0839 39.4461 48.4898 39.0988C48.8001 38.8045 49.0925 38.4918 49.3653 38.1624L49.3681 38.1596ZM29.6581 57.0185C30.5405 56.8364 31.3861 56.5076 32.1597 56.046C31.6652 55.4061 31.0666 54.8538 30.3891 54.4121C29.9934 55.2309 29.7458 56.1133 29.6581 57.0185Z" fill="#FA8B02"/>
<path d="M19.3071 16.0468C16.4802 11.6871 16.3802 9.2224 18.8262 7.18285C19.7739 6.42229 20.9627 6.02627 22.1774 6.06654C23.392 6.10681 24.552 6.58071 25.4472 7.40236C27.6708 9.49749 27.4512 12.3262 24.63 16.0413C26.3839 15.9829 27.9655 16.3358 29.5054 15.7078C31.1147 15.0437 31.9319 13.7628 31.9597 12.0094C31.9875 10.3422 32.0098 8.675 31.9597 7.00779C31.9291 6.13529 32.3489 6.05748 33.0493 6.04081C33.797 6.02136 34.011 6.31868 33.9916 7.01335C33.9555 8.49438 33.9916 9.97542 33.9916 11.4592C33.9749 15.5967 31.5595 18.0336 27.4429 18.0419C21.7031 18.0419 15.9605 18.028 10.2095 18.0419C7.66619 18.0419 5.95119 19.8425 6.08183 22.2516C6.12051 23.0677 6.41201 23.8516 6.91597 24.4948C7.41993 25.138 8.11144 25.6087 8.89477 25.8417C10.6014 26.3474 10.96 26.1195 11.0378 24.3523C11.0767 23.4131 11.4909 23.0269 12.4137 23.0352C14.7736 23.0547 17.139 23.0713 19.4961 23.0352C20.6496 23.0158 21.1638 23.5354 21.0304 24.6246C20.8859 25.8055 21.3751 26.1195 22.5147 26.0529C24.2686 25.9639 26.0309 26.0139 27.7959 26.0362C31.3927 26.0779 33.961 28.5537 33.9777 31.9631C33.9944 35.4142 31.3704 37.9956 27.7403 38.0151C21.8587 38.0456 15.9771 38.0151 10.0983 38.0373C7.74124 38.0373 6.10407 39.6878 6.07905 41.9274C6.05404 44.1671 7.64674 45.8176 9.97047 45.9593C10.2476 45.9887 10.5272 45.9887 10.8043 45.9593C11.9968 45.7704 12.0829 46.4789 11.9968 47.3681C12.0046 47.5255 11.951 47.6797 11.8473 47.7984C11.7436 47.9171 11.5979 47.9909 11.4409 48.0044C9.17273 48.5157 6.23471 47.2375 4.92275 45.1368C4.28062 44.0818 3.97739 42.8553 4.05393 41.6227C4.13047 40.39 4.58308 39.2105 5.3508 38.2429C6.64887 36.673 8.32495 35.9894 10.354 35.9977C15.9132 36.0255 21.4724 35.9977 27.0315 35.9977C27.589 36.0137 28.1469 35.983 28.6993 35.906C29.6675 35.7443 30.5399 35.2258 31.1445 34.4527C31.7491 33.6796 32.042 32.708 31.9653 31.7297C31.926 30.7669 31.5244 29.8545 30.8411 29.1749C30.1577 28.4954 29.2428 28.0988 28.2796 28.0646C26.1504 27.9813 24.0185 28.0646 21.8865 28.0257C21.1916 28.0257 20.9859 28.3036 21.0526 28.9316C21.0804 29.2983 21.0276 29.6735 21.0526 30.043C21.1583 31.3212 20.7941 32.1576 19.2987 31.9742C19.0686 31.9393 18.8334 31.9807 18.6291 32.0921C18.4248 32.2035 18.2626 32.3788 18.1674 32.5911C18.0062 32.8689 17.8089 33.1274 17.6254 33.3969C16.1217 35.5809 15.8354 35.5948 14.4067 33.3747C13.8508 32.5411 13.4032 31.7603 12.1663 31.9436C11.3603 32.0631 11.0712 31.4574 11.0545 30.6988C11.0295 29.8652 11.3964 28.8288 10.8738 28.2897C10.443 27.8423 9.40899 28.0118 8.65017 27.8312C7.21076 27.5051 5.94512 26.6532 5.10133 25.4427C4.25754 24.2322 3.89646 22.7503 4.08888 21.2874C4.41131 18.3392 6.86012 16.1163 9.95935 16.0579C11.4881 16.0218 13.0169 16.0579 14.5457 16.0579L19.3071 16.0468ZM15.9855 25.0081C13.0419 25.0081 13.0308 25.0081 13.0475 27.9312C13.0475 28.9343 12.625 30.2487 14.4373 30.1542C15.5046 32.0242 16.5608 31.9964 17.606 30.1347C19.3349 30.2848 18.9958 29.0455 18.9958 28.0452C19.0013 25.0081 18.9985 25.0081 15.9855 25.0081ZM24.9885 11.0841C24.9938 10.6854 24.9191 10.2897 24.7688 9.92041C24.6185 9.55107 24.3957 9.21559 24.1136 8.93377C23.8314 8.65195 23.4957 8.4295 23.1261 8.27957C22.7565 8.12964 22.3606 8.05527 21.9618 8.06084C21.563 8.06641 21.1694 8.15181 20.8041 8.31201C20.4389 8.4722 20.1095 8.70394 19.8353 8.99353C19.5611 9.28312 19.3478 9.6247 19.2079 9.99808C19.068 10.3715 19.0044 10.7691 19.0208 11.1675C19.0486 13.132 20.5829 14.0962 21.7392 15.3133C21.8754 15.455 22.0338 15.4411 22.2312 15.3577C23.3486 14.8853 24.9913 12.3679 24.9885 11.0841Z" fill="#FA8B02"/>
<path d="M43.0195 10.6118C43.0195 14.3213 43.2975 14.0379 39.5534 14.0323C35.5925 14.0323 36.0178 14.3658 36.0094 10.42C36.0094 6.72162 35.6814 6.98837 39.4561 6.98837C43.3614 6.99949 43.0251 6.7105 43.0195 10.6118ZM39.3505 11.9483C40.3094 12.1011 41.1294 12.1206 41.0182 10.6673C40.946 9.65868 41.0182 8.85564 39.5951 9.00013C38.7084 9.09739 37.8134 8.89176 37.9996 10.295C38.1219 11.1814 37.7105 12.3345 39.3505 11.9483Z" fill="#FA8B02"/>
<path d="M39.5007 31.977C35.6816 31.9548 36.0123 32.4133 36.0068 28.4926C36.0012 24.5719 35.7121 25.0081 39.5063 25.0081C43.242 25.0081 43.028 24.6163 43.0224 28.5037C43.0169 32.3911 43.2837 31.9548 39.5007 31.977ZM40.9461 28.5509C41.2241 27.4395 40.9211 26.8837 39.5924 26.9421C38.5001 26.9782 37.8608 27.0532 37.9886 28.412C38.0831 29.404 37.9553 30.1987 39.4118 30.0403C40.4263 29.9291 41.3297 30.0347 40.9461 28.5509Z" fill="#FA8B02"/>
<path d="M43.0196 19.5369C43.0363 23.3882 43.2642 23.0436 39.5007 23.0408C35.7371 23.038 36.004 23.4076 36.0067 19.5314C36.0095 15.6551 35.6676 16.0552 39.509 16.0525C43.3504 16.0497 43.0252 15.6523 43.0196 19.5369ZM38.0608 19.4952C37.7996 20.6845 38.2109 21.1013 39.4757 21.0874C40.6709 21.0874 41.0517 20.7818 41.0406 19.548C41.0267 18.3726 40.7626 17.9614 39.5201 17.9975C38.3583 18.0309 37.7301 18.2059 38.0608 19.4952Z" fill="#FA8B02"/>
<path d="M14.9318 46.0038C15.7852 45.8677 16.0798 46.1705 16.0715 46.9763C16.0715 47.7349 15.8574 48.0378 15.0514 48.0322C14.2453 48.0267 13.9729 47.81 13.9979 47.0125C14.0201 46.2928 14.123 45.7815 14.9318 46.0038Z" fill="#FA8B02"/>
<path d="M19.9825 47.0513C20.1548 47.9071 19.6767 48.0016 18.9624 48.0322C18.084 48.0683 18.0479 47.6209 18.0118 46.9402C17.9673 46.1066 18.3509 45.976 19.0708 45.9537C19.9325 45.9287 20.102 46.3344 19.9825 47.0513Z" fill="#FA8B02"/>
<path d="M23.0011 45.9899C23.835 45.8481 23.999 46.2816 24.0129 47.0152C24.0129 47.8155 23.7099 48.0211 22.9538 48.0322C22.1366 48.0322 21.9643 47.7099 21.9532 46.968C21.9421 46.1677 22.2367 45.8676 23.0011 45.9899Z" fill="#FA8B02"/>
<path d="M21.9586 10.0282C22.5479 10.0671 22.9454 10.37 22.9954 10.9452C23.0133 11.0723 23.0032 11.2018 22.9657 11.3247C22.9283 11.4475 22.8644 11.5607 22.7786 11.6562C22.6928 11.7518 22.5872 11.8274 22.469 11.8779C22.3509 11.9283 22.2232 11.9524 22.0948 11.9483C21.9681 11.9721 21.8377 11.9672 21.7132 11.9338C21.5886 11.9003 21.4732 11.8393 21.3755 11.7553C21.2778 11.6712 21.2003 11.5662 21.1487 11.4481C21.0971 11.33 21.0728 11.2018 21.0775 11.073C21.033 10.4839 21.386 10.1588 21.9586 10.0282Z" fill="#FA8B02"/>
</g>
<defs>
<clipPath id="clip0_3_4334">
<rect width="60" height="60" fill="white"/>
</clipPath>
</defs>
</svg>
