<svg width="24" height="24" viewBox="0 0 24 24" fill="none" xmlns="http://www.w3.org/2000/svg">
<path d="M6.51477 2.9502C6.74107 2.94773 6.958 3.02444 7.11438 3.15723C7.2713 3.29055 7.36823 3.48143 7.34778 3.7041C7.32262 3.97108 7.38177 4.17304 7.49036 4.34668C7.60027 4.52241 7.76185 4.67098 7.94446 4.83008L8.19543 5.03516C9.46672 6.00415 10.9344 6.14549 12.4991 5.95996C13.4399 5.85163 14.3864 5.68848 15.3448 5.68848C17.0935 5.6885 18.5337 6.36642 19.7091 7.63867C19.7624 7.69647 19.8242 7.7627 19.8566 7.83691C19.8733 7.87534 19.8834 7.91717 19.88 7.96289C19.8766 8.00855 19.8609 8.05507 19.8312 8.10254C19.7718 8.19735 19.6945 8.24579 19.6066 8.25488C19.5221 8.26354 19.4342 8.23513 19.3527 8.19434C18.3689 7.69862 17.3917 7.829 16.4093 8.23438C16.3634 8.25295 16.317 8.27187 16.2716 8.29199C16.0984 8.36906 15.9317 8.46086 15.7736 8.56543C15.0031 9.07267 13.9779 9.78023 12.9415 10.4316C11.9054 11.0829 10.852 11.6819 10.0245 11.9707C9.22078 12.2517 8.40604 12.3312 7.57825 12.0723C7.52908 12.0568 7.48966 12.0476 7.45911 12.0449C7.42865 12.0422 7.41152 12.0458 7.40149 12.0518C7.39258 12.057 7.3829 12.068 7.37512 12.0938C7.36705 12.1206 7.36227 12.1603 7.3634 12.2168C7.3728 12.7393 7.37123 13.2618 7.3634 13.7832C7.36347 13.8666 7.37541 13.9107 7.39856 13.9385C7.42186 13.9663 7.46547 13.9886 7.55676 14.0049C7.98347 14.0807 8.29177 14.2266 8.49231 14.4697C8.69264 14.7126 8.77935 15.0443 8.77942 15.4775L8.79016 16.7305C8.7927 17.1487 8.79024 17.5672 8.77063 17.9844C8.73026 18.8424 8.85389 19.6521 9.21985 20.4258C9.26896 20.5308 9.30142 20.6215 9.31262 20.6992C9.32386 20.7775 9.31477 20.8478 9.27551 20.9043C9.2366 20.9602 9.17398 20.9949 9.0968 21.0156C9.01967 21.0363 8.92246 21.0449 8.80676 21.0449V21.0439C7.91832 21.0494 7.03343 21.0373 6.14661 21.0498C5.98341 21.0518 5.84406 21.0213 5.75305 20.9385C5.65902 20.8528 5.62873 20.7229 5.65735 20.5566C5.73201 20.1251 5.67669 19.7611 5.52063 19.4453C5.40328 19.2079 5.22769 18.9955 5.00403 18.8008L4.76477 18.6113C4.28 18.2622 4.07574 17.77 4.12708 17.1689C4.13976 17.0182 4.13938 16.8659 4.13684 16.7119C4.13432 16.5587 4.12939 16.4024 4.13293 16.2471V16.2461C4.14528 15.9103 4.28191 15.5909 4.51672 15.3506C4.75161 15.1103 5.06803 14.9663 5.40344 14.9463L5.49329 14.9346C5.57079 14.9192 5.61256 14.8926 5.63782 14.8584C5.67395 14.8095 5.68663 14.7317 5.68665 14.5996C5.68117 11.9392 5.68176 9.27854 5.68176 6.61816V6.26465C5.6802 5.42205 5.67421 3.94664 5.68762 3.70996C5.71276 3.25392 6.06092 2.95519 6.51477 2.9502ZM6.44934 20.0674C6.40491 20.0674 6.36184 20.085 6.3302 20.1162C6.29878 20.1473 6.28016 20.1892 6.27942 20.2334V20.2344C6.27759 20.311 6.29239 20.353 6.31458 20.377C6.33633 20.4003 6.37617 20.4179 6.45422 20.418H7.39368C7.68332 20.418 7.96735 20.4263 8.2511 20.4131C8.28386 20.4114 8.32229 20.4174 8.35364 20.4219C8.38769 20.4267 8.41682 20.4302 8.44153 20.4287C8.46557 20.4272 8.47785 20.4214 8.4845 20.4141C8.49149 20.4062 8.50185 20.3863 8.50012 20.3389C8.49751 20.2707 8.48347 20.2012 8.45032 20.1504C8.41939 20.1032 8.36886 20.0678 8.27844 20.0674H6.44934ZM7.9386 14.8223C7.78082 14.6753 7.60405 14.5833 7.4259 14.6553C7.39251 14.6688 7.3744 14.6875 7.3634 14.708C7.35175 14.7298 7.34627 14.7575 7.34583 14.792C7.34539 14.8266 7.34986 14.8646 7.35559 14.9043C7.36107 14.9422 7.36733 14.9837 7.36926 15.0205L7.37024 15.1582C7.36118 15.2866 7.32287 15.3871 7.24719 15.457C7.14744 15.5492 6.99589 15.5766 6.80872 15.5674C6.38336 15.5503 5.954 15.5619 5.52356 15.5674C5.25321 15.5705 5.06837 15.6333 4.94934 15.7539C4.83017 15.8747 4.76804 16.0627 4.76379 16.3369C4.75918 16.6442 4.77614 16.965 4.75891 17.2783C4.73966 17.6141 4.86941 17.856 5.11438 18.0957C5.21233 18.1911 5.31742 18.2806 5.42395 18.3711C5.53003 18.4612 5.63771 18.5526 5.73938 18.6494C5.94316 18.8435 6.12596 19.0635 6.22864 19.3564C6.23826 19.3841 6.25123 19.4013 6.26477 19.4121C6.2786 19.4231 6.29636 19.4302 6.31848 19.4346C6.34103 19.4391 6.36682 19.4407 6.39563 19.4404C6.40992 19.4403 6.42455 19.4399 6.43958 19.4395C6.45425 19.439 6.46947 19.4385 6.4845 19.4385H6.48547C6.95094 19.4439 7.42547 19.4277 7.89465 19.4434C8.01329 19.4487 8.07195 19.4286 8.10266 19.3955C8.13468 19.3609 8.15127 19.2978 8.14856 19.1816C8.13446 18.5433 8.1427 17.9043 8.1427 17.2676V15.3896C8.14346 15.166 8.09989 14.9713 7.93958 14.8223H7.9386ZM6.51965 3.56836C6.44436 3.56708 6.39414 3.59115 6.36145 3.62695C6.32778 3.6639 6.30696 3.72018 6.30481 3.79395C6.29546 4.07903 6.29894 6.53935 6.30286 6.82812V14.5781C6.30286 14.6143 6.29854 14.6526 6.29504 14.6865C6.2914 14.7219 6.28937 14.7543 6.29114 14.7842C6.2929 14.8136 6.29847 14.8389 6.31067 14.8604C6.31664 14.8709 6.32441 14.8815 6.33508 14.8916L6.3761 14.9209L6.37903 14.9219C6.41445 14.9433 6.45482 14.9547 6.49622 14.9551C6.53783 14.9554 6.57944 14.9449 6.61536 14.9238C6.65114 14.9028 6.68028 14.8723 6.70032 14.8359C6.72041 14.7995 6.73101 14.7584 6.72961 14.7168L6.72864 14.7139V3.80078H6.72961C6.72731 3.72452 6.70774 3.66807 6.6759 3.63086C6.64492 3.59477 6.59579 3.56973 6.51965 3.56836ZM7.41125 5.19434C7.37486 5.22909 7.36407 5.2646 7.36145 5.30078C7.3597 5.32513 7.36137 5.35062 7.36438 5.37891C7.36723 5.40563 7.37118 5.43709 7.37122 5.4668C7.3673 7.31916 7.37691 9.17193 7.36047 11.0234C7.359 11.1659 7.38552 11.256 7.43567 11.3193C7.48648 11.3833 7.56787 11.4278 7.6925 11.4658C8.58927 11.736 9.44403 11.5869 10.2843 11.2168C11.4673 10.691 12.4899 9.91027 13.5626 9.1875C13.7798 9.04087 15.0086 8.29327 15.4972 7.99512C15.5544 7.95007 15.6178 7.91268 15.6847 7.88379C16.4617 7.46848 17.3238 7.24088 18.2032 7.21484C17.5069 6.69455 16.6729 6.38877 15.8029 6.3418H15.8019C14.7292 6.26952 13.6817 6.44631 12.6202 6.58203C10.6938 6.82857 8.89866 6.57158 7.41125 5.19434Z" fill="#333333" stroke="#333333" stroke-width="0.1"/>
</svg>
