<svg width="24" height="24" viewBox="0 0 24 24" fill="none" xmlns="http://www.w3.org/2000/svg">
<path d="M4.39437 9.94009C4.06587 9.90255 3.86956 9.89864 3.68263 9.85484C3.47739 9.80729 3.2961 9.68749 3.17189 9.51733C3.04767 9.34716 2.98882 9.13799 3.00609 8.92802C3.01858 8.71755 3.10793 8.519 3.25715 8.37007C3.40638 8.22113 3.6051 8.13217 3.81559 8.12008C4.23794 8.10522 4.67593 8.01919 5.067 8.29371C5.25393 8.42511 5.24298 8.2155 5.27348 8.12868C5.42521 7.69617 5.55583 7.25974 5.70756 6.82957C5.98053 6.05291 6.47796 5.69548 7.29216 5.69548C10.4332 5.69548 13.5745 5.69548 16.716 5.69548C17.5122 5.69548 18.0105 6.04978 18.2803 6.80376C18.4367 7.24566 18.5838 7.69147 18.7222 8.13963C18.7785 8.32109 18.8301 8.35785 19.0131 8.25148C19.4472 8.00041 19.9275 8.06924 20.3834 8.15919C20.7604 8.2374 21.0037 8.62846 20.9935 9.01953C20.9902 9.2101 20.9245 9.39434 20.8066 9.54406C20.6887 9.69379 20.5249 9.80075 20.3404 9.84859C20.1449 9.89708 19.9384 9.90333 19.6146 9.94401C19.9994 10.3085 20.3185 10.6119 20.6361 10.9107C20.7567 11.0202 20.8517 11.1548 20.9144 11.3051C20.9771 11.4555 21.006 11.6177 20.999 11.7804C20.9896 13.0063 20.9896 14.2316 20.999 15.4565C20.999 15.8217 20.8981 16.133 20.5876 16.3332C20.4139 16.4451 20.3834 16.5835 20.3959 16.7618C20.4882 18.0367 20.1245 18.366 18.8372 18.2956C18.3953 18.2721 17.951 18.2956 17.5075 18.2909C16.8615 18.2846 16.515 17.9452 16.4963 17.3085C16.4728 16.4943 16.4728 16.4943 15.668 16.4943H8.00311C7.5049 16.4943 7.50568 16.4943 7.50333 17.0105C7.50333 17.1537 7.50881 17.2984 7.49707 17.4407C7.45484 17.9241 7.11931 18.2721 6.63673 18.2846C5.9203 18.3034 5.20231 18.3026 4.48588 18.2846C3.98766 18.2729 3.64431 17.91 3.61224 17.4094C3.60325 17.2792 3.60325 17.1486 3.61224 17.0184C3.63414 16.6985 3.61224 16.4239 3.29078 16.2159C3.06162 16.0736 3.00061 15.7959 3.00061 15.5198C3.00531 14.2548 3.00531 12.9904 3.00061 11.7265C2.99559 11.583 3.02141 11.4401 3.07633 11.3075C3.13124 11.1749 3.21398 11.0556 3.31894 10.9576C3.64743 10.644 3.97906 10.3327 4.39437 9.94009ZM11.9576 15.8843C14.5892 15.8843 17.2208 15.8843 19.8524 15.8843C20.3389 15.8843 20.3881 15.8334 20.3897 15.3446C20.3897 14.7056 20.3983 14.0674 20.3897 13.4292C20.3811 12.791 20.5805 12.0823 20.3177 11.5372C20.0549 10.9921 19.4488 10.5885 18.9936 10.1231C18.985 10.1137 18.9748 10.1051 18.967 10.095C18.8442 9.93853 18.6846 9.89473 18.4875 9.89551C14.1598 9.89916 9.83434 9.89916 5.51125 9.89551C5.42131 9.89058 5.33139 9.90562 5.24795 9.93957C5.16451 9.97351 5.08963 10.0255 5.02867 10.0918C4.63761 10.4946 4.24655 10.8935 3.84062 11.2799C3.75961 11.3537 3.69609 11.4447 3.65468 11.5461C3.61328 11.6476 3.59504 11.7571 3.60129 11.8665C3.60989 13.0131 3.60129 14.1597 3.60598 15.3078C3.60598 15.8506 3.64352 15.889 4.18006 15.8897C6.77204 15.8897 9.36454 15.8892 11.9576 15.8882V15.8843ZM5.52846 9.25104C5.555 9.26457 5.58275 9.27557 5.61136 9.28389C9.81713 9.28754 14.0224 9.29275 18.2271 9.29953C18.5094 9.29953 18.4375 9.16266 18.3835 9.01014C18.175 8.38027 17.9651 7.75092 17.7539 7.12208C17.542 6.47761 17.2956 6.29928 16.6097 6.2985C14.8368 6.2985 13.0661 6.2985 11.2974 6.2985C9.96782 6.2985 8.6382 6.30398 7.31327 6.2985C6.91752 6.2985 6.54366 6.39158 6.39662 6.76778C6.0736 7.57963 5.81628 8.42198 5.52846 9.25104ZM5.53784 16.4943C5.33058 16.4943 5.12253 16.4896 4.91214 16.4943C4.08934 16.5162 4.20822 16.3199 4.19023 17.2475C4.18554 17.5604 4.32476 17.6965 4.63761 17.6902C5.10689 17.6816 5.57225 17.6902 6.03997 17.6902C6.92534 17.6902 6.95349 17.6535 6.90031 16.7673C6.89171 16.5671 6.83305 16.4889 6.62891 16.4889C6.26522 16.5022 5.90153 16.4951 5.53784 16.4943ZM18.45 16.4943C18.2427 16.4943 18.0347 16.4896 17.8243 16.4943C16.9999 16.5155 17.1071 16.3207 17.0907 17.2405C17.0852 17.5807 17.2471 17.7004 17.5685 17.6918C18.0378 17.6785 18.5032 17.6918 18.9701 17.6918C19.8133 17.6918 19.7984 17.6918 19.8062 16.8541C19.8062 16.5467 19.6983 16.4748 19.4206 16.492C19.1007 16.51 18.7746 16.4943 18.45 16.4943ZM4.23012 9.29327C4.33805 9.29327 4.41627 9.29953 4.49292 9.29327C4.61962 9.28076 4.79638 9.35506 4.79873 9.11729C4.79873 8.91863 4.75571 8.7536 4.53124 8.71137C4.44266 8.69402 4.35204 8.68955 4.26219 8.69807C4.01582 8.72623 3.63648 8.58467 3.63648 8.99606C3.63648 9.40746 4.01738 9.25808 4.23012 9.29327ZM19.6764 9.29327C19.825 9.29327 19.9415 9.29875 20.0573 9.29327C20.2489 9.28154 20.3787 9.1916 20.3756 8.98042C20.3756 8.78645 20.2364 8.71215 20.0675 8.70198C19.8875 8.69103 19.707 8.69103 19.527 8.70198C19.3127 8.71293 19.2001 8.83651 19.1985 9.05238C19.1946 9.50054 19.5489 9.19394 19.6764 9.29327Z" fill="#333333" stroke="#333333" stroke-width="0.2"/>
<path d="M11.9952 11.6968C13.0245 11.6968 14.053 11.6968 15.0815 11.6968C15.4186 11.6968 15.7119 11.7609 15.8409 12.1144C15.97 12.4679 15.7713 12.7096 15.5281 12.963C14.8922 13.6317 14.1546 13.8844 13.2231 13.8163C12.1477 13.7381 11.0621 13.7882 9.98198 13.803C9.81352 13.8126 9.64494 13.7867 9.48707 13.7272C9.3292 13.6676 9.18554 13.5757 9.06532 13.4573C8.85962 13.2587 8.62811 13.0874 8.40599 12.9098C8.15023 12.7002 8.02744 12.4406 8.14788 12.1175C8.26364 11.8047 8.51392 11.7022 8.82912 11.7022C9.88708 11.7007 10.9424 11.6988 11.9952 11.6968ZM8.76264 12.3287C9.2413 12.9685 9.66365 13.1891 10.3582 13.1891C11.4242 13.1891 12.495 13.1281 13.5547 13.2094C14.3369 13.2696 14.76 12.8246 15.2848 12.3248L8.76264 12.3287Z" fill="#333333" stroke="#333333" stroke-width="0.2"/>
<path d="M5.94996 13.7937C5.58627 13.7937 5.2218 13.8038 4.85498 13.7937C4.42481 13.7796 4.19878 13.5653 4.19252 13.1406C4.18 11.8939 4.08224 11.7179 5.55186 11.6663C6.52404 11.6334 7.0379 12.2216 7.64093 12.7464C7.8302 12.9106 7.83411 13.1703 7.73869 13.4018C7.69504 13.5195 7.61557 13.6206 7.51145 13.6907C7.40734 13.7609 7.28384 13.7966 7.15835 13.7929C6.75556 13.8007 6.35276 13.7929 5.94996 13.7929V13.7937ZM7.17087 13.1906C6.64215 12.4953 6.03678 12.1543 5.21945 12.2982C5.08649 12.3217 4.88627 12.2302 4.83543 12.3921C4.7687 12.6304 4.77005 12.8827 4.83934 13.1202C4.84872 13.1562 4.94884 13.1867 5.00671 13.1875C5.70437 13.1922 6.40282 13.1906 7.17087 13.1906Z" fill="#333333" stroke="#333333" stroke-width="0.2"/>
<path d="M18.0003 13.7944H16.9053C16.587 13.7944 16.3406 13.6685 16.2382 13.3596C16.1357 13.0506 16.2382 12.8003 16.4884 12.5986C16.77 12.3639 17.0508 12.1363 17.3269 11.9001C17.4851 11.7622 17.6896 11.6893 17.8994 11.696C18.303 11.696 18.7058 11.6905 19.1086 11.696C19.5778 11.7061 19.7867 11.9236 19.7992 12.3999C19.8054 12.6205 19.8047 12.8418 19.7992 13.0624C19.7882 13.5629 19.5802 13.778 19.0882 13.789C18.7285 13.8015 18.364 13.7952 18.0003 13.7944ZM16.8388 13.193H18.6815C19.2024 13.193 19.2056 13.193 19.1907 12.6549C19.1868 12.5141 19.254 12.3342 19.0069 12.3006C18.1419 12.1872 17.3981 12.3655 16.8388 13.193Z" fill="#333333" stroke="#333333" stroke-width="0.2"/>
<path d="M11.9834 14.69C12.8307 14.69 13.6777 14.69 14.5245 14.69C14.7443 14.69 14.975 14.6962 14.9797 14.9856C14.9844 15.275 14.7513 15.2914 14.5331 15.2914C12.839 15.2914 11.1444 15.2914 9.44926 15.2914C9.22714 15.2914 9.00189 15.2648 9.01283 14.9786C9.02222 14.7181 9.22948 14.6931 9.44066 14.6939C10.2901 14.69 11.1348 14.69 11.9834 14.69Z" fill="#333333" stroke="#333333" stroke-width="0.2"/>
<path d="M5.85617 14.69C6.17997 14.69 6.50377 14.69 6.82836 14.69C7.0411 14.69 7.19361 14.7784 7.19048 15.0028C7.19048 15.207 7.03406 15.2891 6.84322 15.2899C6.18206 15.293 5.5209 15.293 4.85974 15.2899C4.66968 15.2899 4.51717 15.2046 4.51795 14.9981C4.51795 14.7737 4.67437 14.6908 4.88398 14.6923C5.20779 14.69 5.53159 14.69 5.85617 14.69Z" fill="#333333" stroke="#333333" stroke-width="0.2"/>
<path d="M18.1622 14.69C18.486 14.69 18.8098 14.69 19.1344 14.69C19.3323 14.69 19.4699 14.7799 19.4785 14.9786C19.4871 15.1772 19.3456 15.2836 19.1524 15.2852C18.4782 15.2899 17.804 15.2899 17.1298 15.2852C16.9366 15.2852 16.7943 15.1804 16.8037 14.9778C16.813 14.7752 16.9523 14.69 17.1509 14.6908C17.488 14.69 17.8251 14.69 18.1622 14.69Z" fill="#333333" stroke="#333333" stroke-width="0.2"/>
</svg>
