<svg width="60" height="60" viewBox="0 0 60 60" fill="none" xmlns="http://www.w3.org/2000/svg">
<g clip-path="url(#clip0_3_4348)">
<path d="M40.3272 58.0564C41.1646 56.8381 41.9342 55.7999 42.6124 54.7042C42.8402 54.2826 43.187 53.9374 43.6096 53.7115C44.0322 53.4856 44.5119 53.389 44.989 53.4338C45.9438 53.4729 46.9038 53.3608 47.8585 53.4155C49.0246 53.4808 48.9568 53.0425 48.4742 52.2468C47.9342 51.3573 47.4724 50.4208 46.9742 49.5025C46.6664 48.939 46.6011 48.3834 47.2533 48.0547C47.8559 47.7495 48.2368 48.1616 48.5055 48.6521C49.2333 49.9877 49.9872 51.3103 50.6577 52.6747C51.2577 53.8929 50.6238 54.9338 49.2333 55.0486C48.1529 55.174 47.0642 55.2124 45.9777 55.1634C44.7698 55.0668 44.0394 55.5625 43.4759 56.5616C43.0507 57.3155 42.5264 58.0173 42.0281 58.7268C40.8151 60.4512 39.5864 60.399 38.5794 58.5573C36.6829 55.0877 34.7838 51.6181 32.9394 48.1225C32.4829 47.2538 32.089 46.706 31.0038 47.246C30.6848 47.3966 30.336 47.4734 29.9833 47.4707C29.6306 47.468 29.283 47.3858 28.9664 47.2303C27.9438 46.7295 27.5629 47.2068 27.1194 48.0521C25.2933 51.5138 23.4151 54.9416 21.5498 58.3773C20.4229 60.4642 19.0064 60.6312 17.9472 58.5468C16.5385 55.7764 14.5246 54.8242 11.5142 55.0355C9.13506 55.2025 8.58984 54.0573 9.74289 51.9338C11.482 48.7251 13.2211 45.5164 14.9603 42.3077C15.7559 40.8364 15.529 39.7851 14.1125 38.799C13.3815 38.3284 12.6158 37.9142 11.822 37.5599C9.77158 36.5608 8.62115 34.9721 8.91593 32.6634C9.21854 30.2738 8.62375 28.2468 7.18636 26.3321C5.89767 24.6181 5.91332 22.7164 7.20723 21.0051C7.90718 20.1197 8.41962 19.101 8.71337 18.0112C9.00713 16.9214 9.07604 15.7833 8.91593 14.666C8.63941 12.4225 9.69854 10.7712 11.7594 9.88684C13.7733 9.02337 15.2472 7.72945 16.0872 5.65032C17.0394 3.3025 18.9098 2.27467 21.4038 2.62163C22.3694 2.77076 23.3555 2.71645 24.2989 2.46218C25.2423 2.20792 26.1221 1.7593 26.882 1.1451C28.9298 -0.420113 31.082 -0.420113 33.1246 1.1451C33.9056 1.76733 34.8078 2.21979 35.7735 2.47358C36.7393 2.72737 37.7473 2.7769 38.7333 2.61902C41.1151 2.30597 42.9333 3.28423 43.8568 5.53815C44.7177 7.64076 46.1759 9.01293 48.2472 9.88945C50.3185 10.766 51.3777 12.4251 51.0933 14.666C50.9349 15.7826 51.0044 16.9198 51.2976 18.0089C51.5908 19.098 52.1017 20.1163 52.7994 21.0025C54.1272 22.7712 54.0777 24.6912 52.7577 26.4442C51.3751 28.2703 50.7933 30.2321 51.0933 32.5329C51.4116 34.9486 50.2324 36.5921 48.0751 37.6277C46.8751 38.2042 45.5942 38.6712 44.8533 39.9468C44.4646 40.6173 44.3577 41.1651 44.7907 41.8564C45.3438 42.7381 45.8003 43.6825 46.2907 44.6008C46.5907 45.1616 46.6507 45.7329 45.9907 46.046C45.3933 46.3303 45.0203 45.9208 44.7464 45.4251C44.6629 45.2738 44.5846 45.1173 44.4855 44.966C44.1385 44.366 43.9246 43.5103 43.4029 43.2364C42.8029 42.9234 42.4872 43.9225 41.942 44.2173C40.6377 44.9268 39.2498 44.8225 37.8646 44.739C36.6307 44.666 35.4307 44.6764 34.3533 45.4147C33.9646 45.6755 33.6542 45.8842 33.9594 46.4373C36.0672 50.2408 38.1411 54.0521 40.3272 58.0564ZM22.1603 4.42423C19.5516 3.76684 18.0829 4.96945 17.2038 7.2938C16.4838 9.20597 14.9942 10.3773 13.1525 11.1129C11.2429 11.8773 10.3611 13.1816 10.682 15.2868C10.8651 16.3581 10.8119 17.4564 10.5262 18.5049C10.2406 19.5535 9.72926 20.527 9.0281 21.3573C7.77854 22.886 7.7681 24.4564 9.01506 25.9825C9.7212 26.8139 10.237 27.7897 10.5263 28.8415C10.8156 29.8933 10.8714 30.9956 10.6898 32.0712C10.3794 34.1581 11.1855 35.4808 13.142 36.2451C14.1295 36.5974 15.0266 37.1643 15.7686 37.905C16.5107 38.6457 17.0792 39.5417 17.4333 40.5286C18.1611 42.4877 19.5203 43.3121 21.6072 42.9964C22.6602 42.8106 23.741 42.8575 24.7739 43.1337C25.8068 43.41 26.7668 43.9089 27.5864 44.5955C29.1933 45.8999 30.8264 45.9208 32.4411 44.6086C33.2588 43.92 34.2173 43.4186 35.2493 43.1396C36.2813 42.8607 37.3618 42.8109 38.4151 42.9938C40.4759 43.3095 41.8559 42.5164 42.589 40.5495C42.9417 39.5619 43.5088 38.6648 44.2494 37.9224C44.99 37.1799 45.8858 36.6107 46.8724 36.2555C48.8159 35.5068 49.6559 34.1895 49.3429 32.1025C49.1595 31.0268 49.2134 29.9241 49.5009 28.8714C49.7884 27.8188 50.3025 26.8417 51.0072 26.0086C52.249 24.4903 52.2698 22.9199 51.0072 21.386C50.2999 20.5547 49.7835 19.5785 49.4941 18.5261C49.2047 17.4737 49.1496 16.3707 49.3324 15.2947C49.6507 13.2077 48.8107 11.8642 46.8829 11.1208C45.8794 10.7506 44.9693 10.1649 44.2166 9.40503C43.4639 8.64513 42.887 7.72946 42.5264 6.7225C41.8272 4.89641 40.5385 4.07989 38.5611 4.37467C36.2525 4.69554 34.1446 4.19206 32.3185 2.7051C30.722 1.40076 29.1881 1.51815 27.5916 2.75989C25.9951 4.00163 24.2316 4.73467 22.1603 4.42423ZM19.6951 58.0486C21.8681 54.0703 23.9185 50.2981 25.9951 46.5416C26.3055 45.9755 26.1098 45.7225 25.6403 45.4042C24.3359 44.5225 22.9038 44.7051 21.4664 44.7781C19.8672 44.8564 18.3072 44.7781 17.1777 43.4242C16.7107 42.8634 16.4942 43.1634 16.2542 43.5964C14.6159 46.6103 12.9794 49.6208 11.3446 52.6277C11.0368 53.1938 11.1751 53.4103 11.809 53.4103C12.8942 53.4103 13.982 53.4834 15.0646 53.4442C16.1472 53.4051 16.862 53.8408 17.4124 54.7486C18.0855 55.7921 18.8342 56.8016 19.6951 58.0486Z" fill="#FA8B02"/>
<path d="M30.1717 5.50162C34.9456 5.5688 39.5021 7.50915 42.8588 10.9044C46.2155 14.2997 48.1037 18.878 48.1164 23.6524C48.129 28.4269 46.2652 33.0151 42.9265 36.4281C39.5878 39.8412 35.0417 41.8056 30.2682 41.8981C16.9638 42.1303 7.83339 28.0042 13.5204 15.9938C13.669 15.6781 13.8256 15.3677 14.0004 15.0677C14.3447 14.4729 14.6656 13.6538 15.5447 14.1625C16.343 14.6242 15.8421 15.2894 15.5447 15.8634C13.249 20.366 12.9047 24.9938 14.7412 29.7234C17.3499 36.4799 24.3934 40.7764 31.6377 40.0486C38.8821 39.3208 44.9421 33.7094 46.1708 26.5903C47.4047 19.4294 44.0473 12.5999 37.5621 9.11206C31.5986 5.89032 23.9212 6.94945 18.7795 11.6947C18.5645 11.9099 18.3353 12.1103 18.0934 12.2947C17.9257 12.4177 17.7185 12.4745 17.5115 12.4544C17.3045 12.4342 17.1122 12.3384 16.9714 12.1853C16.8306 12.0323 16.7512 11.8327 16.7483 11.6247C16.7455 11.4167 16.8194 11.215 16.956 11.0581C17.4615 10.5205 18.0027 10.0176 18.576 9.55293C21.9673 6.80336 25.8412 5.4938 30.1717 5.50162Z" fill="#FA8B02"/>
<path d="M21.3776 33.4069C21.6542 31.7243 21.9176 29.919 22.2568 28.1243C22.3337 27.8338 22.3254 27.5273 22.2329 27.2415C22.1404 26.9556 21.9676 26.7024 21.735 26.5121C20.5533 25.4217 19.4263 24.2738 18.2629 23.1651C17.5116 22.4503 17.0994 21.6416 17.4594 20.5982C17.8063 19.6043 18.6072 19.2625 19.5776 19.1347C21.0829 18.9364 22.5802 18.6495 24.0907 18.4903C24.962 18.399 25.5046 18.0651 25.8698 17.2408C26.5194 15.7721 27.2759 14.353 27.9829 12.9077C28.4002 12.0573 29.0602 11.5121 30.015 11.5121C30.9698 11.5121 31.6298 12.0573 32.0472 12.9103C32.7542 14.353 33.5133 15.7799 34.1602 17.2434C34.5255 18.073 35.0759 18.3912 35.942 18.4877C37.5359 18.6651 39.1194 18.9547 40.7107 19.1817C41.6029 19.3069 42.2759 19.7321 42.5681 20.6008C42.8889 21.5217 42.6229 22.3147 41.9446 22.9773C40.7342 24.1643 39.5342 25.3617 38.2924 26.5173C38.0599 26.7076 37.887 26.9608 37.7945 27.2467C37.702 27.5326 37.6937 27.839 37.7707 28.1295C38.0733 29.6634 38.2924 31.2156 38.5533 32.7547C38.7385 33.7982 38.715 34.7712 37.7707 35.4521C36.8681 36.0886 35.9655 35.8695 35.0707 35.3869C33.6542 34.6251 32.2168 33.9051 30.8107 33.1251C30.5767 32.9767 30.3052 32.8978 30.0281 32.8978C29.7509 32.8978 29.4795 32.9767 29.2455 33.1251C27.7246 33.9599 26.1985 34.7973 24.6281 35.5434C22.8933 36.3599 21.3307 35.3451 21.3776 33.4069ZM23.2037 33.1277C23.0342 34.1399 23.4646 34.1712 24.2159 33.7721C25.6716 32.9895 27.1533 32.2643 28.5959 31.4608C29.0224 31.1973 29.5137 31.0577 30.015 31.0577C30.5163 31.0577 31.0077 31.1973 31.4342 31.4608C32.762 32.199 34.1159 32.8903 35.4698 33.5843C35.8429 33.7747 36.2524 34.2156 36.6489 33.939C37.1002 33.6208 36.7976 33.0443 36.7298 32.5982C36.5029 31.0956 36.2498 29.5956 35.9472 28.1034C35.8342 27.6376 35.8526 27.1495 36.0005 26.6936C36.1483 26.2376 36.4197 25.8316 36.7846 25.5208C38.0211 24.3625 39.2185 23.173 40.4368 21.9703C40.6507 21.7617 40.9585 21.5425 40.8307 21.2086C40.7029 20.8747 40.3585 20.8799 40.0481 20.8356C38.4176 20.593 36.7898 20.293 35.1516 20.113C33.9829 19.9851 33.2602 19.4295 32.7802 18.373C32.0968 16.8703 31.3272 15.4095 30.5889 13.9382C30.4585 13.6773 30.3776 13.3251 29.9968 13.3303C29.6159 13.3356 29.5429 13.6851 29.4124 13.9486C28.6298 15.5138 27.8602 17.0608 27.1063 18.626C26.9338 19.0264 26.6568 19.373 26.3043 19.6295C25.9518 19.8861 25.5369 20.0431 25.1029 20.0843C23.4307 20.3138 21.7585 20.5747 20.0837 20.8356C19.742 20.8851 19.3168 20.8356 19.1889 21.2295C19.0611 21.6234 19.4498 21.8425 19.682 22.0799C20.7646 23.1495 21.8211 24.2477 22.9559 25.2573C23.9316 26.1234 24.3072 27.0834 24.0281 28.3877C23.6889 29.9477 23.4724 31.5443 23.2037 33.1277Z" fill="#FA8B02"/>
</g>
<defs>
<clipPath id="clip0_3_4348">
<rect width="60" height="60" fill="white"/>
</clipPath>
</defs>
</svg>
