<svg width="44" height="44" viewBox="0 0 44 44" fill="none" xmlns="http://www.w3.org/2000/svg">
<path fill-rule="evenodd" clip-rule="evenodd" d="M0 21.875C0 9.79492 9.79492 0 21.875 0C33.9551 0 43.75 9.79492 43.75 21.875C43.75 33.9551 33.9551 43.75 21.875 43.75C9.79492 43.75 0 33.9551 0 21.875ZM21.875 10.875C18.887 10.875 18.513 10.887 17.34 10.941H17.339C16.169 10.995 15.369 11.181 14.669 11.452C13.9355 11.7284 13.271 12.1615 12.722 12.721C12.1621 13.2703 11.7287 13.9351 11.452 14.669C11.181 15.369 10.994 16.169 10.941 17.341C10.888 18.513 10.875 18.887 10.875 21.875C10.875 24.862 10.887 25.236 10.941 26.411C10.995 27.581 11.181 28.381 11.452 29.081C11.7283 29.8149 12.1614 30.4797 12.721 31.029C13.2708 31.5883 13.9359 32.021 14.67 32.297C15.37 32.569 16.17 32.756 17.34 32.809C18.513 32.862 18.887 32.875 21.875 32.875C24.863 32.875 25.237 32.863 26.411 32.809C27.581 32.755 28.381 32.569 29.081 32.297C29.814 32.021 30.479 31.589 31.029 31.029C31.5883 30.4792 32.021 29.8141 32.297 29.08C32.569 28.38 32.756 27.58 32.809 26.41C32.862 25.237 32.875 24.863 32.875 21.875C32.875 18.888 32.863 18.514 32.809 17.339C32.755 16.169 32.569 15.369 32.297 14.669C32.021 13.935 31.589 13.271 31.029 12.722C30.479 12.162 29.814 11.729 29.081 11.452C28.381 11.181 27.581 10.994 26.409 10.941C25.237 10.888 24.863 10.875 21.875 10.875ZM21.875 12.857C24.812 12.857 25.16 12.868 26.32 12.921C27.393 12.97 27.975 13.149 28.363 13.3C28.8407 13.4762 29.2729 13.7571 29.628 14.122C30.013 14.507 30.25 14.874 30.45 15.387C30.601 15.775 30.78 16.357 30.829 17.43C30.882 18.59 30.893 18.938 30.893 21.875C30.893 24.812 30.882 25.16 30.829 26.32C30.78 27.393 30.601 27.975 30.45 28.363C30.274 28.84 29.993 29.273 29.628 29.628C29.243 30.013 28.876 30.25 28.363 30.45C27.975 30.601 27.393 30.78 26.32 30.829C25.16 30.882 24.813 30.893 21.875 30.893C18.937 30.893 18.59 30.882 17.43 30.829C16.357 30.78 15.775 30.601 15.387 30.45C14.91 30.274 14.477 29.993 14.122 29.628C13.757 29.273 13.476 28.84 13.3 28.363C13.149 27.975 12.97 27.393 12.921 26.32C12.868 25.16 12.857 24.812 12.857 21.875C12.857 18.938 12.868 18.59 12.921 17.43C12.97 16.357 13.149 15.775 13.3 15.387C13.4762 14.9093 13.757 14.4771 14.122 14.122C14.507 13.737 14.874 13.5 15.387 13.3C15.775 13.149 16.357 12.97 17.43 12.921C18.59 12.868 18.938 12.857 21.875 12.857ZM22.9419 25.3907C22.1284 25.6367 21.2547 25.5926 20.47 25.266C19.9688 25.0582 19.52 24.7418 19.1557 24.3397C18.7915 23.9376 18.5209 23.4597 18.3635 22.9405C18.2062 22.4213 18.1658 21.8736 18.2455 21.337C18.3252 20.8003 18.5229 20.288 18.8243 19.8369C19.1257 19.3857 19.5235 19.0071 19.9888 18.7281C20.4542 18.4492 20.9756 18.2769 21.5155 18.2236C22.0554 18.1704 22.6005 18.2375 23.1113 18.4201C23.6222 18.6028 24.0862 18.8965 24.47 19.28C25.072 19.88 25.447 20.6703 25.531 21.5161C25.6151 22.3619 25.4028 23.2106 24.9306 23.9172C24.4584 24.6239 23.7555 25.1447 22.9419 25.3907ZM19.7113 16.6514C19.0253 16.9355 18.402 17.352 17.877 17.877C16.8167 18.9373 16.221 20.3755 16.221 21.875C16.221 23.3745 16.8167 24.8127 17.877 25.873C18.9373 26.9333 20.3755 27.529 21.875 27.529C23.3745 27.529 24.8127 26.9333 25.873 25.873C26.398 25.348 26.8145 24.7247 27.0986 24.0387C27.3828 23.3527 27.529 22.6175 27.529 21.875C27.529 21.1325 27.3828 20.3973 27.0986 19.7113C26.8145 19.0253 26.398 18.402 25.873 17.877C25.348 17.352 24.7247 16.9355 24.0387 16.6514C23.3527 16.3672 22.6175 16.221 21.875 16.221C21.1325 16.221 20.3973 16.3672 19.7113 16.6514ZM29.0893 16.629C29.0173 16.7927 28.9131 16.9403 28.783 17.063C28.53 17.3017 28.1939 17.4324 27.8461 17.4273C27.4983 17.4222 27.1661 17.2818 26.9202 17.0358C26.6742 16.7899 26.5338 16.4577 26.5287 16.1099C26.5236 15.7621 26.6543 15.426 26.893 15.173C27.0157 15.0429 27.1633 14.9387 27.327 14.8667C27.4907 14.7947 27.6672 14.7562 27.8461 14.7536C28.0249 14.751 28.2025 14.7843 28.3682 14.8515C28.5339 14.9188 28.6845 15.0186 28.811 15.145C28.9374 15.2715 29.0372 15.4221 29.1045 15.5878C29.1717 15.7535 29.205 15.9311 29.2024 16.1099C29.1998 16.2888 29.1613 16.4653 29.0893 16.629Z" fill="#FA8B02"/>
</svg>
