<svg width="24" height="24" viewBox="0 0 24 24" fill="none" xmlns="http://www.w3.org/2000/svg">
<g opacity="0.8" clip-path="url(#clip0_1_1661)">
<mask id="path-1-outside-1_1_1661" maskUnits="userSpaceOnUse" x="-1" y="2.23486" width="26" height="19" fill="black">
<rect fill="white" x="-1" y="2.23486" width="26" height="19"/>
<path d="M12.0058 20.7615C8.25794 20.7615 4.50975 20.7615 0.761204 20.7615C0.0126166 20.7615 0 20.7479 0 19.9961V5.70356C0 4.98757 0.0178736 4.96759 0.735971 4.96759C5.20226 4.96759 9.6689 4.9697 14.1359 4.9739C14.4955 4.9739 14.7394 4.88979 14.977 4.59645C15.3301 4.17046 15.7728 3.82758 16.2735 3.59223C16.7743 3.35688 17.3208 3.23486 17.8741 3.23486C18.4274 3.23486 18.9739 3.35688 19.4747 3.59223C19.9754 3.82758 20.4181 4.17046 20.7712 4.59645C20.9962 4.86876 21.2149 4.98967 21.5639 4.976C22.1948 4.95287 22.8256 4.976 23.4564 4.96759C23.8223 4.96128 24 5.0885 24 5.48487C23.993 10.4075 23.993 15.3294 24 20.2505C24 20.7489 23.7109 20.7657 23.3481 20.7647C20.7898 20.7605 18.2314 20.7605 15.673 20.7647L12.0058 20.7615ZM14.896 10.0227C14.9129 9.92383 14.9244 9.9028 14.9181 9.89018C14.8487 9.7493 14.7762 9.61052 14.7078 9.46963C14.1822 8.40563 13.9014 7.29536 14.2095 6.11781C14.3251 5.67623 14.1822 5.62786 13.7994 5.62997C11.3841 5.64258 8.96833 5.64258 6.55224 5.62997C6.14325 5.62997 6.01498 5.73511 6.01814 6.15566C6.03706 8.79884 6.02655 11.4431 6.03075 14.0863C6.03075 14.2156 5.97188 14.368 6.11697 14.4763C6.34091 14.3996 6.486 14.2177 6.65317 14.0694C8.05467 12.8267 9.46248 11.5861 10.8482 10.3307C10.9595 10.2235 11.0915 10.1403 11.2361 10.086C11.3808 10.0318 11.535 10.0077 11.6893 10.0153C12.7586 10.0353 13.8257 10.0227 14.896 10.0227ZM0.647654 10.3381C0.647654 11.7553 0.656065 13.1768 0.640294 14.5899C0.640294 14.9242 0.721251 15.0504 1.07662 15.0451C2.37088 15.0262 3.66618 15.0283 4.96149 15.0451C5.28953 15.0451 5.37469 14.94 5.37364 14.6246C5.36452 11.7725 5.36452 8.9201 5.37364 6.06734C5.37364 5.75193 5.29478 5.63417 4.9657 5.63838C3.67039 5.6531 2.37543 5.6531 1.08083 5.63838C0.735971 5.63838 0.636089 5.74877 0.640294 6.09047C0.657117 7.49828 0.647654 8.91239 0.647654 10.3339V10.3381ZM10.9681 11.1203L6.15587 15.39C6.02129 15.5098 6.02655 15.6676 6.02655 15.8253C6.02655 17.1037 6.03601 18.3812 6.02024 19.6586C6.02024 20.0066 6.13379 20.1065 6.47549 20.1023C7.82337 20.0855 9.17125 20.0823 10.5191 20.1023C10.9071 20.1086 10.9817 19.9604 10.9754 19.6134C10.9554 18.6861 10.9681 17.7588 10.9681 16.8304V11.1203ZM23.3555 13.7225C23.3555 12.8477 23.3471 11.973 23.3608 11.094C23.3608 10.8059 23.2766 10.685 22.9749 10.6903C22.1874 10.704 21.3978 10.7019 20.6135 10.6903C20.5097 10.687 20.4069 10.7114 20.3156 10.7609C20.2244 10.8104 20.1479 10.8833 20.0941 10.9721C19.6137 11.6183 19.0683 12.2137 18.4666 12.7489C18.3215 12.8793 18.2048 13.0065 18.2069 13.2315C18.2174 14.2829 18.2174 15.3325 18.2069 16.3804C18.2069 16.658 18.312 16.74 18.5738 16.7389C20.0457 16.7291 21.5152 16.7291 22.9823 16.7389C23.2903 16.7389 23.366 16.6264 23.3608 16.3404C23.3471 15.4709 23.3555 14.5962 23.3555 13.7225ZM17.9009 3.90569C17.4351 3.90282 16.9744 4.00355 16.5523 4.2006C16.1302 4.39764 15.7571 4.68607 15.4602 5.04501C15.1632 5.40395 14.9498 5.82442 14.8353 6.27599C14.7208 6.72756 14.7082 7.19893 14.7983 7.65599C15.1694 9.54323 16.3491 10.91 17.6633 12.2043C17.8914 12.4282 18.026 12.2726 18.1837 12.1212C19.0181 11.3436 19.7334 10.4473 20.3065 9.46122C20.6783 8.82383 20.9145 8.11656 21.0004 7.38368C21.0493 6.94694 21.0056 6.5048 20.8723 6.08605C20.7389 5.6673 20.5189 5.28132 20.2265 4.95323C19.9342 4.62514 19.576 4.3623 19.1753 4.18181C18.7746 4.00133 18.3404 3.90725 17.9009 3.90569ZM13.831 10.6998C13.0729 10.6998 12.5693 10.7082 12.0584 10.6998C11.786 10.6998 11.6378 10.7628 11.6378 11.0772C11.6494 12.056 11.6441 13.0349 11.6378 14.0148C11.6378 14.2314 11.703 14.367 11.9227 14.45C13.6891 15.1138 15.4529 15.785 17.2144 16.4635C17.5413 16.5896 17.5624 16.4382 17.5582 16.1838C17.5497 15.677 17.5066 15.1639 17.5655 14.6635C17.6938 13.5711 17.3258 12.7899 16.5551 11.953C15.6898 11.0047 14.8918 10.3686 13.831 10.6998ZM14.5764 20.097C15.4344 20.097 16.2912 20.0844 17.1481 20.097C17.473 20.1044 17.5687 19.9919 17.5687 19.6765C17.5487 18.9941 17.5571 18.3097 17.5687 17.6294C17.5687 17.4108 17.515 17.273 17.2943 17.19C15.5419 16.5304 13.7931 15.8645 12.0478 15.1923C11.7482 15.0767 11.642 15.1366 11.6441 15.4688C11.6546 16.8682 11.6588 18.2676 11.6441 19.667C11.6441 20.035 11.8018 20.1002 12.1193 20.0949C12.9321 20.0855 13.7542 20.096 14.5764 20.096V20.097ZM3.01853 15.6812C2.35511 15.6812 1.69063 15.6949 1.0272 15.6749C0.726508 15.6665 0.638192 15.7685 0.641346 16.0639C0.655014 17.2867 0.652911 18.5105 0.641346 19.7333C0.641346 20.0024 0.726508 20.1023 1.00197 20.1002C2.33022 20.0904 3.65847 20.0904 4.98673 20.1002C5.28953 20.1002 5.37364 19.9951 5.37048 19.7017C5.35927 18.4793 5.35927 17.2562 5.37048 16.0324C5.37048 15.7548 5.28006 15.6697 5.00881 15.6749C4.34748 15.6907 3.67985 15.6802 3.01853 15.6802V15.6812ZM20.727 20.097C21.4798 20.097 22.2326 20.0907 22.9844 20.097C23.243 20.097 23.3671 20.0298 23.3608 19.7438C23.345 19.0793 23.3471 18.4138 23.3608 17.7461C23.3608 17.4738 23.2693 17.3803 22.997 17.3813C21.525 17.3911 20.0552 17.3911 18.5875 17.3813C18.3299 17.3813 18.2016 17.4486 18.2079 17.7346C18.2219 18.3991 18.2219 19.0649 18.2079 19.7322C18.2079 20.0066 18.3131 20.1002 18.577 20.096C19.2929 20.0876 20.01 20.0949 20.727 20.0949V20.097ZM23.3555 7.83472V7.09875C23.3555 5.52167 23.3555 5.52167 21.7784 5.63627C21.7427 5.63627 21.708 5.63627 21.6733 5.63627C21.5187 5.63627 21.4462 5.6962 21.4988 5.86548C21.9193 7.23228 21.5671 8.49394 20.9194 9.70093C20.7649 9.99007 20.9016 10.0227 21.1444 10.0164C21.7574 10.0164 22.3704 10.0006 22.9833 10.0164C23.2987 10.0269 23.3608 9.88388 23.3545 9.60736C23.346 9.02384 23.3566 8.42876 23.3566 7.83262L23.3555 7.83472Z"/>
</mask>
<path d="M12.0058 20.7615C8.25794 20.7615 4.50975 20.7615 0.761204 20.7615C0.0126166 20.7615 0 20.7479 0 19.9961V5.70356C0 4.98757 0.0178736 4.96759 0.735971 4.96759C5.20226 4.96759 9.6689 4.9697 14.1359 4.9739C14.4955 4.9739 14.7394 4.88979 14.977 4.59645C15.3301 4.17046 15.7728 3.82758 16.2735 3.59223C16.7743 3.35688 17.3208 3.23486 17.8741 3.23486C18.4274 3.23486 18.9739 3.35688 19.4747 3.59223C19.9754 3.82758 20.4181 4.17046 20.7712 4.59645C20.9962 4.86876 21.2149 4.98967 21.5639 4.976C22.1948 4.95287 22.8256 4.976 23.4564 4.96759C23.8223 4.96128 24 5.0885 24 5.48487C23.993 10.4075 23.993 15.3294 24 20.2505C24 20.7489 23.7109 20.7657 23.3481 20.7647C20.7898 20.7605 18.2314 20.7605 15.673 20.7647L12.0058 20.7615ZM14.896 10.0227C14.9129 9.92383 14.9244 9.9028 14.9181 9.89018C14.8487 9.7493 14.7762 9.61052 14.7078 9.46963C14.1822 8.40563 13.9014 7.29536 14.2095 6.11781C14.3251 5.67623 14.1822 5.62786 13.7994 5.62997C11.3841 5.64258 8.96833 5.64258 6.55224 5.62997C6.14325 5.62997 6.01498 5.73511 6.01814 6.15566C6.03706 8.79884 6.02655 11.4431 6.03075 14.0863C6.03075 14.2156 5.97188 14.368 6.11697 14.4763C6.34091 14.3996 6.486 14.2177 6.65317 14.0694C8.05467 12.8267 9.46248 11.5861 10.8482 10.3307C10.9595 10.2235 11.0915 10.1403 11.2361 10.086C11.3808 10.0318 11.535 10.0077 11.6893 10.0153C12.7586 10.0353 13.8257 10.0227 14.896 10.0227ZM0.647654 10.3381C0.647654 11.7553 0.656065 13.1768 0.640294 14.5899C0.640294 14.9242 0.721251 15.0504 1.07662 15.0451C2.37088 15.0262 3.66618 15.0283 4.96149 15.0451C5.28953 15.0451 5.37469 14.94 5.37364 14.6246C5.36452 11.7725 5.36452 8.9201 5.37364 6.06734C5.37364 5.75193 5.29478 5.63417 4.9657 5.63838C3.67039 5.6531 2.37543 5.6531 1.08083 5.63838C0.735971 5.63838 0.636089 5.74877 0.640294 6.09047C0.657117 7.49828 0.647654 8.91239 0.647654 10.3339V10.3381ZM10.9681 11.1203L6.15587 15.39C6.02129 15.5098 6.02655 15.6676 6.02655 15.8253C6.02655 17.1037 6.03601 18.3812 6.02024 19.6586C6.02024 20.0066 6.13379 20.1065 6.47549 20.1023C7.82337 20.0855 9.17125 20.0823 10.5191 20.1023C10.9071 20.1086 10.9817 19.9604 10.9754 19.6134C10.9554 18.6861 10.9681 17.7588 10.9681 16.8304V11.1203ZM23.3555 13.7225C23.3555 12.8477 23.3471 11.973 23.3608 11.094C23.3608 10.8059 23.2766 10.685 22.9749 10.6903C22.1874 10.704 21.3978 10.7019 20.6135 10.6903C20.5097 10.687 20.4069 10.7114 20.3156 10.7609C20.2244 10.8104 20.1479 10.8833 20.0941 10.9721C19.6137 11.6183 19.0683 12.2137 18.4666 12.7489C18.3215 12.8793 18.2048 13.0065 18.2069 13.2315C18.2174 14.2829 18.2174 15.3325 18.2069 16.3804C18.2069 16.658 18.312 16.74 18.5738 16.7389C20.0457 16.7291 21.5152 16.7291 22.9823 16.7389C23.2903 16.7389 23.366 16.6264 23.3608 16.3404C23.3471 15.4709 23.3555 14.5962 23.3555 13.7225ZM17.9009 3.90569C17.4351 3.90282 16.9744 4.00355 16.5523 4.2006C16.1302 4.39764 15.7571 4.68607 15.4602 5.04501C15.1632 5.40395 14.9498 5.82442 14.8353 6.27599C14.7208 6.72756 14.7082 7.19893 14.7983 7.65599C15.1694 9.54323 16.3491 10.91 17.6633 12.2043C17.8914 12.4282 18.026 12.2726 18.1837 12.1212C19.0181 11.3436 19.7334 10.4473 20.3065 9.46122C20.6783 8.82383 20.9145 8.11656 21.0004 7.38368C21.0493 6.94694 21.0056 6.5048 20.8723 6.08605C20.7389 5.6673 20.5189 5.28132 20.2265 4.95323C19.9342 4.62514 19.576 4.3623 19.1753 4.18181C18.7746 4.00133 18.3404 3.90725 17.9009 3.90569ZM13.831 10.6998C13.0729 10.6998 12.5693 10.7082 12.0584 10.6998C11.786 10.6998 11.6378 10.7628 11.6378 11.0772C11.6494 12.056 11.6441 13.0349 11.6378 14.0148C11.6378 14.2314 11.703 14.367 11.9227 14.45C13.6891 15.1138 15.4529 15.785 17.2144 16.4635C17.5413 16.5896 17.5624 16.4382 17.5582 16.1838C17.5497 15.677 17.5066 15.1639 17.5655 14.6635C17.6938 13.5711 17.3258 12.7899 16.5551 11.953C15.6898 11.0047 14.8918 10.3686 13.831 10.6998ZM14.5764 20.097C15.4344 20.097 16.2912 20.0844 17.1481 20.097C17.473 20.1044 17.5687 19.9919 17.5687 19.6765C17.5487 18.9941 17.5571 18.3097 17.5687 17.6294C17.5687 17.4108 17.515 17.273 17.2943 17.19C15.5419 16.5304 13.7931 15.8645 12.0478 15.1923C11.7482 15.0767 11.642 15.1366 11.6441 15.4688C11.6546 16.8682 11.6588 18.2676 11.6441 19.667C11.6441 20.035 11.8018 20.1002 12.1193 20.0949C12.9321 20.0855 13.7542 20.096 14.5764 20.096V20.097ZM3.01853 15.6812C2.35511 15.6812 1.69063 15.6949 1.0272 15.6749C0.726508 15.6665 0.638192 15.7685 0.641346 16.0639C0.655014 17.2867 0.652911 18.5105 0.641346 19.7333C0.641346 20.0024 0.726508 20.1023 1.00197 20.1002C2.33022 20.0904 3.65847 20.0904 4.98673 20.1002C5.28953 20.1002 5.37364 19.9951 5.37048 19.7017C5.35927 18.4793 5.35927 17.2562 5.37048 16.0324C5.37048 15.7548 5.28006 15.6697 5.00881 15.6749C4.34748 15.6907 3.67985 15.6802 3.01853 15.6802V15.6812ZM20.727 20.097C21.4798 20.097 22.2326 20.0907 22.9844 20.097C23.243 20.097 23.3671 20.0298 23.3608 19.7438C23.345 19.0793 23.3471 18.4138 23.3608 17.7461C23.3608 17.4738 23.2693 17.3803 22.997 17.3813C21.525 17.3911 20.0552 17.3911 18.5875 17.3813C18.3299 17.3813 18.2016 17.4486 18.2079 17.7346C18.2219 18.3991 18.2219 19.0649 18.2079 19.7322C18.2079 20.0066 18.3131 20.1002 18.577 20.096C19.2929 20.0876 20.01 20.0949 20.727 20.0949V20.097ZM23.3555 7.83472V7.09875C23.3555 5.52167 23.3555 5.52167 21.7784 5.63627C21.7427 5.63627 21.708 5.63627 21.6733 5.63627C21.5187 5.63627 21.4462 5.6962 21.4988 5.86548C21.9193 7.23228 21.5671 8.49394 20.9194 9.70093C20.7649 9.99007 20.9016 10.0227 21.1444 10.0164C21.7574 10.0164 22.3704 10.0006 22.9833 10.0164C23.2987 10.0269 23.3608 9.88388 23.3545 9.60736C23.346 9.02384 23.3566 8.42876 23.3566 7.83262L23.3555 7.83472Z" fill="#FA8B02"/>
<path d="M12.0058 20.7615C8.25794 20.7615 4.50975 20.7615 0.761204 20.7615C0.0126166 20.7615 0 20.7479 0 19.9961V5.70356C0 4.98757 0.0178736 4.96759 0.735971 4.96759C5.20226 4.96759 9.6689 4.9697 14.1359 4.9739C14.4955 4.9739 14.7394 4.88979 14.977 4.59645C15.3301 4.17046 15.7728 3.82758 16.2735 3.59223C16.7743 3.35688 17.3208 3.23486 17.8741 3.23486C18.4274 3.23486 18.9739 3.35688 19.4747 3.59223C19.9754 3.82758 20.4181 4.17046 20.7712 4.59645C20.9962 4.86876 21.2149 4.98967 21.5639 4.976C22.1948 4.95287 22.8256 4.976 23.4564 4.96759C23.8223 4.96128 24 5.0885 24 5.48487C23.993 10.4075 23.993 15.3294 24 20.2505C24 20.7489 23.7109 20.7657 23.3481 20.7647C20.7898 20.7605 18.2314 20.7605 15.673 20.7647L12.0058 20.7615ZM14.896 10.0227C14.9129 9.92383 14.9244 9.9028 14.9181 9.89018C14.8487 9.7493 14.7762 9.61052 14.7078 9.46963C14.1822 8.40563 13.9014 7.29536 14.2095 6.11781C14.3251 5.67623 14.1822 5.62786 13.7994 5.62997C11.3841 5.64258 8.96833 5.64258 6.55224 5.62997C6.14325 5.62997 6.01498 5.73511 6.01814 6.15566C6.03706 8.79884 6.02655 11.4431 6.03075 14.0863C6.03075 14.2156 5.97188 14.368 6.11697 14.4763C6.34091 14.3996 6.486 14.2177 6.65317 14.0694C8.05467 12.8267 9.46248 11.5861 10.8482 10.3307C10.9595 10.2235 11.0915 10.1403 11.2361 10.086C11.3808 10.0318 11.535 10.0077 11.6893 10.0153C12.7586 10.0353 13.8257 10.0227 14.896 10.0227ZM0.647654 10.3381C0.647654 11.7553 0.656065 13.1768 0.640294 14.5899C0.640294 14.9242 0.721251 15.0504 1.07662 15.0451C2.37088 15.0262 3.66618 15.0283 4.96149 15.0451C5.28953 15.0451 5.37469 14.94 5.37364 14.6246C5.36452 11.7725 5.36452 8.9201 5.37364 6.06734C5.37364 5.75193 5.29478 5.63417 4.9657 5.63838C3.67039 5.6531 2.37543 5.6531 1.08083 5.63838C0.735971 5.63838 0.636089 5.74877 0.640294 6.09047C0.657117 7.49828 0.647654 8.91239 0.647654 10.3339V10.3381ZM10.9681 11.1203L6.15587 15.39C6.02129 15.5098 6.02655 15.6676 6.02655 15.8253C6.02655 17.1037 6.03601 18.3812 6.02024 19.6586C6.02024 20.0066 6.13379 20.1065 6.47549 20.1023C7.82337 20.0855 9.17125 20.0823 10.5191 20.1023C10.9071 20.1086 10.9817 19.9604 10.9754 19.6134C10.9554 18.6861 10.9681 17.7588 10.9681 16.8304V11.1203ZM23.3555 13.7225C23.3555 12.8477 23.3471 11.973 23.3608 11.094C23.3608 10.8059 23.2766 10.685 22.9749 10.6903C22.1874 10.704 21.3978 10.7019 20.6135 10.6903C20.5097 10.687 20.4069 10.7114 20.3156 10.7609C20.2244 10.8104 20.1479 10.8833 20.0941 10.9721C19.6137 11.6183 19.0683 12.2137 18.4666 12.7489C18.3215 12.8793 18.2048 13.0065 18.2069 13.2315C18.2174 14.2829 18.2174 15.3325 18.2069 16.3804C18.2069 16.658 18.312 16.74 18.5738 16.7389C20.0457 16.7291 21.5152 16.7291 22.9823 16.7389C23.2903 16.7389 23.366 16.6264 23.3608 16.3404C23.3471 15.4709 23.3555 14.5962 23.3555 13.7225ZM17.9009 3.90569C17.4351 3.90282 16.9744 4.00355 16.5523 4.2006C16.1302 4.39764 15.7571 4.68607 15.4602 5.04501C15.1632 5.40395 14.9498 5.82442 14.8353 6.27599C14.7208 6.72756 14.7082 7.19893 14.7983 7.65599C15.1694 9.54323 16.3491 10.91 17.6633 12.2043C17.8914 12.4282 18.026 12.2726 18.1837 12.1212C19.0181 11.3436 19.7334 10.4473 20.3065 9.46122C20.6783 8.82383 20.9145 8.11656 21.0004 7.38368C21.0493 6.94694 21.0056 6.5048 20.8723 6.08605C20.7389 5.6673 20.5189 5.28132 20.2265 4.95323C19.9342 4.62514 19.576 4.3623 19.1753 4.18181C18.7746 4.00133 18.3404 3.90725 17.9009 3.90569ZM13.831 10.6998C13.0729 10.6998 12.5693 10.7082 12.0584 10.6998C11.786 10.6998 11.6378 10.7628 11.6378 11.0772C11.6494 12.056 11.6441 13.0349 11.6378 14.0148C11.6378 14.2314 11.703 14.367 11.9227 14.45C13.6891 15.1138 15.4529 15.785 17.2144 16.4635C17.5413 16.5896 17.5624 16.4382 17.5582 16.1838C17.5497 15.677 17.5066 15.1639 17.5655 14.6635C17.6938 13.5711 17.3258 12.7899 16.5551 11.953C15.6898 11.0047 14.8918 10.3686 13.831 10.6998ZM14.5764 20.097C15.4344 20.097 16.2912 20.0844 17.1481 20.097C17.473 20.1044 17.5687 19.9919 17.5687 19.6765C17.5487 18.9941 17.5571 18.3097 17.5687 17.6294C17.5687 17.4108 17.515 17.273 17.2943 17.19C15.5419 16.5304 13.7931 15.8645 12.0478 15.1923C11.7482 15.0767 11.642 15.1366 11.6441 15.4688C11.6546 16.8682 11.6588 18.2676 11.6441 19.667C11.6441 20.035 11.8018 20.1002 12.1193 20.0949C12.9321 20.0855 13.7542 20.096 14.5764 20.096V20.097ZM3.01853 15.6812C2.35511 15.6812 1.69063 15.6949 1.0272 15.6749C0.726508 15.6665 0.638192 15.7685 0.641346 16.0639C0.655014 17.2867 0.652911 18.5105 0.641346 19.7333C0.641346 20.0024 0.726508 20.1023 1.00197 20.1002C2.33022 20.0904 3.65847 20.0904 4.98673 20.1002C5.28953 20.1002 5.37364 19.9951 5.37048 19.7017C5.35927 18.4793 5.35927 17.2562 5.37048 16.0324C5.37048 15.7548 5.28006 15.6697 5.00881 15.6749C4.34748 15.6907 3.67985 15.6802 3.01853 15.6802V15.6812ZM20.727 20.097C21.4798 20.097 22.2326 20.0907 22.9844 20.097C23.243 20.097 23.3671 20.0298 23.3608 19.7438C23.345 19.0793 23.3471 18.4138 23.3608 17.7461C23.3608 17.4738 23.2693 17.3803 22.997 17.3813C21.525 17.3911 20.0552 17.3911 18.5875 17.3813C18.3299 17.3813 18.2016 17.4486 18.2079 17.7346C18.2219 18.3991 18.2219 19.0649 18.2079 19.7322C18.2079 20.0066 18.3131 20.1002 18.577 20.096C19.2929 20.0876 20.01 20.0949 20.727 20.0949V20.097ZM23.3555 7.83472V7.09875C23.3555 5.52167 23.3555 5.52167 21.7784 5.63627C21.7427 5.63627 21.708 5.63627 21.6733 5.63627C21.5187 5.63627 21.4462 5.6962 21.4988 5.86548C21.9193 7.23228 21.5671 8.49394 20.9194 9.70093C20.7649 9.99007 20.9016 10.0227 21.1444 10.0164C21.7574 10.0164 22.3704 10.0006 22.9833 10.0164C23.2987 10.0269 23.3608 9.88388 23.3545 9.60736C23.346 9.02384 23.3566 8.42876 23.3566 7.83262L23.3555 7.83472Z" stroke="#FA8B02" stroke-width="0.4" mask="url(#path-1-outside-1_1_1661)"/>
<path d="M17.8844 5.04248C18.152 5.03994 18.4178 5.08971 18.6656 5.19092C18.9137 5.29229 19.1393 5.44182 19.3287 5.63135C19.5182 5.82096 19.6679 6.04718 19.7691 6.29541C19.8703 6.54353 19.9204 6.80972 19.9176 7.07764C19.9147 7.34547 19.8589 7.61014 19.7525 7.85596C19.646 8.10198 19.491 8.32473 19.2975 8.51025C19.104 8.69562 18.8757 8.84101 18.6256 8.93701C18.376 9.03276 18.1095 9.07598 17.8424 9.06787V9.06885L17.8414 9.06787L17.8395 9.06885V9.06787C17.5769 9.06584 17.3171 9.01324 17.0758 8.90967C16.8335 8.80565 16.6141 8.65341 16.4313 8.46338C16.2487 8.27352 16.1058 8.04908 16.0113 7.80322C15.9168 7.55716 15.8729 7.29421 15.8814 7.03076C15.8818 6.76929 15.9334 6.5105 16.0338 6.26904C16.1346 6.02658 16.2822 5.80577 16.4684 5.62061C16.6545 5.43547 16.8758 5.28941 17.1188 5.18994C17.3617 5.0905 17.6219 5.04008 17.8844 5.0415V5.04248ZM17.8863 5.9126C17.5799 5.9126 17.2856 6.03479 17.0689 6.25146C16.8524 6.46812 16.7311 6.7625 16.7311 7.06885C16.7312 7.37502 16.8525 7.66871 17.0689 7.88525C17.2856 8.10193 17.5799 8.22412 17.8863 8.22412C18.1926 8.22408 18.4861 8.1018 18.7027 7.88525C18.9193 7.66869 19.0415 7.37511 19.0416 7.06885C19.0416 6.76243 18.9194 6.46814 18.7027 6.25146C18.4861 6.03495 18.1926 5.91264 17.8863 5.9126Z" fill="#FA8B02" stroke="#FA8B02" stroke-width="0.2"/>
</g>
<defs>
<clipPath id="clip0_1_1661">
<rect width="24" height="24" fill="white"/>
</clipPath>
</defs>
</svg>
