<svg width="24" height="24" viewBox="0 0 24 24" fill="none" xmlns="http://www.w3.org/2000/svg">
<g opacity="0.8" clip-path="url(#clip0_1_1697)">
<path d="M11.9804 12.6127C11.8289 13.627 11.7025 14.4846 11.5709 15.3402C11.5417 15.5293 11.6367 15.5752 11.7987 15.6045C12.0817 15.6546 12.1925 15.8499 12.0713 16.1006C11.9825 16.2824 12.0243 16.4245 12.0608 16.5968C12.181 17.1515 11.878 17.7522 11.3296 17.8618C10.8982 17.9486 10.8606 18.1606 10.8188 18.5231C10.6151 20.2843 8.99911 21.4751 7.32148 21.1346C5.54566 20.7721 4.50105 19.0663 5.0056 17.3416C5.12942 16.9039 5.35984 16.5037 5.67623 16.1769C5.8559 15.991 6.05856 15.8155 6.29777 16.0484C6.50669 16.2573 6.3688 16.4569 6.20585 16.6376C5.96646 16.8928 5.78944 17.2 5.68868 17.5351C5.58791 17.8702 5.56613 18.2241 5.62505 18.569C5.80367 19.7871 6.94856 20.6217 8.20835 20.4546C9.37413 20.2979 10.2474 19.1603 10.1325 17.9841C10.1001 17.6561 9.97477 17.6602 9.73347 17.7699C9.22579 18.0008 8.71394 18.2201 8.20208 18.4385C7.72992 18.6411 7.5607 18.5429 7.50742 18.0478C7.37162 16.7504 7.20867 15.454 7.1251 14.1525C7.08958 13.5988 6.70726 13.3868 6.38029 13.0943C6.22465 12.9533 6.09407 13.1361 5.96245 13.1987C5.7316 13.3032 5.51641 13.3377 5.38479 13.0723C5.25317 12.807 5.42448 12.6649 5.62505 12.5762C6.02931 12.3975 6.14735 12.244 5.83397 11.8042C5.29286 11.0458 5.56759 10.0367 6.37716 9.54263C7.11987 9.09032 7.87721 8.65889 8.63455 8.23061C8.74291 8.18248 8.83581 8.10527 8.90293 8.00754C8.97005 7.9098 9.00877 7.79538 9.01478 7.67697C9.0388 7.39616 9.1712 7.13574 9.38394 6.95088C9.59668 6.76603 9.87304 6.67127 10.1544 6.68668C10.4182 6.69863 10.6688 6.80503 10.8606 6.98645C11.0524 7.16788 11.1725 7.41222 11.199 7.67488C11.2182 7.81373 11.2091 7.955 11.1725 8.09028C11.1358 8.22557 11.0724 8.35209 10.9858 8.46233C10.8993 8.57257 10.7914 8.66426 10.6687 8.73195C10.546 8.79964 10.4109 8.84193 10.2714 8.85632C9.97269 8.9002 9.88076 8.99839 9.92986 9.28252C9.98313 9.58755 10.0155 9.89675 10.0636 10.2509C10.5148 10.0252 10.8251 9.67111 11.1938 9.39847C11.4027 9.24492 11.6117 9.08509 11.8206 9.3546C12.0097 9.59486 11.831 9.76513 11.6555 9.92809C10.9243 10.605 10.9243 10.6071 11.6441 11.3237L11.6806 11.3613C11.9543 11.6287 12.1852 12.0162 12.5163 12.1332C12.907 12.2732 13.0846 11.7426 13.3948 11.5535C14.4958 10.8829 15.9269 10.9393 16.9162 11.7426C17.4002 12.1351 17.7493 12.6692 17.9145 13.2701C18.0796 13.871 18.0526 14.5085 17.8372 15.0933C17.6219 15.6781 17.2289 16.1808 16.7134 16.531C16.1979 16.8812 15.5858 17.0613 14.9628 17.046C14.3398 17.035 13.7363 16.8269 13.2389 16.4516C12.7416 16.0762 12.376 15.5529 12.1946 14.9568C12.1329 14.7552 12.0264 14.5233 12.2426 14.3812C12.6322 14.1263 12.7398 14.4178 12.8527 14.728C13.2809 15.9084 14.2953 16.5039 15.4725 16.2876C16.4461 16.108 17.1543 15.3412 17.2912 14.3206C17.3454 13.8501 17.2515 13.3744 17.0226 12.9597C16.7937 12.5451 16.4412 12.2121 16.0142 12.0071C15.5872 11.8022 15.1069 11.7355 14.6402 11.8163C14.1736 11.8972 13.7437 12.1215 13.4105 12.4581C13.1274 12.737 13.1922 12.9 13.4805 13.1037C13.9056 13.4035 14.3955 13.5215 14.8813 13.6511C15.1424 13.7221 15.4391 13.7921 15.343 14.1462C15.2469 14.5003 14.9502 14.3812 14.6922 14.3384C13.6058 14.1556 12.7754 13.5529 11.9804 12.6127ZM6.40432 10.3428C7.35178 10.6645 7.44892 10.6562 8.10702 10.2718C8.30132 10.1589 8.48308 10.0117 8.68991 9.9354C9.27698 9.72021 9.35846 9.33789 9.09522 8.77485L6.40432 10.3428ZM10.8261 14.7489L10.9421 14.7207C11.0695 13.9143 11.1973 13.1079 11.3254 12.3014C11.3432 12.1844 11.3975 12.0518 11.2669 11.9682C11.1364 11.8846 11.0424 12.0048 10.9431 12.0591C10.6987 12.1928 10.4626 12.3401 10.2119 12.4769C10.0563 12.5605 9.95702 12.6587 10.0354 12.8488L10.8261 14.7489ZM10.3602 15.7747C10.3822 15.6703 10.4052 15.6358 10.3947 15.6107C10.1701 15.0446 9.94239 14.4815 9.71571 13.9164C9.46187 13.2896 8.8184 13.134 8.29401 13.5738C8.16552 13.6782 8.15925 13.7503 8.27521 13.8568C8.96255 14.4867 9.64781 15.1187 10.3602 15.7747ZM8.02868 16.297C8.04853 16.5206 8.06002 16.6752 8.07778 16.8298C8.17597 17.6738 8.18224 17.6822 8.94897 17.326C9.2049 17.2069 9.66348 17.1818 9.66139 16.9186C9.66139 16.5551 9.24355 16.3639 8.93017 16.1874C8.79139 16.1186 8.64707 16.0617 8.49875 16.0171C8.1697 15.9043 7.93884 15.9158 8.02868 16.2991V16.297ZM9.11507 12.4717C8.41936 11.5817 7.4531 11.2412 6.34478 11.1451C6.50878 11.7635 7.50324 12.2576 9.11507 12.4738V12.4717ZM8.37131 10.9434C8.75154 11.1785 9.12029 11.3132 9.3501 11.5702C9.65095 11.9087 9.89643 11.9191 10.2077 11.6548C10.3404 11.542 10.6423 11.5504 10.5775 11.2997C10.5221 11.0845 10.3101 11.026 10.0677 11.0657C9.80659 11.1085 9.54544 10.9978 9.47754 10.745C9.36368 10.2916 9.15581 10.4723 8.92913 10.6081L8.37131 10.9434ZM10.0876 7.39179C9.85151 7.43462 9.71153 7.56937 9.72407 7.80963C9.72375 7.85783 9.73349 7.90557 9.75265 7.9498C9.77182 7.99403 9.79999 8.03377 9.83537 8.0665C9.87076 8.09924 9.91258 8.12423 9.95816 8.1399C10.0037 8.15556 10.0521 8.16155 10.1001 8.15748C10.3414 8.15748 10.5002 8.01542 10.4939 7.77098C10.4877 7.52654 10.3299 7.40955 10.0876 7.39283V7.39179ZM11.3714 16.8569C11.3714 16.6041 11.2387 16.461 10.9974 16.4516C10.95 16.4458 10.9019 16.4499 10.8562 16.4638C10.8104 16.4776 10.7681 16.5009 10.7319 16.5321C10.6957 16.5633 10.6664 16.6017 10.646 16.6449C10.6255 16.688 10.6143 16.735 10.613 16.7828C10.589 17.023 10.7091 17.1849 10.9536 17.2058C11.198 17.2267 11.3328 17.0909 11.3714 16.858V16.8569ZM7.92944 14.5066C7.88766 15.2378 7.88766 15.2441 8.74632 15.2514L7.92944 14.5066Z" fill="#FA8B02" stroke="#FA8B02" stroke-width="0.2"/>
<path d="M23.5295 19.2929C22.4296 18.967 21.3296 18.64 20.2244 18.3298C19.9956 18.265 19.8703 18.1961 19.8713 17.9224C19.8811 15.2238 19.8811 12.5256 19.8713 9.82777C19.8713 9.44649 20.0092 9.4726 20.2662 9.62511C20.7603 9.91865 21.2607 10.1996 21.76 10.4827C21.9564 10.5945 22.158 10.7387 22.3867 10.5517C22.5894 10.3814 22.4975 10.1694 22.4379 9.97192C21.5995 7.22601 20.7603 4.48044 19.9204 1.73522C19.8588 1.53257 19.7951 1.31738 19.5277 1.31738C19.2602 1.31738 19.1882 1.5263 19.1265 1.72687C18.6544 3.28333 17.6777 6.55189 17.1606 8.26713C17.1301 8.32592 17.1053 8.38748 17.0864 8.45098C16.9297 8.96701 16.773 9.48096 16.6132 9.99804C16.5537 10.1976 16.4753 10.4159 16.6916 10.5694C16.9078 10.723 17.0896 10.5966 17.2713 10.4942C17.756 10.2195 18.248 9.95625 18.7191 9.65854C19.0733 9.43709 19.1777 9.49349 19.1756 9.91969C19.1631 12.5298 19.1631 15.1413 19.1756 17.7542C19.1756 18.1251 19.0471 18.2358 18.6972 18.2368C17.9743 18.2368 17.2891 18.4395 16.6247 18.7132C14.6462 19.5269 12.6343 20.2738 10.6997 21.1816C8.76512 22.0893 6.86289 22.1739 4.90531 21.3142C4.6055 21.1837 4.43941 21.0437 4.36316 20.7104C3.9286 18.8114 3.46793 16.9175 3.01457 15.0226C2.95921 14.7896 2.94667 14.5003 2.62494 14.4825C2.25724 14.4627 2.24575 14.7802 2.18725 15.0268C1.8286 16.5164 1.47309 18.0053 1.12071 19.4935C1.06325 19.7337 1.03923 19.9938 0.66735 19.8257C0.41769 19.7139 0.117888 19.6481 0.0186511 19.9991C-0.0805862 20.3501 0.236973 20.4232 0.480366 20.5088C2.25619 21.1356 4.02157 21.7624 5.80262 22.3641C7.16872 22.8341 8.66045 22.782 9.99044 22.2178C12.2607 21.286 14.5271 20.3459 16.7898 19.3974C18.0647 18.8454 19.4957 18.7713 20.8209 19.1885C21.6566 19.4402 22.4839 19.6982 23.3154 19.9552C23.5713 20.0346 23.8659 20.139 23.9766 19.7954C24.0874 19.4517 23.7823 19.3681 23.5295 19.2929ZM1.90625 20.2498C1.74851 20.1965 1.67957 20.1276 1.72344 19.9479C1.99922 18.8291 2.26664 17.7072 2.65627 16.5822C2.98741 17.9705 3.3196 19.3598 3.68208 20.8776C3.0198 20.6425 2.46616 20.4399 1.90938 20.2498H1.90625ZM19.0524 8.65468C18.576 8.93672 18.0903 9.20205 17.5158 9.52588C17.592 9.25846 17.6484 9.04327 17.7059 8.84166C17.7236 8.7957 17.7383 8.74765 17.7529 8.69959C18.0663 7.68424 18.9239 4.78547 19.2404 3.77325C19.3146 3.53403 19.3449 3.27184 19.5653 3.00442C20.2276 5.17928 20.87 7.29251 21.55 9.53319C20.9452 9.19369 20.4615 8.92836 19.9831 8.6505C19.8443 8.56214 19.6828 8.51582 19.5182 8.51712C19.3536 8.51842 19.193 8.56728 19.0555 8.65781L19.0524 8.65468Z" fill="#FA8B02" stroke="#FA8B02" stroke-width="0.2"/>
</g>
<defs>
<clipPath id="clip0_1_1697">
<rect width="24" height="24" fill="white"/>
</clipPath>
</defs>
</svg>
