<svg width="24" height="24" viewBox="0 0 24 24" fill="none" xmlns="http://www.w3.org/2000/svg">
<g opacity="0.8" clip-path="url(#clip0_1_1653)">
<path d="M11.9452 23.999H2.19102C0.759553 23.999 0 23.2411 0 21.8173C0 15.8361 0 9.85423 0 3.87162C0 2.48331 0.772073 1.7067 2.15763 1.6973C3.04447 1.69208 3.93131 1.67434 4.81607 1.70565C5.24384 1.72131 5.37321 1.56891 5.32626 1.17016C5.30638 0.961867 5.30638 0.752151 5.32626 0.543857C5.35026 0.222354 5.53493 0.021936 5.85419 0.00105918C6.17346 -0.0198176 6.36439 0.182688 6.4416 0.485402C6.45645 0.570845 6.46239 0.657602 6.45933 0.744274C6.49063 1.69626 6.48959 1.69626 7.46929 1.69626C8.61696 1.69626 9.76464 1.67642 10.9123 1.7067C11.361 1.71818 11.4997 1.56473 11.4507 1.14093C11.4278 0.916039 11.433 0.68916 11.4663 0.465569C11.4757 0.333436 11.5369 0.210362 11.6366 0.123161C11.7362 0.0359593 11.8663 -0.00830347 11.9984 1.53376e-05C12.2968 1.53376e-05 12.4805 0.175381 12.5337 0.469744C12.5477 0.573507 12.5532 0.678233 12.5504 0.782896C12.5671 1.6973 12.5671 1.6973 13.5071 1.6973C14.7059 1.6973 15.9068 1.68582 17.1046 1.70461C17.4468 1.70983 17.573 1.60022 17.5407 1.26202C17.5156 1.01893 17.5184 0.77378 17.549 0.531331C17.5928 0.200433 17.79 -0.0219053 18.1437 0.00210302C18.4567 0.0240237 18.6383 0.227573 18.6654 0.548032C18.6654 0.582479 18.6654 0.617969 18.6654 0.652416C18.7249 1.69626 18.7249 1.69626 19.8016 1.69626C20.5142 1.69626 21.2268 1.68582 21.9394 1.69626C23.2081 1.72235 23.9969 2.5188 23.9969 3.77246C23.9969 9.82674 23.9969 15.8779 23.9969 21.9259C23.9969 23.2098 23.1987 23.9969 21.9039 23.9979C18.5847 24.0014 15.2651 24.0018 11.9452 23.999ZM11.9984 8.55951C8.55541 8.55951 5.11238 8.56786 1.66935 8.54908C1.22906 8.54908 1.12264 8.67538 1.12368 9.10336C1.13933 13.3466 1.13203 17.5898 1.13411 21.8382C1.13411 22.618 1.3793 22.8612 2.16598 22.8612H21.8298C22.6144 22.8612 22.8607 22.6169 22.8607 21.8372C22.8607 17.594 22.8555 13.3507 22.8711 9.10753C22.8711 8.67642 22.7616 8.55221 22.3234 8.55429C18.8845 8.571 15.4415 8.55951 11.9984 8.55951ZM11.9984 7.42486C15.4561 7.42486 18.9137 7.42486 22.3713 7.43425C22.7595 7.43425 22.8763 7.32987 22.8669 6.94156C22.8388 5.88206 22.8669 4.82047 22.8555 3.75993C22.8555 3.12006 22.5738 2.84031 21.93 2.83091C21.1997 2.81943 20.4693 2.83091 19.739 2.83091C18.7071 2.83091 18.7071 2.83091 18.6706 3.83613C18.6706 3.88728 18.6706 3.94052 18.6706 3.99166C18.6456 4.31943 18.4546 4.51359 18.1427 4.53446C17.7963 4.55534 17.5928 4.34135 17.5501 4.00419C17.5209 3.79659 17.5184 3.58611 17.5428 3.37789C17.596 2.96035 17.4614 2.80377 17.0096 2.81734C15.8807 2.85075 14.7508 2.82883 13.6219 2.82883C12.59 2.82883 12.59 2.82883 12.5525 3.83718C12.5525 3.90711 12.5525 3.97705 12.542 4.04594C12.4992 4.34761 12.3104 4.52611 12.0203 4.53655C11.9502 4.54407 11.8793 4.53697 11.8121 4.5157C11.7449 4.49443 11.6828 4.45944 11.6297 4.41295C11.5767 4.36645 11.5338 4.30947 11.5039 4.24558C11.474 4.18169 11.4577 4.1123 11.4559 4.04177C11.4266 3.79925 11.4234 3.55427 11.4465 3.31108C11.4914 2.90816 11.3223 2.81317 10.9415 2.81943C9.67387 2.84135 8.40516 2.82778 7.13646 2.82778C6.45724 2.82778 6.45829 2.82778 6.4562 3.4854C6.46379 3.65942 6.4603 3.83375 6.44577 4.00732C6.40508 4.32047 6.21519 4.52924 5.89801 4.53551C5.5631 4.53551 5.34609 4.33926 5.32626 3.9854C5.31057 3.74209 5.31057 3.49802 5.32626 3.25471C5.34817 2.95513 5.26679 2.81526 4.92875 2.82256C3.97305 2.84135 3.01735 2.82256 2.06164 2.83196C1.42103 2.83926 1.14559 3.12423 1.14142 3.77141C1.13411 4.81526 1.16228 5.8591 1.1289 6.90294C1.11429 7.34761 1.25618 7.44678 1.68187 7.44469C5.12072 7.42173 8.56167 7.42903 11.9984 7.42903V7.42486Z" fill="#FA8B02"/>
<path d="M12.0631 13.4122C11.9129 13.5782 11.7731 13.7567 11.6082 13.907C11.5629 13.955 11.5085 13.9935 11.4481 14.0203C11.3878 14.0471 11.3228 14.0617 11.2568 14.0631C11.1908 14.0646 11.1251 14.0529 11.0637 14.0288C11.0022 14.0047 10.9462 13.9686 10.8988 13.9227C10.6525 13.7139 10.5858 13.4248 10.7944 13.1816C11.3161 12.573 11.8378 11.9707 12.4126 11.4133C12.7256 11.1085 13.1951 11.3089 13.2974 11.7369C13.3191 11.8567 13.3268 11.9786 13.3204 12.1001C13.3204 14.5177 13.3204 16.9349 13.3204 19.3517C13.3254 19.4564 13.3198 19.5613 13.3037 19.6648C13.2379 19.978 13.048 20.1586 12.7194 20.1408C12.4158 20.1241 12.2457 19.9425 12.2071 19.6471C12.1951 19.5083 12.192 19.3688 12.1977 19.2296C12.1977 17.4738 12.1977 15.7174 12.1977 13.9603V13.4592L12.0631 13.4122Z" fill="#FA8B02"/>
</g>
<defs>
<clipPath id="clip0_1_1653">
<rect width="24" height="24" fill="white"/>
</clipPath>
</defs>
</svg>
