<svg width="24" height="24" viewBox="0 0 24 24" fill="none" xmlns="http://www.w3.org/2000/svg">
<g clip-path="url(#clip0_1_1793)">
<path d="M12.0082 0.450195C13.5937 0.451389 15.1381 0.941659 16.431 1.85059L16.6869 2.03809L16.9369 2.24023C18.1627 3.27501 19.0404 4.66611 19.4457 6.22363C19.8779 7.88495 19.748 9.6428 19.0765 11.2227C18.46 12.6717 17.5276 13.9135 16.5873 15.1445C16.1026 15.7791 15.6164 16.4165 15.1068 17.0332C15.0431 17.1103 14.997 17.1735 14.9691 17.2246C14.9409 17.2765 14.9366 17.3077 14.9418 17.3271C14.9464 17.3446 14.9631 17.3672 15.015 17.3906C15.0667 17.4139 15.1446 17.4339 15.2552 17.4521L15.6332 17.5166C16.5106 17.6807 17.3615 17.9455 18.1566 18.3828C18.5472 18.5844 18.9007 18.8525 19.1996 19.1748L19.2006 19.1758C19.5243 19.5424 19.688 19.9524 19.6849 20.3633C19.6818 20.7742 19.512 21.1809 19.181 21.542C18.5664 22.2134 17.7628 22.575 16.933 22.8389C14.8824 23.4889 12.7743 23.6535 10.642 23.4932C9.15741 23.381 7.68657 23.1604 6.30505 22.5391V22.5381C5.82372 22.3381 5.37949 22.0582 4.99255 21.709L4.99158 21.708C4.54937 21.2831 4.32219 20.8128 4.32361 20.3398C4.32516 19.8667 4.55553 19.3996 5.00818 18.9814C5.69328 18.348 6.53588 18.0055 7.4115 17.7607L7.83923 17.6436C8.24937 17.5391 8.67573 17.4478 9.12634 17.3428C8.55626 16.6102 8.00868 15.9129 7.46716 15.2109C6.56125 14.0362 5.66311 12.8513 5.03552 11.4873L4.91345 11.2119C4.24768 9.62953 4.12322 7.8712 4.55994 6.21094C4.99667 4.55073 5.97033 3.08122 7.32849 2.03125C8.67242 1.00455 10.317 0.449018 12.0082 0.450195ZM14.5072 18.333C14.359 18.3073 14.2474 18.3203 14.1537 18.3652C14.0592 18.4106 13.9769 18.4914 13.8929 18.6123C13.4506 19.2388 12.986 19.8497 12.5306 20.4639C12.4369 20.5905 12.3476 20.6879 12.2601 20.7539C12.1723 20.8201 12.0834 20.8559 11.9906 20.8545C11.8979 20.853 11.8088 20.8147 11.7211 20.7461C11.6337 20.6777 11.5447 20.5773 11.4506 20.4482C11.1949 20.0997 10.9403 19.7476 10.6849 19.3984C10.4653 19.0979 10.3028 18.8752 10.1586 18.7139C10.0148 18.5531 9.89303 18.4578 9.7572 18.4072C9.62128 18.3566 9.46534 18.3485 9.24841 18.375C9.03086 18.4016 8.75765 18.4615 8.38904 18.543C7.60363 18.7175 6.84389 18.9469 6.16345 19.3633L5.87732 19.5537C5.49541 19.8281 5.3204 20.1048 5.32361 20.3691C5.327 20.6335 5.50905 20.9083 5.89685 21.1787H5.89587C6.33322 21.476 6.81227 21.7067 7.31677 21.8652V21.8662C8.83079 22.354 10.3941 22.516 11.9789 22.5449L12.6761 22.5332C13.373 22.5063 14.0678 22.4356 14.7562 22.3213L14.7572 22.3203C15.2625 22.2492 15.7621 22.1416 16.2513 21.998L16.7367 21.8428C17.3168 21.6321 17.8797 21.3969 18.3334 20.9795C18.5581 20.7727 18.6668 20.56 18.6674 20.3535C18.6678 20.1475 18.561 19.9349 18.3275 19.7275V19.7266C18.1686 19.5903 17.9986 19.4676 17.8197 19.3594L17.6371 19.2559C16.6657 18.7206 15.5936 18.5201 14.5072 18.333ZM12.4984 1.46289C10.814 1.33981 9.14531 1.858 7.82654 2.91309C6.50775 3.96822 5.63659 5.48292 5.38708 7.15332C5.11134 9.04368 5.59132 10.7631 6.63123 12.3408C7.42964 13.5504 8.31768 14.6928 9.21423 15.8311C10.1105 16.9689 11.0158 18.1034 11.847 19.293H11.848C11.9296 19.4105 11.9792 19.4248 12.0092 19.4189C12.0272 19.4154 12.0501 19.4035 12.0775 19.377C12.1047 19.3506 12.1333 19.3137 12.1654 19.2676C12.3848 18.953 12.6189 18.6467 12.8451 18.3389C13.565 17.3578 14.3294 16.4097 15.0795 15.4541C15.8299 14.498 16.5662 13.5334 17.2338 12.5176L17.5482 12.0156C18.2469 10.836 18.7006 9.59174 18.6703 8.3125V8.31152C18.6703 4.75269 16.1555 1.91539 12.8236 1.49609L12.4984 1.46289Z" fill="#FA8B02" stroke="#FA8B02" stroke-width="0.1"/>
<path d="M12.0029 4.9458C12.4214 4.94667 12.8362 5.02995 13.2226 5.19092C13.6087 5.35185 13.9596 5.58693 14.2548 5.8833C14.5502 6.17986 14.7839 6.53242 14.9433 6.91943C15.1026 7.30634 15.1844 7.72074 15.1835 8.13916C15.1818 8.98444 14.844 9.79465 14.2451 10.3911C13.6462 10.9874 12.8352 11.3215 11.9902 11.3198C11.1449 11.3181 10.3347 10.9803 9.73822 10.3813C9.14192 9.7825 8.80785 8.97156 8.80951 8.12646C8.81126 7.28132 9.14824 6.47095 9.74701 5.87451C10.0436 5.57917 10.3961 5.3454 10.7831 5.18604C11.1701 5.02672 11.5844 4.94496 12.0029 4.9458ZM11.9765 5.94775C11.3972 5.95357 10.8441 6.18944 10.4384 6.60303C10.0326 7.0169 9.80771 7.57519 9.81342 8.15479C9.81913 8.73436 10.0548 9.28806 10.4687 9.69385C10.8824 10.0994 11.4402 10.3244 12.0195 10.3188C12.5989 10.3131 13.1528 10.0772 13.5585 9.66357C13.9643 9.24973 14.1892 8.69138 14.1835 8.11182C14.1778 7.53222 13.9421 6.97856 13.5283 6.57275C13.1144 6.16703 12.556 5.94205 11.9765 5.94775Z" fill="#FA8B02" stroke="#FA8B02" stroke-width="0.1"/>
</g>
<defs>
<clipPath id="clip0_1_1793">
<rect width="24" height="24" fill="white"/>
</clipPath>
</defs>
</svg>
