<svg width="24" height="24" viewBox="0 0 24 24" fill="none" xmlns="http://www.w3.org/2000/svg">
<path d="M9.82227 7.33252C10.4364 7.11655 10.914 7.47218 11.2705 7.82666C11.718 8.27229 11.9535 8.83179 12.0752 9.40869L12.1211 9.65674V9.65771C12.3241 10.9836 12.2734 12.3149 11.6338 13.5552L11.6348 13.5562C11.5971 13.6295 11.5758 13.6799 11.5664 13.7144C11.6002 13.7213 11.6534 13.7268 11.7344 13.7261C13.3108 13.713 14.869 13.7354 16.4414 13.7134C16.7591 13.7087 17.0618 13.7483 17.3213 13.8755C17.5851 14.0049 17.7941 14.2192 17.9307 14.5405L17.9736 14.6528C18.0646 14.9138 18.0828 15.1717 18.0215 15.4165C17.9514 15.6963 17.781 15.945 17.5254 16.1538C17.4933 16.1801 17.4799 16.1977 17.4746 16.2065L17.4717 16.2124C17.4717 16.2151 17.4724 16.2255 17.4814 16.2485C17.4909 16.2725 17.5056 16.3009 17.5264 16.3413H17.5254C17.723 16.724 17.808 17.064 17.7285 17.3882C17.6494 17.7108 17.4163 17.9834 17.0615 18.2515H17.0605L16.9814 18.3257C16.9814 18.326 16.9805 18.3274 16.9805 18.3286C16.9804 18.3312 16.9812 18.3358 16.9824 18.3433L17.0098 18.4292L17.0107 18.4312C17.1768 18.8578 17.2305 19.2193 17.1104 19.5425C16.9905 19.8644 16.7111 20.113 16.3018 20.3462H16.3008C16.2198 20.3914 16.2249 20.4083 16.2275 20.3979C16.2278 20.3967 16.2259 20.4028 16.2295 20.4233C16.2334 20.4452 16.2414 20.4735 16.2549 20.5161C16.4315 21.0743 16.371 21.5853 16.0947 21.9604C15.8186 22.3354 15.3476 22.5463 14.7627 22.5474C12.5244 22.5474 10.2882 22.5422 8.05176 22.5532H8.05078C7.84777 22.5532 7.66264 22.4923 7.50684 22.4399C7.34225 22.3846 7.21475 22.3416 7.09082 22.3403C7.05624 22.3406 7.03462 22.3515 7.01074 22.3774C6.98019 22.4107 6.95259 22.4621 6.91602 22.5396C6.88283 22.6098 6.84156 22.7034 6.78809 22.7856C6.73302 22.8703 6.65667 22.954 6.54492 23.0083L6.5459 23.0093C6.30175 23.1315 6.03281 23.1962 5.75977 23.1978H1.7002C1.27699 23.1951 0.934232 23.0875 0.697266 22.8472C0.460895 22.6074 0.35442 22.2607 0.349609 21.8335V14.1177C0.349609 13.6169 0.441135 13.2306 0.693359 12.9741C0.946311 12.7169 1.32754 12.6235 1.82031 12.6235C3.09107 12.6235 4.35809 12.6337 5.625 12.6177C5.93232 12.6135 6.22588 12.6526 6.47363 12.7837C6.72694 12.9179 6.9181 13.1414 7.03125 13.4751C7.04089 13.5035 7.05219 13.5205 7.05859 13.5317C7.06752 13.5275 7.08058 13.5229 7.09668 13.5132C7.11265 13.5035 7.12636 13.4949 7.14551 13.4829C7.16284 13.4721 7.18369 13.4599 7.20508 13.4487L7.40625 13.3354C8.38083 12.7467 8.86059 11.8189 9.05566 10.6753C9.16945 10.0102 9.15367 9.3437 9.16992 8.6499C9.17522 8.42601 9.17435 8.15342 9.25 7.91553C9.33003 7.66388 9.49655 7.44666 9.82227 7.3335V7.33252ZM4.4209 13.3608C4.23255 13.3453 4.18182 13.3831 4.16406 13.4048C4.1358 13.4394 4.11514 13.5166 4.11816 13.6987V13.6997C4.13721 14.9684 4.12503 16.239 4.12402 17.5083C4.12721 17.6433 4.12101 17.7782 4.10742 17.9126C4.10508 18.0009 4.07079 18.086 4.00977 18.1499C3.95158 18.2108 3.87353 18.2473 3.79004 18.2563L3.79102 18.2573H3.78809C3.78463 18.2577 3.78082 18.259 3.77734 18.2593L3.77637 18.2573C3.72981 18.2629 3.68285 18.2616 3.6377 18.2485C3.58785 18.2341 3.54181 18.2087 3.50293 18.1743C3.46419 18.1401 3.43351 18.0978 3.41309 18.0503C3.39527 18.0087 3.38659 17.9636 3.38574 17.9185V17.9194C3.37169 17.7803 3.36527 17.6403 3.36816 17.5005C3.36815 16.2192 3.35905 14.9336 3.37305 13.6499L3.36914 13.5493C3.36038 13.4661 3.34047 13.4293 3.32324 13.4116C3.30785 13.396 3.27469 13.3764 3.19434 13.3706L3.09766 13.3696C2.64925 13.3906 2.175 13.3697 1.74219 13.3765C1.45114 13.382 1.31105 13.4306 1.23535 13.5063C1.16024 13.5817 1.11283 13.7208 1.1123 14.0122C1.10696 16.6166 1.10696 19.2191 1.1123 21.8188V21.8198C1.11236 22.1032 1.16182 22.2463 1.24023 22.3247C1.29926 22.3837 1.39483 22.4258 1.55762 22.4438L1.74414 22.4536L3.69531 22.4585C4.34618 22.4585 4.99755 22.4566 5.64941 22.4536H5.65039C5.96449 22.4536 6.11449 22.4022 6.19531 22.3188C6.27753 22.2339 6.32663 22.0774 6.32715 21.7593L6.32422 17.9058V14.0981C6.3242 13.7494 6.2785 13.5889 6.19824 13.5044C6.11989 13.4222 5.9704 13.3731 5.63379 13.3696C5.24627 13.3697 4.82901 13.3945 4.4209 13.3608ZM10.5469 8.22021C10.3669 8.08552 10.2313 8.017 10.0898 8.07178C10.0169 8.10099 9.98852 8.14628 9.97168 8.21045C9.9611 8.25092 9.95658 8.29249 9.9541 8.33936L9.94727 8.50146C9.91022 9.16634 9.92624 9.87801 9.84668 10.5591C9.6556 12.2141 8.89329 13.5339 7.31055 14.2593L7.30957 14.2583C7.19126 14.3134 7.14795 14.3749 7.12598 14.4351C7.09936 14.5081 7.09766 14.5972 7.09766 14.731V20.9897C7.09766 21.2752 7.15735 21.4579 7.26172 21.5776C7.36531 21.6962 7.5354 21.7785 7.81445 21.8159C7.92413 21.8251 8.03458 21.8276 8.14453 21.8228H8.14941L11.4033 21.8003H14.8105C15.3033 21.8003 15.629 21.4813 15.6396 21.0903C15.645 20.8898 15.5755 20.7433 15.4512 20.6431C15.3217 20.5387 15.1163 20.4706 14.832 20.4683C14.0351 20.4623 13.2283 20.4685 12.4277 20.4575C12.38 20.4576 12.3445 20.4608 12.2793 20.4624C12.2239 20.4637 12.1566 20.4629 12.0918 20.4487C12.0256 20.4342 11.9503 20.4037 11.8926 20.3364C11.8343 20.2684 11.8093 20.181 11.8076 20.0854C11.806 19.9908 11.8278 19.9036 11.8818 19.8335C11.9357 19.7637 12.0082 19.7291 12.0742 19.7114C12.1387 19.6941 12.2063 19.6903 12.2627 19.6899C12.2914 19.6897 12.32 19.6903 12.3457 19.6909C12.3724 19.6915 12.396 19.692 12.418 19.6919H12.4189C13.5029 19.6919 14.5876 19.6921 15.6719 19.6851H15.6729C15.9431 19.685 16.1303 19.6184 16.2471 19.5171C16.3601 19.4189 16.4255 19.2715 16.4238 19.0659L16.4092 18.9292C16.3832 18.8024 16.3242 18.7043 16.2402 18.6323C16.1254 18.5341 15.9463 18.4695 15.6943 18.4663C15.0614 18.4573 14.4311 18.4663 13.793 18.4663C13.7442 18.4663 13.7114 18.4697 13.6445 18.4712C13.5893 18.4724 13.5212 18.471 13.4561 18.4556C13.3893 18.4397 13.314 18.4064 13.2588 18.3345C13.2037 18.2625 13.1843 18.1723 13.1875 18.0757L13.1943 18.0063C13.2058 17.9391 13.2318 17.8788 13.2754 17.8286C13.3329 17.7626 13.4068 17.7314 13.4727 17.7163C13.5371 17.7016 13.6037 17.6991 13.6592 17.6997C13.7255 17.7004 13.7603 17.7041 13.8096 17.7036H16.1641C16.4767 17.7036 16.6755 17.6447 16.7949 17.5513C16.9069 17.4635 16.9739 17.3254 16.9766 17.1011C16.9792 16.8786 16.9127 16.7332 16.7998 16.6382C16.7109 16.5635 16.5791 16.5085 16.3936 16.4839L16.1904 16.4692H13.9385C13.852 16.4692 13.7368 16.4602 13.6426 16.4019C13.5918 16.3704 13.5478 16.3249 13.5195 16.2632C13.5057 16.233 13.4961 16.2014 13.4912 16.1685L13.4883 16.0669C13.4921 16.0021 13.5102 15.9412 13.5459 15.8892C13.5822 15.8363 13.6301 15.8023 13.6777 15.7808C13.765 15.7413 13.8679 15.7371 13.9307 15.7339H14.2891C15.0735 15.7339 15.8578 15.734 16.6416 15.729H16.6426C16.7867 15.729 16.9084 15.7028 17.0049 15.6499C17.0988 15.5983 17.1774 15.5163 17.2324 15.3882L17.2354 15.3813C17.2888 15.2707 17.3103 15.147 17.2959 15.0249C17.2815 14.9028 17.2321 14.7871 17.1543 14.6919L17.1523 14.6899C16.992 14.4842 16.7668 14.48 16.4482 14.48H11.0889C11.0533 14.48 11.027 14.4819 10.9805 14.4829C10.9403 14.4838 10.8925 14.4835 10.8438 14.4761C10.7384 14.4599 10.6273 14.4095 10.5527 14.2827C10.4766 14.1532 10.4904 14.0293 10.5352 13.9292C10.554 13.8872 10.5815 13.8458 10.6074 13.8091L10.6738 13.7183C11.5833 12.4389 11.593 11.0062 11.3291 9.5083V9.50635C11.2445 8.9929 10.9639 8.53241 10.5469 8.22119V8.22021Z" fill="#FA8B02" stroke="#FA8B02" stroke-width="0.3"/>
<path d="M16.6586 0.803223C19.997 0.827936 22.8189 3.15869 23.5053 6.45166C24.1695 9.63739 22.4955 12.945 19.5317 14.2554L19.5307 14.2544C19.4729 14.2802 19.4075 14.3209 19.3237 14.3687C19.2451 14.4135 19.1527 14.4641 19.059 14.4966C18.9659 14.5288 18.8516 14.5502 18.7377 14.5132C18.6179 14.4741 18.5291 14.3803 18.4692 14.2485C18.4104 14.1191 18.3962 13.9917 18.4506 13.8774C18.5022 13.7694 18.6002 13.7064 18.685 13.6675C18.771 13.6281 18.8696 13.6014 18.9506 13.5796C19.039 13.5558 19.1046 13.5385 19.1508 13.5171L19.4018 13.394C21.9571 12.0703 23.3063 9.23422 22.6586 6.43799C22.0026 3.60266 19.4122 1.59433 16.4809 1.64502C15.1842 1.66704 13.9266 2.09665 12.8881 2.87354C11.8497 3.65042 11.083 4.73541 10.6957 5.97314H10.6948C10.6575 6.09164 10.619 6.23092 10.5756 6.35791L10.5746 6.35693C10.5615 6.40892 10.5403 6.45835 10.5082 6.50146C10.4724 6.54947 10.4262 6.58933 10.3735 6.61768C10.3207 6.64601 10.2624 6.66218 10.2026 6.66553C10.1472 6.66861 10.0925 6.65907 10.0405 6.64014V6.64209C10.0367 6.64098 10.0334 6.6384 10.0297 6.63721H10.0278V6.63623C9.92109 6.60142 9.83864 6.5353 9.7934 6.43994C9.74838 6.34479 9.74846 6.23986 9.76996 6.146C9.80399 5.97826 9.84763 5.81258 9.90082 5.6499L9.99359 5.38525C10.4819 4.07619 11.349 2.93933 12.4877 2.12256C13.7026 1.25123 15.1636 0.789454 16.6586 0.803223Z" fill="#FA8B02" stroke="#FA8B02" stroke-width="0.3"/>
<path d="M16.569 3.34424C16.6692 3.33762 16.7613 3.3524 16.8385 3.39697C16.9171 3.44238 16.9659 3.51022 16.9948 3.58057C17.0481 3.71046 17.0382 3.86684 17.0289 3.97119V3.97412C17.0134 4.11643 17.0457 4.16354 17.0719 4.18701C17.1121 4.22287 17.1878 4.25008 17.3326 4.2749C18.1045 4.40681 18.5893 4.89892 18.8346 5.60596C18.8681 5.70316 18.9256 5.85674 18.9264 6.00049C18.9268 6.07658 18.912 6.16082 18.8629 6.23779C18.8253 6.29665 18.7727 6.34373 18.7076 6.37842L18.6383 6.40869C18.5334 6.44722 18.43 6.45864 18.3356 6.42334C18.2397 6.38752 18.1821 6.31488 18.1471 6.24756C18.1131 6.1822 18.0928 6.10824 18.0778 6.04932C18.061 5.98352 18.0505 5.93632 18.0358 5.896V5.89502C17.9186 5.57792 17.724 5.34735 17.4723 5.20654C17.251 5.08278 16.9767 5.02336 16.6569 5.04346L16.5172 5.05713C16.1775 5.10065 15.9118 5.21885 15.7252 5.39014C15.5631 5.53897 15.4544 5.73401 15.4088 5.97119L15.3932 6.07568C15.3596 6.38227 15.4254 6.64677 15.5729 6.85693C15.7206 7.06732 15.9581 7.23501 16.2858 7.33252C16.4547 7.38077 16.6291 7.41469 16.8121 7.45361C16.9922 7.49191 17.1794 7.53483 17.361 7.6001L17.5162 7.66162C18.2703 7.99063 18.6802 8.63966 18.6774 9.45264L18.6725 9.61768C18.6475 9.9978 18.5348 10.3374 18.3326 10.6206C18.1015 10.9443 17.7604 11.1839 17.3248 11.3296V11.3306C17.189 11.3755 17.1152 11.4148 17.0748 11.4604C17.0419 11.4977 17.0156 11.5573 17.026 11.686L17.0387 11.8589C17.0398 11.925 17.0349 11.9963 17.0162 12.062C16.9959 12.1333 16.9567 12.208 16.8854 12.2642C16.8143 12.3201 16.7249 12.3468 16.6237 12.3511C16.5236 12.3552 16.4326 12.3368 16.3571 12.2886C16.2807 12.2399 16.2347 12.1707 16.2086 12.1001C16.1603 11.969 16.1725 11.813 16.1832 11.7104C16.1979 11.568 16.1712 11.5204 16.149 11.4976C16.1171 11.4648 16.0502 11.4338 15.8971 11.4038C15.0368 11.2339 14.4386 10.605 14.3151 9.81982V9.81885C14.3015 9.73165 14.2859 9.61361 14.318 9.50635C14.3354 9.44814 14.3671 9.39187 14.4186 9.34521C14.4691 9.29955 14.5315 9.2691 14.6022 9.25049C14.744 9.21319 14.8715 9.23135 14.9723 9.31787C15.059 9.39247 15.1067 9.50349 15.1403 9.59424C15.3162 10.0703 15.5349 10.3575 15.8092 10.5054C16.0835 10.6533 16.4441 10.6785 16.9391 10.563L16.9449 10.561C17.1999 10.5118 17.4294 10.3745 17.5924 10.1724C17.7555 9.97008 17.8416 9.7163 17.8356 9.45654V9.45264C17.8356 8.93129 17.5073 8.49748 16.9244 8.3335C16.7642 8.28853 16.5986 8.25909 16.4235 8.2251C16.2511 8.19165 16.0704 8.15431 15.8951 8.09521C15.0309 7.80352 14.548 7.09912 14.5533 6.20557C14.5535 5.75426 14.6665 5.35674 14.8981 5.03564C15.1301 4.71402 15.4732 4.48041 15.9156 4.34424L16.0074 4.31104C16.0845 4.27806 16.1235 4.24426 16.1451 4.2124C16.1665 4.18074 16.1816 4.13519 16.1832 4.05908L16.1803 3.97217C16.172 3.87496 16.1625 3.73285 16.2047 3.60986C16.2273 3.54423 16.2662 3.47784 16.3317 3.42725C16.3972 3.37663 16.4782 3.35032 16.569 3.34424Z" fill="#FA8B02" stroke="#FA8B02" stroke-width="0.3"/>
<path d="M4.83411 20.0273L4.83313 20.0283C4.96181 20.0247 5.08988 20.0455 5.21008 20.0918C5.33446 20.1397 5.44807 20.2122 5.54309 20.3057C5.63809 20.3991 5.71285 20.5112 5.76282 20.6348C5.81133 20.7548 5.83484 20.8833 5.83313 21.0127C5.84026 21.1497 5.81867 21.2866 5.77063 21.415C5.72257 21.5435 5.64907 21.6611 5.55383 21.7598C5.45852 21.8584 5.34363 21.9368 5.21692 21.9893C5.09079 22.0414 4.95495 22.0666 4.81848 22.0645H4.8175L4.81653 22.0654V22.0645C4.22745 22.0633 3.80504 21.6053 3.81653 21.0107C3.81374 20.8797 3.83757 20.7495 3.88684 20.6279C3.937 20.5042 4.01187 20.3919 4.10754 20.2988C4.20322 20.2057 4.31746 20.1337 4.4425 20.0869C4.56751 20.0402 4.70085 20.0199 4.83411 20.0273ZM4.84583 20.7686C4.74005 20.7686 4.67732 20.797 4.64075 20.8311C4.6048 20.8646 4.57528 20.9219 4.57141 21.0195C4.56743 21.1199 4.59163 21.1811 4.62317 21.2168C4.65355 21.2512 4.70876 21.2826 4.81165 21.2861L4.82922 21.2881C4.86121 21.2928 4.89403 21.2898 4.92493 21.2803C4.95583 21.2707 4.98419 21.2544 5.00793 21.2324C5.03172 21.2104 5.05071 21.1835 5.06262 21.1533C5.07448 21.1233 5.07951 21.0908 5.07727 21.0586L5.07629 21.043L5.07825 21.0283C5.0825 20.9957 5.07912 20.9621 5.06946 20.9307C5.05978 20.8994 5.04335 20.8702 5.02161 20.8457C4.99987 20.8213 4.97336 20.8013 4.94348 20.7881C4.91349 20.7748 4.88057 20.7682 4.84778 20.7686H4.84583Z" fill="#FA8B02" stroke="#FA8B02" stroke-width="0.3"/>
</svg>
