<svg width="24" height="24" viewBox="0 0 24 24" fill="none" xmlns="http://www.w3.org/2000/svg">
<g opacity="0.8" clip-path="url(#clip0_1_1681)">
<path d="M1.4814 13.0078C1.4814 12.3295 1.4741 11.6512 1.4814 10.973C1.50123 9.46094 2.0522 8.6898 3.49014 8.25988C3.84388 8.15553 3.78962 7.92283 3.80319 7.70265C3.91797 5.73044 4.67451 4.03997 5.99453 2.58951C8.1337 0.239552 11.6284 -0.616116 14.7182 0.458687C17.736 1.50845 19.9451 4.34572 20.1339 7.48038C20.1652 7.99065 20.3124 8.21083 20.8164 8.36423C21.7691 8.64597 22.3524 9.34929 22.4244 10.3406C22.5543 12.1268 22.5543 13.9201 22.4244 15.7063C22.343 16.8145 21.648 17.5063 20.5879 17.786C20.2696 17.8694 20.1527 18.0061 20.1485 18.3077C20.1448 18.499 20.1271 18.6898 20.0953 18.8785C19.6936 21.3412 18.3527 22.5057 15.6615 22.7395C15.4883 22.7589 15.3141 22.768 15.1397 22.7666C14.8079 22.7541 14.6493 22.8709 14.6107 23.232C14.5575 23.711 14.2183 23.9718 13.7498 23.9833C12.794 24.0056 11.8378 24.0056 10.8812 23.9833C10.3292 23.9729 9.97861 23.6212 9.9473 23.0609C9.91961 22.5743 9.91961 22.0865 9.9473 21.6C9.98174 21.0323 10.3146 20.7046 10.8864 20.6921C11.8256 20.6702 12.7647 20.6733 13.7039 20.6921C14.2256 20.7025 14.57 20.9791 14.6076 21.5133C14.6316 21.8577 14.7787 21.8974 15.074 21.8671C15.8045 21.793 16.5297 21.7367 17.2215 21.4716C18.4862 20.9874 19.4296 19.4284 19.2626 18.1324C19.2261 17.8475 19.0341 17.9237 18.8796 17.9154C17.976 17.8705 17.9509 17.8486 17.9499 16.948C17.9499 14.3219 17.9499 11.6961 17.9499 9.07067C17.9499 8.25049 18.0156 8.16701 18.8358 8.16909C19.1781 8.16909 19.2783 8.07622 19.2605 7.72561C19.0737 4.00032 16.0257 1.06705 12.1324 0.889651C8.57719 0.719561 5.25365 3.52344 4.78199 7.09533C4.77155 7.1809 4.76007 7.26751 4.7486 7.35308C4.64946 8.10335 4.64946 8.11379 5.39035 8.14718C5.82444 8.16596 6.01645 8.36944 6.01645 8.79937C6.01645 11.6168 6.01645 14.4343 6.01645 17.2517C6.01645 17.7088 5.82236 17.931 5.358 17.9154C4.78512 17.8945 4.21015 17.9581 3.6404 17.8538C2.41116 17.6347 1.63584 16.8541 1.53462 15.6134C1.46366 14.7504 1.52106 13.877 1.52106 13.0047L1.4814 13.0078ZM5.09191 13.0297V10.0036C5.09191 9.00807 5.09191 9.00807 4.07137 9.05607C3.09883 9.10198 2.43307 9.65608 2.41012 10.5775C2.36838 12.2106 2.37255 13.8457 2.41012 15.4819C2.4289 16.276 2.9496 16.7978 3.73327 16.9428C4.00458 16.9908 4.28841 16.9637 4.56807 16.996C4.97086 17.043 5.11591 16.9032 5.10547 16.4795C5.0773 15.3254 5.09504 14.1776 5.09504 13.0297H5.09191ZM18.8734 13.0297C18.8734 14.1943 18.8838 15.3598 18.8661 16.5244C18.8661 16.8813 18.9642 17.0461 19.3367 17.0023C19.5454 16.9793 19.7541 17.0023 19.9628 16.9846C20.9019 16.9094 21.5145 16.3585 21.5427 15.4308C21.5907 13.8322 21.5896 12.2304 21.5593 10.6307C21.5468 9.80843 21.047 9.28668 20.2247 9.1312C19.9367 9.07694 19.6351 9.10302 19.343 9.06963C18.9798 9.02685 18.8619 9.16355 18.8682 9.5319C18.889 10.6964 18.8765 11.862 18.8765 13.0276L18.8734 13.0297ZM12.2733 23.0702H12.6907C13.8124 23.0702 13.803 23.0702 13.7477 21.9568C13.7352 21.6866 13.6434 21.5926 13.3815 21.5968C12.651 21.6073 11.9289 21.5968 11.2026 21.5968C11.0492 21.5968 10.8593 21.577 10.8604 21.8055C10.8604 22.2 10.7195 22.6497 10.9251 22.9711C11.0805 23.2132 11.5052 23.0358 11.8079 23.0619C11.9633 23.0786 12.1251 23.0682 12.2764 23.0682L12.2733 23.0702Z" fill="#FA8B02" stroke="#FA8B02" stroke-width="0.2"/>
</g>
<defs>
<clipPath id="clip0_1_1681">
<rect width="24" height="24" fill="white"/>
</clipPath>
</defs>
</svg>
