<svg width="24" height="24" viewBox="0 0 24 24" fill="none" xmlns="http://www.w3.org/2000/svg">
<g opacity="0.8" clip-path="url(#clip0_1_1738)">
<path d="M21.6524 3.60791C21.826 3.59307 21.9805 3.61226 22.1046 3.69092C22.2745 3.79892 22.3573 3.99898 22.3848 4.27686C22.4188 4.6179 22.472 4.95743 22.5255 5.30029C22.5788 5.64227 22.6326 5.98771 22.6661 6.33545L22.6837 6.46436C22.7051 6.5781 22.7381 6.64949 22.7842 6.6958C22.8431 6.7548 22.9442 6.79233 23.1456 6.78857C23.3503 6.78467 23.5138 6.78475 23.6407 6.80127C23.7679 6.81784 23.8751 6.85363 23.9532 6.93408C24.0305 7.01389 24.0636 7.12262 24.0801 7.24951C24.0967 7.37667 24.0984 7.53992 24.0987 7.74268C24.0987 8.9234 24.0908 10.1024 24.0987 11.2817L24.0948 11.4399C24.0845 11.5941 24.0536 11.7347 23.9756 11.8491C23.8674 12.0079 23.684 12.0944 23.4122 12.1265H23.4112C23.0581 12.1651 22.7318 12.3333 22.4952 12.5981C22.2585 12.8631 22.1276 13.2068 22.129 13.562V13.5649C22.118 13.9282 22.2436 14.2826 22.4805 14.5581C22.6879 14.7992 22.968 14.9641 23.2764 15.0308L23.4102 15.0532L23.4131 15.0542C23.6589 15.0916 23.833 15.1743 23.9395 15.3237C24.0432 15.4693 24.0684 15.6588 24.0655 15.8735C24.0486 17.1089 24.0419 18.3434 24.0655 19.5776C24.0707 19.8552 24.0227 20.0716 23.876 20.2134C23.7307 20.3538 23.5124 20.3981 23.2393 20.397C19.4823 20.3801 15.7183 20.3862 11.9551 20.3862H0.831116C0.639959 20.3862 0.485157 20.3836 0.363342 20.3647C0.240919 20.3458 0.13734 20.3088 0.0606079 20.231C-0.0158892 20.1533 -0.0517649 20.0487 -0.0702515 19.9253C-0.0886818 19.8022 -0.0917358 19.6453 -0.0917358 19.4517C-0.0917346 18.2527 -0.0806113 17.0557 -0.0985718 15.8579C-0.102079 15.6311 -0.0655989 15.4431 0.0498657 15.3032C0.166055 15.1627 0.346007 15.0899 0.581116 15.0552L0.585022 15.0542C0.946102 15.0145 1.27964 14.8415 1.51862 14.5679C1.75767 14.2942 1.88435 13.9399 1.87506 13.5767V13.5737C1.87864 13.2184 1.75108 12.8739 1.51666 12.6069C1.28236 12.3401 0.958042 12.169 0.60553 12.1265H0.603577C0.359356 12.0923 0.18008 12.0166 0.0674438 11.8735C-0.0434228 11.7325 -0.0744744 11.5456 -0.0722046 11.3276C-0.0598469 10.0739 -0.0526883 8.81938 -0.0751343 7.56689C-0.0798316 7.31357 -0.0267137 7.11851 0.106506 6.979C0.237533 6.84184 0.430041 6.77594 0.66217 6.7417L9.85358 5.38623C12.9169 4.93233 15.9803 4.47646 19.043 4.01807C19.8535 3.8965 20.6662 3.78452 21.4727 3.6333L21.6524 3.60791ZM22.7979 7.69092C21.487 7.71003 20.1753 7.69775 18.8643 7.69775C18.6737 7.69775 18.5385 7.69826 18.4385 7.70947C18.3386 7.72072 18.2939 7.74164 18.2686 7.76611C18.2433 7.79082 18.2204 7.83589 18.2051 7.93701C18.19 8.03795 18.1849 8.17508 18.1778 8.36865C18.1734 8.49747 18.164 8.64834 18.1055 8.76904C18.075 8.8321 18.0304 8.88929 17.9649 8.93115C17.8997 8.97279 17.8205 8.99589 17.7276 9.00049C17.6345 9.0051 17.5526 8.98945 17.4835 8.95361C17.4139 8.91754 17.3635 8.86399 17.3282 8.80225C17.26 8.68314 17.2458 8.53032 17.2452 8.396L17.2413 8.22998C17.2399 8.17016 17.2393 8.10752 17.2452 8.04834L17.2491 7.94385C17.2449 7.85391 17.2185 7.80597 17.1866 7.77783C17.1378 7.73508 17.047 7.7095 16.8858 7.70947C14.2741 7.71284 11.6624 7.71436 9.05084 7.71436L1.21686 7.70947C1.05191 7.70949 0.970173 7.73527 0.926819 7.77588C0.885872 7.81441 0.855233 7.88987 0.858459 8.05713C0.876455 9.01233 0.874203 9.96959 0.858459 10.9243C0.858669 11.0595 0.884478 11.1365 0.926819 11.1899C0.971246 11.2459 1.04605 11.2914 1.17682 11.3384H1.17584C2.20982 11.7029 2.80436 12.5588 2.8067 13.606C2.80891 14.6548 2.22303 15.477 1.16803 15.8579C1.03279 15.9067 0.96195 15.955 0.921936 16.0103C0.882817 16.0644 0.861711 16.1417 0.864319 16.2778V16.2788C0.878902 17.1761 0.901648 18.0791 0.856506 18.9819C0.843968 19.2365 0.889117 19.3476 0.956116 19.4038C1.03005 19.4656 1.16157 19.4905 1.3985 19.4888C3.94716 19.4663 6.49382 19.477 9.03912 19.4771H16.7921C16.9722 19.4771 17.0814 19.4627 17.1465 19.4175C17.1992 19.3808 17.2456 19.3047 17.2383 19.1021C17.2354 19.0291 17.225 18.9505 17.2169 18.855C17.2091 18.7648 17.2041 18.6647 17.2178 18.5718C17.2317 18.4782 17.2656 18.381 17.3438 18.3081C17.423 18.2344 17.5338 18.1977 17.6739 18.1958L17.7803 18.2007C17.8807 18.2124 17.9632 18.2444 18.0274 18.2983C18.1131 18.3706 18.1517 18.47 18.168 18.5669C18.1841 18.6626 18.1804 18.7662 18.1739 18.8599C18.167 18.9586 18.1576 19.0427 18.1573 19.1187C18.1567 19.2777 18.179 19.3596 18.2178 19.4048C18.2529 19.4455 18.3234 19.4802 18.4932 19.478C19.9355 19.4612 21.3776 19.4636 22.8194 19.4771C22.9796 19.477 23.0643 19.4548 23.1114 19.4146C23.1536 19.3785 23.1888 19.3074 23.1856 19.1392C23.1676 18.1842 23.171 17.2272 23.1856 16.2729L23.1817 16.1821C23.1735 16.1006 23.1525 16.047 23.1221 16.0063C23.0809 15.9511 23.0098 15.9036 22.876 15.856H22.8751C22.3538 15.6688 21.9507 15.3769 21.6768 14.9917C21.4371 14.6543 21.2997 14.25 21.2657 13.7925L21.2579 13.5933C21.2485 12.5649 21.8468 11.7037 22.8799 11.3257C23.0232 11.2726 23.1022 11.2165 23.1475 11.1519C23.1922 11.0878 23.215 10.9998 23.213 10.8589C23.1983 9.94053 23.1927 9.02247 23.213 8.104V8.10303C23.2178 7.91353 23.185 7.82078 23.1348 7.771C23.084 7.72064 22.9889 7.68818 22.7979 7.69092ZM21.4532 4.65088C21.406 4.61784 21.3223 4.6031 21.1573 4.63037C20.0493 4.81485 18.9374 4.9679 17.8272 5.12842H17.8262C17.5959 5.16104 17.4304 5.18436 17.3087 5.21436C17.1868 5.24441 17.1269 5.27689 17.0928 5.31592C17.0596 5.35406 17.0374 5.41423 17.0294 5.53271C17.0213 5.65185 17.0283 5.81143 17.0391 6.03564C17.045 6.15683 17.0363 6.28511 16.9805 6.39111C16.9207 6.50454 16.8145 6.57876 16.6602 6.60205C16.5055 6.62533 16.3801 6.58464 16.2901 6.4917C16.2054 6.40426 16.162 6.2814 16.1397 6.15967V6.15869C16.1084 6.04454 16.0891 5.92736 16.084 5.80908V5.80127C16.0916 5.59196 16.0458 5.50847 15.9913 5.47119C15.9274 5.42782 15.8111 5.41578 15.6075 5.44775C13.4656 5.78488 11.319 6.09736 9.17584 6.41748C8.27946 6.5516 7.38368 6.68241 6.48932 6.81299H16.9005C18.4137 6.81299 19.9344 6.79929 21.4454 6.82178L21.5801 6.81689C21.6932 6.8055 21.7462 6.77579 21.7715 6.74365C21.7978 6.71014 21.8121 6.65146 21.8018 6.54346L21.7833 6.41748C21.6837 5.91973 21.6109 5.41584 21.5567 4.9126C21.5378 4.75111 21.4982 4.68249 21.4532 4.65088Z" fill="#FA8B02" stroke="#FA8B02" stroke-width="0.2"/>
<path d="M13.793 14.7148C13.793 14.8302 13.7694 14.9256 13.7198 15.001C13.6695 15.0774 13.5987 15.1239 13.5235 15.1514C13.4501 15.1781 13.37 15.1885 13.295 15.1924C13.2206 15.1962 13.141 15.1941 13.0743 15.1943H4.88092C4.81368 15.1943 4.7353 15.196 4.66022 15.1914C4.58473 15.1868 4.50404 15.1756 4.43073 15.1475C4.35598 15.1188 4.28625 15.0713 4.23737 14.9941C4.18897 14.9175 4.16712 14.8206 4.16998 14.7051C4.17262 14.5993 4.19787 14.5112 4.24713 14.4414C4.29674 14.3712 4.36447 14.3286 4.43561 14.3027C4.56982 14.254 4.73721 14.2598 4.86041 14.2598H13.1104C13.2349 14.2598 13.4018 14.2549 13.5352 14.3057C13.6059 14.3326 13.6727 14.377 13.7208 14.4482C13.7686 14.519 13.7921 14.6078 13.793 14.7139V14.7148Z" fill="#FA8B02" stroke="#FA8B02" stroke-width="0.2"/>
<path d="M13.0829 16.4966C13.1488 16.4966 13.229 16.4943 13.3036 16.4976C13.3792 16.5008 13.4601 16.5106 13.5341 16.5366C13.6098 16.5632 13.6819 16.6082 13.7324 16.6851C13.7822 16.761 13.8035 16.8574 13.8007 16.9731C13.7978 17.0895 13.7705 17.1854 13.7167 17.2593C13.6626 17.3335 13.5891 17.3765 13.5126 17.4009C13.4376 17.4247 13.3565 17.432 13.2812 17.4341C13.2084 17.4361 13.1264 17.4331 13.0634 17.4331H4.74994C4.62562 17.4291 4.48574 17.4124 4.37396 17.3481C4.25276 17.2784 4.17537 17.1588 4.16986 16.9819C4.16696 16.8875 4.18256 16.8053 4.21771 16.7358C4.25322 16.6657 4.30557 16.6145 4.36713 16.5786C4.48563 16.5098 4.63823 16.4966 4.77338 16.4966H13.0829Z" fill="#FA8B02" stroke="#FA8B02" stroke-width="0.2"/>
<path d="M13.1147 12.0229C13.2404 12.0229 13.4066 12.019 13.5395 12.0708C13.6097 12.0982 13.6752 12.1428 13.7231 12.2134C13.7707 12.2836 13.7957 12.3718 13.7983 12.4771C13.8008 12.5825 13.7794 12.6717 13.7338 12.7437C13.6879 12.816 13.623 12.8624 13.5532 12.8911C13.487 12.9183 13.4121 12.9315 13.3383 12.938L13.1284 12.9438C11.7262 12.9405 10.3244 12.939 8.9223 12.939H4.88519C4.82139 12.939 4.74214 12.941 4.6684 12.938C4.59331 12.9349 4.512 12.9261 4.43793 12.8999C4.36213 12.8731 4.2904 12.8268 4.24066 12.7485C4.19159 12.6713 4.17047 12.5732 4.17523 12.4556C4.17954 12.3505 4.20704 12.2632 4.25824 12.1948C4.30954 12.1265 4.3784 12.0853 4.44965 12.061C4.58441 12.0151 4.75229 12.0229 4.8725 12.0229H13.1147Z" fill="#FA8B02" stroke="#FA8B02" stroke-width="0.2"/>
<path d="M8.79321 9.76562C8.91612 9.76562 9.06977 9.76705 9.19263 9.82227C9.25723 9.85138 9.31629 9.8962 9.35864 9.96387C9.40058 10.0309 9.42206 10.1132 9.42407 10.21C9.42602 10.3066 9.40798 10.3901 9.36938 10.459C9.33034 10.5285 9.27373 10.5764 9.21021 10.6084C9.08892 10.6692 8.9352 10.6758 8.80884 10.6758H4.77759C4.65364 10.6758 4.49764 10.6712 4.37622 10.6104C4.31213 10.5781 4.25538 10.5291 4.21802 10.457C4.1812 10.3859 4.16704 10.3001 4.17407 10.2012L4.18286 10.1338C4.19448 10.069 4.21652 10.0123 4.24927 9.96387C4.29317 9.89898 4.35181 9.85498 4.41626 9.82617C4.53915 9.77123 4.68945 9.76879 4.81665 9.77148L6.83228 9.76562H8.79321Z" fill="#FA8B02" stroke="#FA8B02" stroke-width="0.2"/>
<path d="M17.7308 9.93848C17.8826 9.94743 17.9965 10.0117 18.0697 10.1162C18.1393 10.2158 18.1647 10.3421 18.1683 10.4668V10.4707C18.1672 10.8306 18.1654 11.1853 18.1654 11.54V12.6074C18.1618 12.7439 18.1313 12.881 18.0502 12.9844C17.9649 13.093 17.835 13.1505 17.6674 13.1445H17.6664C17.509 13.1376 17.394 13.0707 17.3226 12.9629C17.272 12.8864 17.2477 12.7952 17.2386 12.7031L17.2338 12.6113C17.2293 11.9012 17.2293 11.1896 17.2338 10.4766L17.2396 10.375C17.2511 10.2739 17.2816 10.1769 17.3422 10.0986C17.4272 9.98883 17.5585 9.93185 17.7289 9.93848H17.7308Z" fill="#FA8B02" stroke="#FA8B02" stroke-width="0.2"/>
<path d="M17.7233 14.0635C17.8964 14.073 18.0169 14.1486 18.0876 14.2686C18.1534 14.3804 18.1696 14.5199 18.1696 14.6494L18.1657 15.6562V16.7217C18.1655 16.8565 18.1375 16.9935 18.0583 17.0986C17.9751 17.2088 17.846 17.2695 17.6765 17.2695H17.6735C17.5144 17.2653 17.399 17.2003 17.3268 17.0928C17.2591 16.9915 17.2371 16.8637 17.2341 16.7441V16.7422C17.2273 16.0316 17.2273 15.3212 17.2341 14.6113C17.2342 14.4777 17.2601 14.3376 17.3376 14.2305C17.42 14.1166 17.5505 14.054 17.7233 14.0635Z" fill="#FA8B02" stroke="#FA8B02" stroke-width="0.2"/>
</g>
<defs>
<clipPath id="clip0_1_1738">
<rect width="24" height="24" fill="white"/>
</clipPath>
</defs>
</svg>
