<svg width="24" height="24" viewBox="0 0 24 24" fill="none" xmlns="http://www.w3.org/2000/svg">
<g clip-path="url(#clip0_1_1429)">
<path d="M7.92817 7.73352C8.62437 5.29283 10.0301 4.07248 12.06 4.09248C14.0246 4.11249 15.4277 5.36351 16.0705 7.73886C16.1559 7.49479 16.2119 7.32541 16.2732 7.15736C16.752 5.86632 17.679 5.09677 19.042 4.98474C20.2957 4.88337 21.3093 5.4342 21.9415 6.52251C22.6257 7.69351 22.5484 8.87518 21.7401 9.96083C21.46 10.3356 21.4827 10.437 21.8988 10.6477C23.2966 11.3519 23.9821 12.5269 23.9968 14.0887C24.0154 16.0039 24.0141 16.0052 22.1656 16.6134C21.6827 16.7845 21.1821 16.9004 20.6732 16.9588C20.3677 16.9868 20.125 16.8868 20.077 16.5681C20.029 16.2493 20.2317 16.0679 20.5304 16.0186C21.2556 15.91 21.9627 15.7036 22.6324 15.4051C22.8098 15.3237 23.0325 15.2717 23.0325 15.0116C23.0325 14.2807 23.1259 13.5365 22.7924 12.847C22.3803 11.9947 21.7321 11.4079 20.7705 11.2932C19.7753 11.1885 18.7721 11.1858 17.7763 11.2852C17.5118 11.3169 17.2544 11.3927 17.0148 11.5093C16.2346 11.8627 16.2252 11.9814 16.8134 12.6003C17.6173 13.417 18.0896 14.5029 18.1391 15.6478C18.1631 16.1813 18.0831 16.7228 18.1604 17.2482C18.2938 18.1192 17.8804 18.5019 17.1255 18.8194C13.5138 20.3371 9.95809 20.2718 6.41841 18.5966C5.99562 18.3966 5.81423 18.1445 5.84758 17.6737C5.88492 17.1402 5.86225 16.6067 5.84758 16.0732C5.82357 14.6062 6.32638 13.3685 7.41603 12.3989C7.7788 12.0761 7.66143 11.9321 7.35468 11.716C6.34505 11.0038 3.08679 11.0198 2.08917 11.752C1.18891 12.4175 0.667427 13.9833 0.971514 15.0556C1.04087 15.2957 1.23826 15.3437 1.40764 15.4211C2.0365 15.7034 2.7011 15.8981 3.38287 15.9999C3.69763 16.0466 3.96704 16.1826 3.92303 16.5454C3.87368 16.9455 3.56026 16.9962 3.21749 16.9455C2.19586 16.7948 1.24493 16.4307 0.321995 15.9826C0.237409 15.9512 0.163762 15.8959 0.110012 15.8235C0.0562626 15.751 0.0247269 15.6645 0.0192411 15.5744C0.0312446 14.5368 -0.132802 13.4858 0.321995 12.4869C0.691358 11.6432 1.36045 10.9665 2.19987 10.5877C2.46661 10.4636 2.59998 10.397 2.35724 10.0835C1.46365 8.95521 1.34629 7.72419 2.0905 6.4825C2.73602 5.40619 3.75364 4.86337 5.00734 4.99141C6.48909 5.14212 7.41869 6.02103 7.81881 7.45478C7.83615 7.51746 7.86949 7.57615 7.92817 7.73352ZM12.004 12.1281C11.4705 12.1281 10.937 12.1094 10.4035 12.1281C9.46236 12.1733 8.57244 12.5702 7.91 13.2403C7.24755 13.9104 6.86087 14.8048 6.82652 15.7465C6.81185 16.1906 6.85587 16.6387 6.80785 17.0802C6.75184 17.5937 6.98124 17.8284 7.4307 18.0138C10.3155 19.1901 13.215 19.2542 16.1385 18.1819C17.1935 17.7937 17.1895 17.7817 17.1882 16.6868C17.1882 16.376 17.1882 16.0652 17.1802 15.7532C17.1465 14.8111 16.7604 13.9161 16.0981 13.2452C15.4359 12.5744 14.546 12.1766 13.6045 12.1308C13.071 12.1081 12.5375 12.1281 12.004 12.1281ZM15.0542 8.08029C15.0494 7.27097 14.7234 6.4967 14.1477 5.9278C13.5721 5.3589 12.794 5.04198 11.9847 5.04675C11.1753 5.05153 10.4011 5.37761 9.83218 5.95326C9.26328 6.52891 8.94636 7.30698 8.95113 8.1163C8.9618 9.76077 10.3862 11.1745 12.0213 11.1612C13.6565 11.1478 15.0716 9.72476 15.0542 8.08029ZM4.7766 10.2516C5.34942 10.2438 5.89579 10.0092 6.29584 9.59916C6.69589 9.18911 6.91696 8.63712 6.91055 8.06429C6.89054 6.89328 5.87692 5.89833 4.71659 5.91967C3.55625 5.94101 2.5493 6.97464 2.5693 8.1243C2.5867 8.69686 2.82734 9.2399 3.23979 9.6374C3.65224 10.0349 4.2038 10.2553 4.7766 10.2516ZM19.2541 10.2516C19.8266 10.2479 20.375 10.0208 20.7826 9.61873C21.1901 9.21665 21.4246 8.67135 21.436 8.09896C21.4216 7.52664 21.1886 6.98157 20.7847 6.57576C20.3809 6.16994 19.837 5.93421 19.2648 5.917C18.6913 5.92765 18.1444 6.16055 17.7393 6.56661C17.3343 6.97267 17.1027 7.52015 17.0935 8.09363C17.0949 8.6661 17.323 9.21471 17.7279 9.61939C18.1329 10.0241 18.6816 10.2519 19.2541 10.2529V10.2516ZM9.46995 11.2039C8.62479 10.4679 8.08493 9.44292 7.95618 8.32969C7.80947 8.76849 7.75346 9.0339 7.63609 9.2633C7.4427 9.64874 6.96923 10.0902 7.05726 10.3703C7.15462 10.6877 7.80014 10.7957 8.10022 11.0998C8.51901 11.5279 8.90312 11.5893 9.46995 11.2039ZM14.474 11.2772C14.9529 11.3372 15.2423 11.712 15.601 11.3519C15.9425 11.0025 16.3507 10.7254 16.8014 10.537C17.0001 10.4556 17.1201 10.3609 16.9227 10.1596C16.468 9.69675 16.2852 9.09258 16.0345 8.33103C15.8878 9.58339 15.3476 10.4556 14.4727 11.2772H14.474Z" fill="#333333"/>
</g>
<defs>
<clipPath id="clip0_1_1429">
<rect width="24" height="24" fill="white"/>
</clipPath>
</defs>
</svg>
