<svg width="44" height="44" viewBox="0 0 44 44" fill="none" xmlns="http://www.w3.org/2000/svg">
<path d="M21.875 0C9.79492 0 0 9.79492 0 21.875C0 33.9551 9.79492 43.75 21.875 43.75C33.9551 43.75 43.75 33.9551 43.75 21.875C43.75 9.79492 33.9551 0 21.875 0ZM32.3877 16.4893C32.4023 16.7188 32.4023 16.958 32.4023 17.1924C32.4023 24.3604 26.9434 32.6172 16.9678 32.6172C13.8916 32.6172 11.04 31.7236 8.6377 30.1855C9.07715 30.2344 9.49707 30.2539 9.94629 30.2539C12.4854 30.2539 14.8193 29.3945 16.6797 27.9395C14.2969 27.8906 12.2949 26.3281 11.6113 24.1797C12.4463 24.3018 13.1982 24.3018 14.0576 24.082C12.8307 23.8328 11.7279 23.1664 10.9366 22.1962C10.1453 21.226 9.71429 20.0118 9.7168 18.7598V18.6914C10.4346 19.0967 11.2793 19.3457 12.1631 19.3799C11.4201 18.8847 10.8108 18.2139 10.3892 17.4269C9.9676 16.6399 9.7467 15.761 9.74609 14.8682C9.74609 13.8574 10.0098 12.9346 10.4834 12.1338C11.8452 13.8102 13.5446 15.1814 15.471 16.158C17.3975 17.1347 19.5079 17.6951 21.665 17.8027C20.8984 14.1162 23.6523 11.1328 26.9629 11.1328C28.5254 11.1328 29.9316 11.7871 30.9229 12.8418C32.1484 12.6123 33.3203 12.1533 34.3652 11.5381C33.96 12.793 33.1104 13.8525 31.9824 14.5215C33.0762 14.4043 34.1309 14.1016 35.1074 13.6768C34.3701 14.7607 33.4473 15.7227 32.3877 16.4893Z" fill="#FA8B02"/>
</svg>
