<svg width="24" height="24" viewBox="0 0 24 24" fill="none" xmlns="http://www.w3.org/2000/svg">
<g opacity="0.8" clip-path="url(#clip0_1_1715)">
<path d="M12.0095 0C12.357 0 12.7045 0 13.053 0C13.5299 0.00937608 13.8106 0.269823 13.8398 0.72925C13.869 1.18868 13.9013 1.6356 13.5779 2.06586C13.2993 2.4357 13.4735 2.85241 13.7793 3.19203C14.42 3.89941 15.0398 4.62761 15.693 5.32353C15.953 5.59268 16.1564 5.9111 16.2912 6.26001C16.426 6.60892 16.4894 6.98124 16.4777 7.35501C16.4652 9.48963 16.4714 11.6263 16.4777 13.7578C16.4789 14.2445 16.3816 14.7264 16.1918 15.1747C15.5135 16.7915 15.502 18.4167 16.1918 20.0304C16.5685 20.9159 16.5309 21.8327 16.4276 22.7391C16.3922 23.0736 16.2327 23.3828 15.9805 23.6058C15.7284 23.8289 15.4017 23.9497 15.0648 23.9444C14.156 23.9569 13.2241 24.1121 12.3716 23.585C12.0773 23.4037 11.7288 23.4944 11.4231 23.66C10.5236 24.1486 9.5563 24.0017 8.6203 23.8819C7.95665 23.8027 7.54656 23.2318 7.52048 22.5474C7.48396 21.5764 7.52048 20.6336 7.90657 19.6918C8.469 18.3115 8.43457 16.8655 7.89509 15.4726C7.62806 14.7954 7.49517 14.073 7.50378 13.3453C7.52604 11.3506 7.52604 9.35524 7.50378 7.35918C7.49106 6.98643 7.5536 6.61493 7.6877 6.26681C7.82179 5.9187 8.02469 5.60109 8.2843 5.3329C8.93543 4.63387 9.56152 3.91295 10.1949 3.19828C10.5998 2.7399 10.6008 2.42215 10.2993 1.90334C10.0186 1.42516 10.0593 0.899062 10.2408 0.400046C10.3452 0.118764 10.6144 0.00416715 10.918 0.00312536L12.0095 0ZM8.33856 20.6013C8.5337 20.6149 8.6683 20.6295 8.80291 20.6336C9.0617 20.642 9.32465 20.6711 9.31213 21.0076C9.30274 21.3035 9.05648 21.3837 8.82274 21.341C8.21857 21.2306 8.16535 21.5681 8.21126 22.0234C8.23004 22.2119 8.21126 22.4057 8.23526 22.5943C8.27074 22.8974 8.45022 23.1704 8.73196 23.1964C9.51874 23.2673 10.3295 23.4339 11.0819 23.0433C11.5921 22.7787 12.1389 22.6464 12.6273 22.9328C13.3994 23.385 14.2113 23.2454 15.0158 23.2454C15.4833 23.2454 15.7358 22.9422 15.7681 22.4776C15.7827 22.2536 15.7504 22.0244 15.7775 21.8015C15.8245 21.4285 15.6732 21.3379 15.3132 21.342C13.8523 21.3618 12.3914 21.3504 10.9306 21.3504C10.7914 21.3546 10.652 21.3515 10.5132 21.341C10.2982 21.3181 10.1459 21.1993 10.1511 20.9753C10.1511 20.7774 10.3013 20.669 10.4944 20.6472C10.6332 20.636 10.7725 20.6322 10.9118 20.6357C12.3372 20.6357 13.7626 20.6274 15.19 20.6357C15.5354 20.6357 15.6544 20.5919 15.5031 20.2096C14.7862 18.3969 14.8196 16.5863 15.5834 14.7923C15.6452 14.6491 15.6971 14.5019 15.7389 14.3516C15.8328 13.9995 15.7629 13.8308 15.3215 13.8308C13.2001 13.8537 11.0798 13.8412 8.9563 13.8412C8.12152 13.8412 8.05787 13.937 8.36256 14.7184C8.38135 14.7663 8.40535 14.8132 8.42726 14.86C8.86448 15.8289 9.01265 16.8499 8.98135 17.9052C8.94562 18.8372 8.72724 19.7532 8.33856 20.6013ZM15.6429 10.6762L15.7619 10.6137C15.7619 10.0157 15.7619 9.41671 15.7619 8.81872C15.7619 8.58224 15.5949 8.59786 15.4394 8.58432C15.2067 8.56453 15.022 8.47077 15.0387 8.20719C15.0523 7.97487 15.2307 7.89466 15.4405 7.88111C15.596 7.86965 15.765 7.88111 15.7619 7.64775C15.7556 7.21645 15.8078 6.78203 15.5887 6.37573C15.4655 6.14654 15.3487 6.04236 15.0669 6.15904C14.7385 6.30389 14.3781 6.36167 14.0208 6.32682C13.6634 6.29196 13.3211 6.16564 13.0269 5.96006C12.3205 5.48709 11.6495 5.48501 10.9473 5.96006C10.3838 6.3424 9.75248 6.41011 9.09926 6.23717C8.52013 6.08507 8.35004 6.17883 8.24778 6.77161C8.2123 6.97997 8.23422 7.18833 8.20604 7.39668C8.15074 7.79777 8.33022 7.89362 8.709 7.88945C10.2742 7.87174 11.8394 7.88111 13.4047 7.88216C13.5606 7.8785 13.7167 7.88371 13.8721 7.89778C14.0652 7.91966 14.1998 8.0228 14.2029 8.23115C14.2056 8.27499 14.1993 8.31891 14.1845 8.36025C14.1697 8.4016 14.1466 8.4395 14.1166 8.47165C14.0866 8.50381 14.0504 8.52954 14.0102 8.5473C13.97 8.56505 13.9266 8.57446 13.8826 8.57494C13.7272 8.58992 13.5711 8.59548 13.4151 8.59161C11.8687 8.59161 10.3222 8.61141 8.77683 8.58119C8.29996 8.56765 8.18413 8.71871 8.19874 9.16772C8.23109 10.1553 8.20604 11.1471 8.2123 12.1337C8.2123 12.2775 8.15283 12.4462 8.32396 12.5994C8.88639 12.1118 9.44674 11.6274 10.0029 11.1409C10.3055 10.8742 10.6989 10.6304 11.0401 10.8346C11.6662 11.2065 11.9375 10.8044 12.2798 10.4512C12.5208 10.2022 12.7608 9.95114 13.0165 9.7157C13.58 9.19481 14.1643 9.19481 14.7236 9.7157C15.046 10.022 15.3403 10.3554 15.6429 10.6762ZM14.8613 5.47459C14.2979 4.8391 13.7813 4.25882 13.2669 3.67542C13.0718 3.45456 12.8224 3.22329 12.8318 2.92742C12.8547 2.15337 12.3758 2.15337 11.8311 2.20546C11.7443 2.2138 11.657 2.2138 11.5702 2.20546C11.3375 2.18567 11.2102 2.27005 11.2144 2.518C11.2227 3.02118 10.9619 3.40143 10.6405 3.75668C10.1354 4.31612 9.63978 4.88389 9.11804 5.4725C9.66796 5.71941 10.1323 5.65586 10.5601 5.36833C11.517 4.71825 12.4603 4.72033 13.4172 5.36833C13.846 5.66315 14.3093 5.72357 14.8613 5.47459ZM14.5107 13.1265C14.901 13.1265 15.1786 13.1265 15.4561 13.1265C15.5605 13.1265 15.6648 13.1421 15.74 13.0421C15.8443 12.8952 15.7493 11.7347 15.6085 11.593C15.1462 11.1242 14.6777 10.6616 14.2113 10.198C14.0328 10.0199 13.8231 9.92927 13.6165 10.1241C13.1636 10.5533 12.7285 11.0002 12.286 11.4388C12.1817 11.543 12.1535 11.6545 12.2725 11.7514C12.9873 12.3295 13.3817 13.4536 14.5107 13.1265ZM8.84883 13.0796H12.5354C12.0189 12.5504 11.5504 12.0545 11.061 11.5805C10.9076 11.4315 10.6979 11.4763 10.5393 11.6138C10.0019 12.0764 9.47074 12.5431 8.84883 13.0838V13.0796ZM12.0012 1.48975C12.2777 1.48975 12.5542 1.47725 12.8307 1.48975C13.1438 1.50642 13.1438 1.31994 13.149 1.09179C13.1542 0.863641 13.1167 0.692788 12.8193 0.701122C12.3038 0.717791 11.782 0.718833 11.2603 0.702164C10.9587 0.692788 10.8304 0.778214 10.8273 1.10742C10.8273 1.45433 10.988 1.50955 11.2718 1.49392C11.516 1.47934 11.7591 1.4908 12.0012 1.48975Z" fill="#FA8B02" stroke="#FA8B02" stroke-width="0.2"/>
</g>
<defs>
<clipPath id="clip0_1_1715">
<rect width="24" height="24" fill="white"/>
</clipPath>
</defs>
</svg>
